STARTFONT 2.1
FONT -Adobe-Times-Bold-R-Normal--24-240-75-75-P-132-ISO10646-1
SIZE 24 75 75
FONTBOUNDINGBOX 28 37 -2 -10
COMMENT $XFree86$
COMMENT ISO10646-1 extension by Markus Kuhn <mkuhn@acm.org>, 2001-03-20
COMMENT 
COMMENT +
COMMENT  Copyright 1984-1989, 1994 Adobe Systems Incorporated.
COMMENT  Copyright 1988, 1994 Digital Equipment Corporation.
COMMENT
COMMENT  Adobe is a trademark of Adobe Systems Incorporated which may be
COMMENT  registered in certain jurisdictions.
COMMENT  Permission to use these trademarks is hereby granted only in
COMMENT  association with the images described in this file.
COMMENT
COMMENT  Permission to use, copy, modify, distribute and sell this software
COMMENT  and its documentation for any purpose and without fee is hereby
COMMENT  granted, provided that the above copyright notices appear in all
COMMENT  copies and that both those copyright notices and this permission
COMMENT  notice appear in supporting documentation, and that the names of
COMMENT  Adobe Systems and Digital Equipment Corporation not be used in
COMMENT  advertising or publicity pertaining to distribution of the software
COMMENT  without specific, written prior permission.  Adobe Systems and
COMMENT  Digital Equipment Corporation make no representations about the
COMMENT  suitability of this software for any purpose.  It is provided "as
COMMENT  is" without express or implied warranty.
COMMENT -
STARTPROPERTIES 26
FOUNDRY "Adobe"
FAMILY_NAME "Times"
WEIGHT_NAME "Bold"
SLANT "R"
SETWIDTH_NAME "Normal"
ADD_STYLE_NAME ""
PIXEL_SIZE 24
POINT_SIZE 240
RESOLUTION_X 75
RESOLUTION_Y 75
SPACING "P"
AVERAGE_WIDTH 132
CHARSET_REGISTRY "ISO10646"
CHARSET_ENCODING "1"
CAP_HEIGHT 17
X_HEIGHT 12
FONT_ASCENT 20
FONT_DESCENT 6
FACE_NAME "Times Bold"
COPYRIGHT "Copyright (c) 1984, 1987 Adobe Systems Incorporated. All Rights Reserved. Copyright (c) 1988, 1991 Digital Equipment Corporation. All Rights Reserved."

STARTCHAR char0
ENCODING 0
SWIDTH 778 0
DWIDTH 19 0
BBX 17 17 0 0
BITMAP
AAAA80
000000
800080
000000
800080
000000
800080
000000
800080
000000
800080
000000
800080
000000
800080
000000
AAAA80
ENDCHAR
STARTCHAR space
ENCODING 32
SWIDTH 250 0
DWIDTH 6 0
BBX 1 1 0 0
BITMAP
00
ENDCHAR
STARTCHAR exclam
ENCODING 33
SWIDTH 333 0
DWIDTH 8 0
BBX 4 17 2 0
BITMAP
60
F0
F0
F0
F0
F0
60
60
60
60
60
00
00
60
F0
F0
60
ENDCHAR
STARTCHAR quotedbl
ENCODING 34
SWIDTH 555 0
DWIDTH 12 0
BBX 8 8 2 9
BITMAP
E7
E7
E7
E7
E7
E7
42
42
ENDCHAR
STARTCHAR numbersign
ENCODING 35
SWIDTH 500 0
DWIDTH 13 0
BBX 12 17 0 0
BITMAP
0CC0
0CC0
0CC0
0CC0
7FF0
7FF0
1980
1980
1980
1980
FFE0
FFE0
3300
3300
3300
3300
3300
ENDCHAR
STARTCHAR dollar
ENCODING 36
SWIDTH 500 0
DWIDTH 12 0
BBX 10 20 1 -2
BITMAP
0800
0800
3F00
6B80
C980
E980
F880
FC00
7E00
3F00
1F80
0FC0
0BC0
89C0
C9C0
C9C0
EB80
3E00
0800
0800
ENDCHAR
STARTCHAR percent
ENCODING 37
SWIDTH 1000 0
DWIDTH 19 0
BBX 17 17 1 0
BITMAP
1E0C00
3BFC00
711800
E13000
E23000
E26000
F46000
78C000
00C000
018F00
019D80
033880
037080
067100
067100
0C7A00
0C3C00
ENDCHAR
STARTCHAR ampersand
ENCODING 38
SWIDTH 833 0
DWIDTH 21 0
BBX 17 17 2 0
BITMAP
03E000
077000
0E3000
0E3000
0E7000
0FE000
0F8F80
1F8700
33C200
71E600
E1FC00
E0F800
E07800
F07C00
F9FF80
7F9F00
3F0E00
ENDCHAR
STARTCHAR quotesingle
ENCODING 39
SWIDTH 278 0
DWIDTH 7 0
BBX 3 8 2 9
BITMAP
E0
E0
E0
E0
E0
E0
40
40
ENDCHAR
STARTCHAR parenleft
ENCODING 40
SWIDTH 333 0
DWIDTH 8 0
BBX 5 21 1 -4
BITMAP
08
18
30
30
70
60
60
E0
E0
E0
E0
E0
E0
E0
60
60
70
30
30
18
08
ENDCHAR
STARTCHAR parenright
ENCODING 41
SWIDTH 333 0
DWIDTH 8 0
BBX 5 21 2 -4
BITMAP
80
C0
60
60
30
30
30
38
38
38
38
38
38
38
30
30
30
60
60
C0
80
ENDCHAR
STARTCHAR asterisk
ENCODING 42
SWIDTH 500 0
DWIDTH 13 0
BBX 10 11 1 6
BITMAP
0C00
0C00
4C80
EDC0
7F80
1E00
7F80
EDC0
4C80
0C00
0C00
ENDCHAR
STARTCHAR plus
ENCODING 43
SWIDTH 570 0
DWIDTH 14 0
BBX 12 12 1 0
BITMAP
0600
0600
0600
0600
0600
FFF0
FFF0
0600
0600
0600
0600
0600
ENDCHAR
STARTCHAR comma
ENCODING 44
SWIDTH 250 0
DWIDTH 6 0
BBX 4 9 1 -5
BITMAP
60
F0
F0
70
30
60
60
C0
80
ENDCHAR
STARTCHAR hyphen
ENCODING 45
SWIDTH 333 0
DWIDTH 8 0
BBX 6 3 1 5
BITMAP
FC
FC
FC
ENDCHAR
STARTCHAR period
ENCODING 46
SWIDTH 250 0
DWIDTH 6 0
BBX 4 4 1 0
BITMAP
60
F0
F0
60
ENDCHAR
STARTCHAR slash
ENCODING 47
SWIDTH 278 0
DWIDTH 7 0
BBX 7 17 0 0
BITMAP
06
06
04
0C
0C
08
18
18
10
30
30
20
60
60
40
C0
C0
ENDCHAR
STARTCHAR zero
ENCODING 48
SWIDTH 500 0
DWIDTH 12 0
BBX 11 17 0 0
BITMAP
0E00
3B80
3180
71C0
71C0
F1E0
F1E0
F1E0
F1E0
F1E0
F1E0
71C0
71C0
71C0
3180
3B80
0E00
ENDCHAR
STARTCHAR one
ENCODING 49
SWIDTH 500 0
DWIDTH 12 0
BBX 9 17 2 0
BITMAP
0C00
3C00
FC00
1C00
1C00
1C00
1C00
1C00
1C00
1C00
1C00
1C00
1C00
1C00
1C00
3E00
FF80
ENDCHAR
STARTCHAR two
ENCODING 50
SWIDTH 500 0
DWIDTH 12 0
BBX 10 17 1 0
BITMAP
1E00
3F00
7F80
C780
8380
0380
0380
0300
0700
0600
0C00
0C00
1840
3040
7FC0
FFC0
FF80
ENDCHAR
STARTCHAR three
ENCODING 51
SWIDTH 500 0
DWIDTH 12 0
BBX 11 17 0 0
BITMAP
0F00
3F80
63C0
C1C0
01C0
0180
0380
1F00
1FC0
03E0
01E0
00E0
00E0
60E0
F1C0
FB80
7E00
ENDCHAR
STARTCHAR four
ENCODING 52
SWIDTH 500 0
DWIDTH 12 0
BBX 11 17 0 0
BITMAP
0180
0380
0780
0780
0F80
1B80
3380
3380
6380
C380
C380
FFE0
FFE0
0380
0380
0380
0380
ENDCHAR
STARTCHAR five
ENCODING 53
SWIDTH 500 0
DWIDTH 12 0
BBX 11 17 0 0
BITMAP
1FE0
1FC0
3FC0
3000
2000
6000
7F00
7F80
7FC0
07C0
01C0
00C0
00C0
60C0
F180
FB80
7E00
ENDCHAR
STARTCHAR six
ENCODING 54
SWIDTH 500 0
DWIDTH 12 0
BBX 10 17 1 0
BITMAP
01C0
0780
1E00
3C00
3800
7800
7000
7700
FB80
F1C0
F1C0
F1C0
F1C0
71C0
71C0
3B80
1E00
ENDCHAR
STARTCHAR seven
ENCODING 55
SWIDTH 500 0
DWIDTH 12 0
BBX 11 17 0 0
BITMAP
7FE0
7FE0
7FC0
C0C0
8180
0180
0380
0300
0300
0700
0600
0600
0E00
0E00
0C00
1C00
1C00
ENDCHAR
STARTCHAR eight
ENCODING 56
SWIDTH 500 0
DWIDTH 12 0
BBX 11 17 1 0
BITMAP
1F00
3B80
71C0
71C0
71C0
7980
7F00
3F00
1F80
77C0
63E0
E1E0
E0E0
E0E0
E0C0
71C0
1F00
ENDCHAR
STARTCHAR nine
ENCODING 57
SWIDTH 500 0
DWIDTH 12 0
BBX 11 17 0 0
BITMAP
0E00
3B80
71C0
71C0
F0E0
F0E0
F0E0
F0E0
70E0
39E0
1FE0
01C0
03C0
0380
0700
1E00
7800
ENDCHAR
STARTCHAR colon
ENCODING 58
SWIDTH 333 0
DWIDTH 8 0
BBX 4 12 2 0
BITMAP
60
F0
F0
60
00
00
00
00
60
F0
F0
60
ENDCHAR
STARTCHAR semicolon
ENCODING 59
SWIDTH 333 0
DWIDTH 8 0
BBX 4 17 2 -5
BITMAP
60
F0
F0
60
00
00
00
00
60
F0
F0
70
30
60
60
C0
80
ENDCHAR
STARTCHAR less
ENCODING 60
SWIDTH 570 0
DWIDTH 14 0
BBX 11 12 1 0
BITMAP
0060
01E0
07C0
1F00
3C00
E000
E000
3C00
1F00
07C0
01E0
0060
ENDCHAR
STARTCHAR equal
ENCODING 61
SWIDTH 570 0
DWIDTH 14 0
BBX 11 6 1 3
BITMAP
FFE0
FFE0
0000
0000
FFE0
FFE0
ENDCHAR
STARTCHAR greater
ENCODING 62
SWIDTH 570 0
DWIDTH 14 0
BBX 11 12 1 0
BITMAP
C000
F000
7C00
1F00
0780
00E0
00E0
0780
1F00
7C00
F000
C000
ENDCHAR
STARTCHAR question
ENCODING 63
SWIDTH 500 0
DWIDTH 12 0
BBX 9 17 1 0
BITMAP
3E00
6700
E380
E380
4380
0780
0F00
0E00
1C00
1800
1800
0000
0000
1800
3C00
3C00
1800
ENDCHAR
STARTCHAR at
ENCODING 64
SWIDTH 930 0
DWIDTH 23 0
BBX 20 21 1 -4
BITMAP
007C00
03F780
0F80C0
1E0060
3C0020
383B30
70FF10
71E710
F1C710
E3C610
E38E10
E38E30
E38E20
F39E60
F1FEC0
70F380
780000
380000
1E0000
078300
01FC00
ENDCHAR
STARTCHAR A
ENCODING 65
SWIDTH 722 0
DWIDTH 18 0
BBX 17 17 0 0
BITMAP
018000
01C000
03C000
03E000
02E000
06E000
067000
047000
0C7000
083800
083800
1FF800
103C00
301C00
301E00
701E00
F87F80
ENDCHAR
STARTCHAR B
ENCODING 66
SWIDTH 667 0
DWIDTH 16 0
BBX 13 17 1 0
BITMAP
FF80
38E0
3870
3870
3870
3870
3860
38C0
3FE0
3870
3838
3838
3838
3838
3838
3870
FFC0
ENDCHAR
STARTCHAR C
ENCODING 67
SWIDTH 722 0
DWIDTH 18 0
BBX 14 17 2 0
BITMAP
07E4
1E7C
3C1C
780C
7004
F004
E000
E000
E000
E000
E000
F000
F000
7804
781C
3E78
0FE0
ENDCHAR
STARTCHAR D
ENCODING 68
SWIDTH 722 0
DWIDTH 18 0
BBX 16 17 0 0
BITMAP
FFE0
1C7C
1C1E
1C0E
1C0F
1C07
1C07
1C07
1C07
1C07
1C07
1C07
1C0F
1C0E
1C1E
1C78
FFE0
ENDCHAR
STARTCHAR E
ENCODING 69
SWIDTH 667 0
DWIDTH 17 0
BBX 15 17 1 0
BITMAP
FFFC
1E1C
1C0C
1C04
1C24
1C20
1C60
1CE0
1FE0
1CE0
1C60
1C20
1C22
1C06
1C0C
1E1C
FFFC
ENDCHAR
STARTCHAR F
ENCODING 70
SWIDTH 611 0
DWIDTH 15 0
BBX 14 17 0 0
BITMAP
FFFC
381C
380C
3804
3824
3820
3860
38E0
3FE0
38E0
3860
3820
3820
3800
3800
3800
FF00
ENDCHAR
STARTCHAR G
ENCODING 71
SWIDTH 778 0
DWIDTH 19 0
BBX 17 17 1 0
BITMAP
07FA00
1F1E00
3C0E00
780600
700200
F00200
E00000
E00000
E07F80
E00E00
E00E00
F00E00
700E00
780E00
3C0E00
1F3E00
07FC00
ENDCHAR
STARTCHAR H
ENCODING 72
SWIDTH 778 0
DWIDTH 19 0
BBX 18 17 0 0
BITMAP
FF3FC0
380700
380700
380700
380700
380700
380700
3FFF00
3FFF00
380700
380700
380700
380700
380700
380700
380700
FF3FC0
ENDCHAR
STARTCHAR I
ENCODING 73
SWIDTH 389 0
DWIDTH 10 0
BBX 7 17 2 0
BITMAP
FE
38
38
38
38
38
38
38
38
38
38
38
38
38
38
38
FE
ENDCHAR
STARTCHAR J
ENCODING 74
SWIDTH 500 0
DWIDTH 12 0
BBX 12 19 0 -2
BITMAP
1FF0
0380
0380
0380
0380
0380
0380
0380
0380
0380
0380
0380
0380
0380
4380
E380
E300
E700
7C00
ENDCHAR
STARTCHAR K
ENCODING 75
SWIDTH 778 0
DWIDTH 19 0
BBX 17 17 1 0
BITMAP
FE7F00
383800
383000
386000
38C000
398000
3B0000
3F0000
3F8000
3BC000
39E000
38F000
387800
383C00
381E00
380F00
FE1F80
ENDCHAR
STARTCHAR L
ENCODING 76
SWIDTH 667 0
DWIDTH 16 0
BBX 14 17 1 0
BITMAP
FE00
3800
3800
3800
3800
3800
3800
3800
3800
3800
3800
3800
3804
380C
3818
3838
FFF8
ENDCHAR
STARTCHAR M
ENCODING 77
SWIDTH 944 0
DWIDTH 24 0
BBX 21 17 2 0
BITMAP
F800F8
3C01E0
3C01E0
3E03E0
2E02E0
2F06E0
2704E0
270CE0
278CE0
2388E0
2398E0
21F0E0
21F0E0
20E0E0
20E0E0
2040E0
F803F8
ENDCHAR
STARTCHAR N
ENCODING 78
SWIDTH 722 0
DWIDTH 18 0
BBX 17 17 0 0
BITMAP
F00F80
780700
3C0200
3E0200
3F0200
2F8200
27C200
23E200
21F200
20FA00
207A00
203E00
201E00
200E00
200600
700600
F80200
ENDCHAR
STARTCHAR O
ENCODING 79
SWIDTH 778 0
DWIDTH 19 0
BBX 16 17 1 0
BITMAP
07E0
1E78
381C
781E
700E
F00F
E007
E007
E007
E007
E007
F00F
700E
781E
381C
1E78
07E0
ENDCHAR
STARTCHAR P
ENCODING 80
SWIDTH 611 0
DWIDTH 15 0
BBX 13 17 1 0
BITMAP
FFC0
38F0
3878
3838
3838
3838
3878
38F0
3FC0
3800
3800
3800
3800
3800
3800
3800
FE00
ENDCHAR
STARTCHAR Q
ENCODING 81
SWIDTH 778 0
DWIDTH 19 0
BBX 17 22 2 -5
BITMAP
07E000
1E7800
381C00
781E00
700E00
F00F00
E00700
E00700
E00700
E00700
E00700
F00F00
700E00
781E00
381C00
1E7800
07E000
03C000
01E000
01F000
00FC00
003F80
ENDCHAR
STARTCHAR R
ENCODING 82
SWIDTH 722 0
DWIDTH 18 0
BBX 16 17 1 0
BITMAP
FFF0
1C38
1C1C
1C1C
1C1C
1C1C
1C38
1C70
1FC0
1DE0
1CF0
1C70
1C78
1C3C
1C1C
1C1E
FF0F
ENDCHAR
STARTCHAR S
ENCODING 83
SWIDTH 556 0
DWIDTH 14 0
BBX 11 17 2 0
BITMAP
3F40
71C0
E0C0
E040
E040
F000
FC00
7F00
1FC0
0FC0
03E0
81E0
80E0
C0E0
E0C0
F1C0
BF80
ENDCHAR
STARTCHAR T
ENCODING 84
SWIDTH 667 0
DWIDTH 16 0
BBX 15 17 0 0
BITMAP
FFFE
E38E
C386
8382
8382
0380
0380
0380
0380
0380
0380
0380
0380
0380
0380
0380
1FF0
ENDCHAR
STARTCHAR U
ENCODING 85
SWIDTH 722 0
DWIDTH 18 0
BBX 17 17 1 0
BITMAP
FF0F80
380200
380200
380200
380200
380200
380200
380200
380200
380200
380200
380200
380200
380600
1C0400
1E0C00
0FF800
ENDCHAR
STARTCHAR V
ENCODING 86
SWIDTH 722 0
DWIDTH 18 0
BBX 17 17 1 0
BITMAP
FF1F80
3C0600
3C0400
1C0400
1E0C00
0E0800
0E0800
0F1800
071000
071000
03B000
03A000
03E000
01C000
01C000
008000
008000
ENDCHAR
STARTCHAR W
ENCODING 87
SWIDTH 1000 0
DWIDTH 25 0
BBX 25 17 1 0
BITMAP
FF7F9F80
3C1E0600
3C0E0400
1C0E0C00
1E1E0800
1E1F1800
0E171800
0E371000
0F271000
0763B000
0743A000
07C3E000
03C1E000
0381C000
0381C000
01008000
01008000
ENDCHAR
STARTCHAR X
ENCODING 88
SWIDTH 722 0
DWIDTH 18 0
BBX 16 17 1 0
BITMAP
FF3F
3C0C
1C08
1E18
0E30
0720
07E0
03C0
03C0
03E0
03F0
0670
0C78
0C3C
183C
381E
FCFF
ENDCHAR
STARTCHAR Y
ENCODING 89
SWIDTH 722 0
DWIDTH 18 0
BBX 17 17 1 0
BITMAP
FF3F80
3C0F00
3C0C00
1E0C00
0E1800
0F1800
073000
03A000
03E000
01C000
01C000
01C000
01C000
01C000
01C000
01C000
07F000
ENDCHAR
STARTCHAR Z
ENCODING 90
SWIDTH 667 0
DWIDTH 17 0
BBX 14 17 2 0
BITMAP
FFF8
E078
C0F0
C0F0
81E0
03C0
03C0
0780
0F80
0F00
1E00
3E04
3C04
780C
781C
F038
FFF8
ENDCHAR
STARTCHAR bracketleft
ENCODING 91
SWIDTH 333 0
DWIDTH 8 0
BBX 5 21 2 -4
BITMAP
F8
E0
C0
C0
C0
C0
C0
C0
C0
C0
C0
C0
C0
C0
C0
C0
C0
C0
C0
E0
F8
ENDCHAR
STARTCHAR backslash
ENCODING 92
SWIDTH 278 0
DWIDTH 7 0
BBX 7 17 0 0
BITMAP
C0
C0
40
60
60
20
30
30
10
18
18
08
0C
0C
04
06
06
ENDCHAR
STARTCHAR bracketright
ENCODING 93
SWIDTH 333 0
DWIDTH 8 0
BBX 5 21 0 -4
BITMAP
F8
38
18
18
18
18
18
18
18
18
18
18
18
18
18
18
18
18
18
38
F8
ENDCHAR
STARTCHAR asciicircum
ENCODING 94
SWIDTH 581 0
DWIDTH 15 0
BBX 8 10 3 7
BITMAP
18
18
3C
24
66
66
66
C3
C3
81
ENDCHAR
STARTCHAR underscore
ENCODING 95
SWIDTH 500 0
DWIDTH 13 0
BBX 13 2 0 -5
BITMAP
FFF8
FFF8
ENDCHAR
STARTCHAR grave
ENCODING 96
SWIDTH 333 0
DWIDTH 8 0
BBX 5 4 1 13
BITMAP
E0
70
30
18
ENDCHAR
STARTCHAR a
ENCODING 97
SWIDTH 500 0
DWIDTH 12 0
BBX 10 12 1 0
BITMAP
3E00
6700
E380
E380
4380
0F80
7380
E380
E380
E780
FFC0
7180
ENDCHAR
STARTCHAR b
ENCODING 98
SWIDTH 556 0
DWIDTH 13 0
BBX 12 17 0 0
BITMAP
F800
3800
3800
3800
3800
3B80
3FE0
3CE0
3870
3870
3870
3870
3870
3870
38E0
3DE0
3780
ENDCHAR
STARTCHAR c
ENCODING 99
SWIDTH 444 0
DWIDTH 11 0
BBX 9 12 1 0
BITMAP
1F00
7380
7380
E380
E100
E000
E000
E000
F000
7880
7F00
1E00
ENDCHAR
STARTCHAR d
ENCODING 100
SWIDTH 556 0
DWIDTH 14 0
BBX 12 17 1 0
BITMAP
03E0
00E0
00E0
00E0
00E0
1EE0
7FE0
71E0
E0E0
E0E0
E0E0
E0E0
E0E0
F0E0
71E0
7EE0
1C70
ENDCHAR
STARTCHAR e
ENCODING 101
SWIDTH 444 0
DWIDTH 11 0
BBX 10 12 1 0
BITMAP
1F00
7380
6380
E1C0
E1C0
FFC0
E000
E000
F000
7880
7F00
1E00
ENDCHAR
STARTCHAR f
ENCODING 102
SWIDTH 333 0
DWIDTH 8 0
BBX 8 17 1 0
BITMAP
1E
33
73
70
70
FC
70
70
70
70
70
70
70
70
70
70
F8
ENDCHAR
STARTCHAR g
ENCODING 103
SWIDTH 500 0
DWIDTH 12 0
BBX 10 17 1 -5
BITMAP
3E00
77C0
E380
E380
E380
E380
7300
3E00
7000
E000
FF80
FFC0
7FC0
E0C0
C0C0
C180
7F00
ENDCHAR
STARTCHAR h
ENCODING 104
SWIDTH 556 0
DWIDTH 14 0
BBX 13 17 0 0
BITMAP
F800
3800
3800
3800
3800
39E0
3FF0
3C70
3870
3870
3870
3870
3870
3870
3870
3870
7CF8
ENDCHAR
STARTCHAR i
ENCODING 105
SWIDTH 278 0
DWIDTH 7 0
BBX 5 17 1 0
BITMAP
70
70
70
00
00
F0
70
70
70
70
70
70
70
70
70
70
F8
ENDCHAR
STARTCHAR j
ENCODING 106
SWIDTH 333 0
DWIDTH 8 0
BBX 7 22 -1 -5
BITMAP
0E
0E
0E
00
00
1E
0E
0E
0E
0E
0E
0E
0E
0E
0E
0E
0E
0E
CE
CE
CC
78
ENDCHAR
STARTCHAR k
ENCODING 107
SWIDTH 556 0
DWIDTH 15 0
BBX 13 17 1 0
BITMAP
F000
7000
7000
7000
7000
73F0
70C0
7180
7300
7600
7E00
7F00
7780
73C0
71E0
70F0
F9F8
ENDCHAR
STARTCHAR l
ENCODING 108
SWIDTH 278 0
DWIDTH 7 0
BBX 6 17 0 0
BITMAP
F8
38
38
38
38
38
38
38
38
38
38
38
38
38
38
38
7C
ENDCHAR
STARTCHAR m
ENCODING 109
SWIDTH 833 0
DWIDTH 21 0
BBX 19 12 1 0
BITMAP
F3C780
77DFC0
78F1C0
70E1C0
70E1C0
70E1C0
70E1C0
70E1C0
70E1C0
70E1C0
70E1C0
F9F3E0
ENDCHAR
STARTCHAR n
ENCODING 110
SWIDTH 556 0
DWIDTH 14 0
BBX 12 12 1 0
BITMAP
F3C0
77E0
78E0
70E0
70E0
70E0
70E0
70E0
70E0
70E0
70E0
F9F0
ENDCHAR
STARTCHAR o
ENCODING 111
SWIDTH 500 0
DWIDTH 13 0
BBX 11 12 1 0
BITMAP
1F00
7BC0
71C0
E0E0
E0E0
E0E0
E0E0
E0E0
E0E0
71C0
7BC0
1F00
ENDCHAR
STARTCHAR p
ENCODING 112
SWIDTH 556 0
DWIDTH 14 0
BBX 12 17 1 -5
BITMAP
F380
77E0
7CE0
7870
7070
7070
7070
7070
7070
78E0
77E0
7380
7000
7000
7000
7000
FC00
ENDCHAR
STARTCHAR q
ENCODING 113
SWIDTH 556 0
DWIDTH 14 0
BBX 12 18 1 -5
BITMAP
0020
0E60
3FE0
71E0
E0E0
E0E0
E0E0
E0E0
E0E0
E0E0
71E0
7EE0
1CE0
00E0
00E0
00E0
00E0
01F0
ENDCHAR
STARTCHAR r
ENCODING 114
SWIDTH 444 0
DWIDTH 11 0
BBX 10 12 1 0
BITMAP
F780
79C0
73C0
7180
7000
7000
7000
7000
7000
7000
7000
FC00
ENDCHAR
STARTCHAR s
ENCODING 115
SWIDTH 389 0
DWIDTH 10 0
BBX 8 12 1 0
BITMAP
3E
66
E2
E2
F8
7C
3E
1F
87
87
C6
FC
ENDCHAR
STARTCHAR t
ENCODING 116
SWIDTH 333 0
DWIDTH 8 0
BBX 8 16 0 0
BITMAP
08
18
38
78
FF
38
38
38
38
38
38
38
38
39
3E
1C
ENDCHAR
STARTCHAR u
ENCODING 117
SWIDTH 556 0
DWIDTH 14 0
BBX 12 12 1 0
BITMAP
F1E0
70E0
70E0
70E0
70E0
70E0
70E0
70E0
70E0
71E0
7EF0
3CE0
ENDCHAR
STARTCHAR v
ENCODING 118
SWIDTH 500 0
DWIDTH 12 0
BBX 12 12 0 0
BITMAP
FCF0
7860
7840
38C0
3C80
1D80
1D00
1F00
0F00
0E00
0600
0600
ENDCHAR
STARTCHAR w
ENCODING 119
SWIDTH 722 0
DWIDTH 18 0
BBX 17 12 0 0
BITMAP
FDF780
78E300
38E300
38E200
38E600
1CF600
1D7400
1F3C00
0F3C00
0E3800
061800
061800
ENDCHAR
STARTCHAR x
ENCODING 120
SWIDTH 500 0
DWIDTH 12 0
BBX 12 12 0 0
BITMAP
FCF0
7860
3CC0
1D80
1F00
0F00
0F00
1F80
1BC0
31C0
61E0
F3F0
ENDCHAR
STARTCHAR y
ENCODING 121
SWIDTH 500 0
DWIDTH 12 0
BBX 12 17 0 -5
BITMAP
FDF0
7860
3840
38C0
3C80
1C80
1D80
1F00
0F00
0F00
0600
0600
0600
6400
EC00
F800
7000
ENDCHAR
STARTCHAR z
ENCODING 122
SWIDTH 444 0
DWIDTH 11 0
BBX 9 12 1 0
BITMAP
FF80
C700
8F00
8E00
1E00
1C00
3C00
3800
7880
7180
F180
FF80
ENDCHAR
STARTCHAR braceleft
ENCODING 123
SWIDTH 394 0
DWIDTH 10 0
BBX 7 21 1 -4
BITMAP
0E
18
30
30
30
30
30
30
30
60
C0
60
30
30
30
30
30
30
30
18
0E
ENDCHAR
STARTCHAR bar
ENCODING 124
SWIDTH 220 0
DWIDTH 6 0
BBX 2 22 2 -5
BITMAP
C0
C0
C0
C0
C0
C0
C0
C0
C0
C0
C0
C0
C0
C0
C0
C0
C0
C0
C0
C0
C0
C0
ENDCHAR
STARTCHAR braceright
ENCODING 125
SWIDTH 394 0
DWIDTH 10 0
BBX 7 21 1 -4
BITMAP
E0
30
18
18
18
18
18
18
18
0C
06
0C
18
18
18
18
18
18
18
30
E0
ENDCHAR
STARTCHAR asciitilde
ENCODING 126
SWIDTH 520 0
DWIDTH 13 0
BBX 12 6 0 6
BITMAP
1800
7E10
FF10
8FF0
87E0
0180
ENDCHAR
STARTCHAR space
ENCODING 160
SWIDTH 250 0
DWIDTH 6 0
BBX 1 1 0 0
BITMAP
00
ENDCHAR
STARTCHAR exclamdown
ENCODING 161
SWIDTH 333 0
DWIDTH 8 0
BBX 4 17 2 -5
BITMAP
60
F0
F0
60
00
00
60
60
60
60
60
F0
F0
F0
F0
F0
60
ENDCHAR
STARTCHAR cent
ENCODING 162
SWIDTH 500 0
DWIDTH 13 0
BBX 10 18 1 -3
BITMAP
0040
00C0
0080
0F80
3DC0
79C0
7340
E200
E200
E600
E400
7400
7C40
3FC0
1F00
1800
1000
3000
ENDCHAR
STARTCHAR sterling
ENCODING 163
SWIDTH 500 0
DWIDTH 13 0
BBX 12 17 0 0
BITMAP
0FC0
1CE0
38E0
38E0
3840
1C00
1C00
FF80
FF80
0E00
0E00
0E10
0C10
7C30
CFF0
FFF0
73C0
ENDCHAR
STARTCHAR currency
ENCODING 164
SWIDTH 500 0
DWIDTH 13 0
BBX 11 12 0 3
BITMAP
C060
EEE0
7FC0
3B80
71C0
60C0
60C0
71C0
3B80
7FC0
EEE0
C060
ENDCHAR
STARTCHAR yen
ENCODING 165
SWIDTH 500 0
DWIDTH 13 0
BBX 14 17 0 0
BITMAP
FE7C
3830
3C20
1C60
1E40
0EC0
0F80
0780
0700
1FC0
0700
1FC0
0700
0700
0700
0700
1FC0
ENDCHAR
STARTCHAR brokenbar
ENCODING 166
SWIDTH 220 0
DWIDTH 6 0
BBX 2 22 2 -5
BITMAP
C0
C0
C0
C0
C0
C0
C0
C0
00
00
00
00
00
C0
C0
C0
C0
C0
C0
C0
C0
C0
ENDCHAR
STARTCHAR section
ENCODING 167
SWIDTH 500 0
DWIDTH 11 0
BBX 8 20 2 -3
BITMAP
3C
6E
CE
E6
F0
78
7C
5E
8F
C7
E3
F3
7E
38
1C
0E
C6
E6
EC
78
ENDCHAR
STARTCHAR dieresis
ENCODING 168
SWIDTH 333 0
DWIDTH 8 0
BBX 6 2 1 14
BITMAP
CC
CC
ENDCHAR
STARTCHAR copyright
ENCODING 169
SWIDTH 747 0
DWIDTH 19 0
BBX 17 17 1 0
BITMAP
03E000
0FF800
3C1E00
300600
61F300
633300
C61180
C60180
C60180
C60180
C60180
633300
61E300
300600
3C1E00
0FF800
03E000
ENDCHAR
STARTCHAR ordfeminine
ENCODING 170
SWIDTH 300 0
DWIDTH 8 0
BBX 7 10 0 7
BITMAP
78
DC
0C
7C
CC
CC
7E
00
FE
FE
ENDCHAR
STARTCHAR guillemotleft
ENCODING 171
SWIDTH 500 0
DWIDTH 13 0
BBX 11 10 1 1
BITMAP
0C60
18C0
3180
7380
E700
E700
7380
3180
18C0
0C60
ENDCHAR
STARTCHAR logicalnot
ENCODING 172
SWIDTH 570 0
DWIDTH 15 0
BBX 11 7 2 2
BITMAP
FFE0
FFE0
0060
0060
0060
0060
0060
ENDCHAR
STARTCHAR hyphen
ENCODING 173
SWIDTH 333 0
DWIDTH 8 0
BBX 6 3 1 5
BITMAP
FC
FC
FC
ENDCHAR
STARTCHAR registered
ENCODING 174
SWIDTH 747 0
DWIDTH 19 0
BBX 17 17 1 0
BITMAP
03E000
0FF800
3C1E00
300600
67E300
633300
C33180
C33180
C3E180
C36180
C33180
633300
67BB00
300600
3C1E00
0FF800
03E000
ENDCHAR
STARTCHAR macron
ENCODING 175
SWIDTH 333 0
DWIDTH 8 0
BBX 6 2 1 14
BITMAP
FC
FC
ENDCHAR
STARTCHAR degree
ENCODING 176
SWIDTH 400 0
DWIDTH 9 0
BBX 8 7 0 10
BITMAP
3C
66
C3
C3
C3
66
3C
ENDCHAR
STARTCHAR plusminus
ENCODING 177
SWIDTH 570 0
DWIDTH 14 0
BBX 12 13 1 0
BITMAP
0600
0600
0600
0600
FFF0
FFF0
0600
0600
0600
0600
0000
FFF0
FFF0
ENDCHAR
STARTCHAR twosuperior
ENCODING 178
SWIDTH 300 0
DWIDTH 7 0
BBX 6 10 0 7
BITMAP
38
7C
8C
0C
18
10
20
40
FC
FC
ENDCHAR
STARTCHAR threesuperior
ENCODING 179
SWIDTH 300 0
DWIDTH 7 0
BBX 6 10 0 7
BITMAP
38
7C
8C
0C
38
1C
0C
8C
F8
70
ENDCHAR
STARTCHAR acute
ENCODING 180
SWIDTH 333 0
DWIDTH 8 0
BBX 5 4 2 13
BITMAP
38
70
60
C0
ENDCHAR
STARTCHAR mu
ENCODING 181
SWIDTH 556 0
DWIDTH 14 0
BBX 12 17 1 -5
BITMAP
F1E0
70E0
70E0
70E0
70E0
70E0
70E0
70E0
70E0
71E0
7EF0
6CE0
6000
6000
E000
F000
6000
ENDCHAR
STARTCHAR paragraph
ENCODING 182
SWIDTH 540 0
DWIDTH 14 0
BBX 12 21 1 -4
BITMAP
1FF0
7FF0
7E60
FE60
FE60
FE60
FE60
FE60
FE60
7E60
7E60
1E60
0660
0660
0660
0660
0660
0660
0660
0660
0660
ENDCHAR
STARTCHAR periodcentered
ENCODING 183
SWIDTH 250 0
DWIDTH 6 0
BBX 3 3 1 7
BITMAP
E0
E0
E0
ENDCHAR
STARTCHAR cedilla
ENCODING 184
SWIDTH 333 0
DWIDTH 8 0
BBX 6 6 1 -6
BITMAP
10
30
38
0C
8C
78
ENDCHAR
STARTCHAR onesuperior
ENCODING 185
SWIDTH 300 0
DWIDTH 7 0
BBX 6 10 0 7
BITMAP
30
F0
30
30
30
30
30
30
30
FC
ENDCHAR
STARTCHAR ordmasculine
ENCODING 186
SWIDTH 330 0
DWIDTH 8 0
BBX 7 10 0 7
BITMAP
38
6C
C6
C6
C6
6C
38
00
FE
FE
ENDCHAR
STARTCHAR guillemotright
ENCODING 187
SWIDTH 500 0
DWIDTH 13 0
BBX 11 10 1 1
BITMAP
C600
6300
3180
39C0
1CE0
1CE0
39C0
3380
6300
C600
ENDCHAR
STARTCHAR onequarter
ENCODING 188
SWIDTH 750 0
DWIDTH 18 0
BBX 17 17 0 0
BITMAP
300400
F00C00
301800
301800
303000
302000
306000
304200
30C600
FC8E00
018E00
011600
033600
062600
067F80
0C0600
080600
ENDCHAR
STARTCHAR onehalf
ENCODING 189
SWIDTH 750 0
DWIDTH 18 0
BBX 17 17 0 0
BITMAP
300400
F00C00
301800
301800
303000
302000
306000
304700
30CF80
FC9180
018180
010300
030200
060400
060800
0C1F80
081F80
ENDCHAR
STARTCHAR threequarters
ENCODING 190
SWIDTH 750 0
DWIDTH 18 0
BBX 16 17 1 0
BITMAP
3808
7C18
8C30
0C30
3860
1C40
0CC0
8C84
F98C
711C
031C
022C
066C
0C4C
0CFF
180C
100C
ENDCHAR
STARTCHAR questiondown
ENCODING 191
SWIDTH 500 0
DWIDTH 12 0
BBX 9 17 1 -5
BITMAP
0C00
1E00
1E00
0C00
0000
0000
0C00
0C00
1C00
3800
7800
F000
E100
E380
E380
7300
3E00
ENDCHAR
STARTCHAR Agrave
ENCODING 192
SWIDTH 722 0
DWIDTH 18 0
BBX 17 22 0 0
BITMAP
070000
038000
018000
00C000
000000
018000
01C000
03C000
03E000
02E000
06E000
067000
047000
0C7000
083800
083800
1FF800
103C00
301C00
301E00
701E00
F87F80
ENDCHAR
STARTCHAR Aacute
ENCODING 193
SWIDTH 722 0
DWIDTH 18 0
BBX 17 22 0 0
BITMAP
003800
007000
006000
00C000
000000
018000
01C000
03C000
03E000
02E000
06E000
067000
047000
0C7000
083800
083800
1FF800
103C00
301C00
301E00
701E00
F87F80
ENDCHAR
STARTCHAR Acircumflex
ENCODING 194
SWIDTH 722 0
DWIDTH 18 0
BBX 17 21 0 0
BITMAP
018000
03C000
066000
0C3000
018000
01C000
03C000
03E000
02E000
06E000
067000
047000
0C7000
083800
083800
1FF800
103C00
301C00
301E00
701E00
F87F80
ENDCHAR
STARTCHAR Atilde
ENCODING 195
SWIDTH 722 0
DWIDTH 18 0
BBX 17 21 0 0
BITMAP
031000
07E000
08C000
000000
018000
01C000
03C000
03E000
02E000
06E000
067000
047000
0C7000
083800
083800
1FF800
103C00
301C00
301E00
701E00
F87F80
ENDCHAR
STARTCHAR Adieresis
ENCODING 196
SWIDTH 722 0
DWIDTH 18 0
BBX 17 20 0 0
BITMAP
063000
063000
000000
018000
01C000
03C000
03E000
02E000
06E000
067000
047000
0C7000
083800
083800
1FF800
103C00
301C00
301E00
701E00
F87F80
ENDCHAR
STARTCHAR Aring
ENCODING 197
SWIDTH 722 0
DWIDTH 18 0
BBX 17 22 0 0
BITMAP
01C000
022000
022000
01C000
000000
018000
01C000
03C000
03E000
02E000
06E000
067000
047000
0C7000
083800
083800
1FF800
103C00
301C00
301E00
701E00
F87F80
ENDCHAR
STARTCHAR AE
ENCODING 198
SWIDTH 1000 0
DWIDTH 25 0
BBX 23 17 0 0
BITMAP
01FFFC
007C1C
00DC0C
009C04
019C24
011C20
031C60
021CE0
061FE0
07FCE0
0C1C60
081C20
181C22
101C06
301C0E
701C1E
F8FFFE
ENDCHAR
STARTCHAR Ccedilla
ENCODING 199
SWIDTH 722 0
DWIDTH 18 0
BBX 14 23 2 -6
BITMAP
07E4
1E7C
3C1C
780C
7004
F004
E000
E000
E000
E000
E000
F000
F000
7804
781C
3E78
0FE0
0100
0300
0380
00C0
08C0
0780
ENDCHAR
STARTCHAR Egrave
ENCODING 200
SWIDTH 667 0
DWIDTH 17 0
BBX 15 22 1 0
BITMAP
0700
0380
0180
00C0
0000
FFFC
1E1C
1C0C
1C04
1C24
1C20
1C60
1CE0
1FE0
1CE0
1C60
1C20
1C22
1C06
1C0C
1E1C
FFFC
ENDCHAR
STARTCHAR Eacute
ENCODING 201
SWIDTH 667 0
DWIDTH 17 0
BBX 15 22 1 0
BITMAP
0070
00E0
00C0
0180
0000
FFFC
1E1C
1C0C
1C04
1C24
1C20
1C60
1CE0
1FE0
1CE0
1C60
1C20
1C22
1C06
1C0C
1E1C
FFFC
ENDCHAR
STARTCHAR Ecircumflex
ENCODING 202
SWIDTH 667 0
DWIDTH 17 0
BBX 15 22 1 0
BITMAP
0180
03C0
0660
0C30
0000
FFFC
1E1C
1C0C
1C04
1C24
1C20
1C60
1CE0
1FE0
1CE0
1C60
1C20
1C22
1C06
1C0C
1E1C
FFFC
ENDCHAR
STARTCHAR Edieresis
ENCODING 203
SWIDTH 667 0
DWIDTH 17 0
BBX 15 21 1 0
BITMAP
0630
0630
0000
0000
FFFC
1E1C
1C0C
1C04
1C24
1C20
1C60
1CE0
1FE0
1CE0
1C60
1C20
1C22
1C06
1C0C
1E1C
FFFC
ENDCHAR
STARTCHAR Igrave
ENCODING 204
SWIDTH 389 0
DWIDTH 10 0
BBX 7 22 1 0
BITMAP
E0
70
30
18
00
FE
38
38
38
38
38
38
38
38
38
38
38
38
38
38
38
FE
ENDCHAR
STARTCHAR Iacute
ENCODING 205
SWIDTH 389 0
DWIDTH 10 0
BBX 7 22 1 0
BITMAP
0E
1C
18
30
00
FE
38
38
38
38
38
38
38
38
38
38
38
38
38
38
38
FE
ENDCHAR
STARTCHAR Icircumflex
ENCODING 206
SWIDTH 389 0
DWIDTH 10 0
BBX 8 22 0 0
BITMAP
18
3C
66
C3
00
7F
1C
1C
1C
1C
1C
1C
1C
1C
1C
1C
1C
1C
1C
1C
1C
7F
ENDCHAR
STARTCHAR Idieresis
ENCODING 207
SWIDTH 389 0
DWIDTH 10 0
BBX 7 21 1 0
BITMAP
C6
C6
00
00
FE
38
38
38
38
38
38
38
38
38
38
38
38
38
38
38
FE
ENDCHAR
STARTCHAR Eth
ENCODING 208
SWIDTH 722 0
DWIDTH 18 0
BBX 16 17 1 0
BITMAP
FFF0
3C38
381C
380E
380E
3807
3807
FF87
FF87
3807
3807
380E
380E
381C
381C
3C78
FFE0
ENDCHAR
STARTCHAR Ntilde
ENCODING 209
SWIDTH 722 0
DWIDTH 18 0
BBX 17 22 0 0
BITMAP
018800
03F000
046000
000000
000000
F00F80
780200
3C0200
3E0200
3F0200
2F8200
27C200
23E200
21F200
20FA00
207A00
203E00
201E00
200E00
200600
200600
F80200
ENDCHAR
STARTCHAR Ograve
ENCODING 210
SWIDTH 778 0
DWIDTH 19 0
BBX 16 22 1 0
BITMAP
0700
0380
0180
00C0
0000
07E0
1E78
381C
781E
700E
F00F
E007
E007
E007
E007
E007
F00F
700E
781E
381C
1E78
07E0
ENDCHAR
STARTCHAR Oacute
ENCODING 211
SWIDTH 778 0
DWIDTH 19 0
BBX 16 22 1 0
BITMAP
001C
0038
0030
0060
0000
07E0
1E78
381C
781E
700E
F00F
E007
E007
E007
E007
E007
F00F
700E
781E
381C
1E78
07E0
ENDCHAR
STARTCHAR Ocircumflex
ENCODING 212
SWIDTH 778 0
DWIDTH 19 0
BBX 16 22 1 0
BITMAP
00C0
01E0
0330
0618
0000
07E0
1E78
381C
781E
700E
F00F
E007
E007
E007
E007
E007
F00F
700E
781E
381C
1E78
07E0
ENDCHAR
STARTCHAR Otilde
ENCODING 213
SWIDTH 778 0
DWIDTH 19 0
BBX 16 21 1 0
BITMAP
0188
03F0
0460
0000
07E0
1E78
381C
781E
700E
F00F
E007
E007
E007
E007
E007
F00F
700E
781E
381C
1E78
07E0
ENDCHAR
STARTCHAR Odieresis
ENCODING 214
SWIDTH 778 0
DWIDTH 19 0
BBX 16 21 1 0
BITMAP
0C30
0C30
0000
0000
07E0
1E78
381C
781E
700E
F00F
E007
E007
E007
E007
E007
F00F
700E
781E
381C
1E78
07E0
ENDCHAR
STARTCHAR multiply
ENCODING 215
SWIDTH 570 0
DWIDTH 14 0
BBX 12 12 1 0
BITMAP
C030
E070
70E0
39C0
1F80
0F00
0F00
1F80
39C0
70E0
E070
C030
ENDCHAR
STARTCHAR Oslash
ENCODING 216
SWIDTH 778 0
DWIDTH 19 0
BBX 16 19 1 -1
BITMAP
0004
07EC
1E78
381C
701E
7036
E067
E0C7
E0C7
E187
E307
E307
E607
6C0E
780E
381C
3E78
37E0
6000
ENDCHAR
STARTCHAR Ugrave
ENCODING 217
SWIDTH 722 0
DWIDTH 18 0
BBX 17 22 1 0
BITMAP
070000
038000
018000
00C000
000000
FF0F80
380200
380200
380200
380200
380200
380200
380200
380200
380200
380200
380200
380200
380600
1C0400
1E0C00
0FF800
ENDCHAR
STARTCHAR Uacute
ENCODING 218
SWIDTH 722 0
DWIDTH 18 0
BBX 17 22 1 0
BITMAP
001C00
003800
003000
006000
000000
FF0F80
380200
380200
380200
380200
380200
380200
380200
380200
380200
380200
380200
380200
380600
1C0400
1E0C00
0FF800
ENDCHAR
STARTCHAR Ucircumflex
ENCODING 219
SWIDTH 722 0
DWIDTH 18 0
BBX 17 22 1 0
BITMAP
00C000
01E000
033000
061800
000000
FF0F80
380200
380200
380200
380200
380200
380200
380200
380200
380200
380200
380200
380200
380600
1C0400
1E0C00
0FF800
ENDCHAR
STARTCHAR Udieresis
ENCODING 220
SWIDTH 722 0
DWIDTH 18 0
BBX 17 21 1 0
BITMAP
031800
031800
000000
000000
FF0F80
380200
380200
380200
380200
380200
380200
380200
380200
380200
380200
380200
380200
380600
1C0400
1E0C00
0FF800
ENDCHAR
STARTCHAR Yacute
ENCODING 221
SWIDTH 722 0
DWIDTH 18 0
BBX 17 22 1 0
BITMAP
003800
007000
006000
00C000
000000
FF3F80
3C0F00
3C0C00
1E0C00
0E1800
0F1800
073000
03A000
03E000
01C000
01C000
01C000
01C000
01C000
01C000
01C000
07F000
ENDCHAR
STARTCHAR Thorn
ENCODING 222
SWIDTH 611 0
DWIDTH 15 0
BBX 13 17 1 0
BITMAP
FF00
3800
3800
3800
3FE0
3870
3838
3838
3838
3838
3838
3870
3FE0
3800
3800
3800
FF00
ENDCHAR
STARTCHAR germandbls
ENCODING 223
SWIDTH 556 0
DWIDTH 14 0
BBX 11 17 1 0
BITMAP
1F00
3980
71C0
71C0
71C0
71C0
7380
7700
7380
71C0
70E0
70E0
70E0
70E0
70E0
76C0
F780
ENDCHAR
STARTCHAR agrave
ENCODING 224
SWIDTH 500 0
DWIDTH 12 0
BBX 10 17 1 0
BITMAP
3800
1C00
0C00
0600
0000
3E00
7700
E380
E380
4380
0F80
7380
E380
E380
E780
FFC0
7180
ENDCHAR
STARTCHAR aacute
ENCODING 225
SWIDTH 500 0
DWIDTH 12 0
BBX 10 17 1 0
BITMAP
0700
0E00
0C00
1800
0000
3E00
7700
E380
E380
4380
0F80
7380
E380
E380
E780
FFC0
7180
ENDCHAR
STARTCHAR acircumflex
ENCODING 226
SWIDTH 500 0
DWIDTH 12 0
BBX 10 17 1 0
BITMAP
0C00
1E00
3300
6180
0000
3E00
7700
E380
E380
4380
0F80
7380
E380
E380
E780
FFC0
7180
ENDCHAR
STARTCHAR atilde
ENCODING 227
SWIDTH 500 0
DWIDTH 12 0
BBX 10 17 1 0
BITMAP
1880
3F00
4600
0000
0000
3E00
7700
E380
E380
4380
0F80
7380
E380
E380
E780
FFC0
7180
ENDCHAR
STARTCHAR adieresis
ENCODING 228
SWIDTH 500 0
DWIDTH 12 0
BBX 10 16 1 0
BITMAP
3300
3300
0000
0000
3E00
7700
E380
E380
4380
0F80
7380
E380
E380
E780
FFC0
7180
ENDCHAR
STARTCHAR aring
ENCODING 229
SWIDTH 500 0
DWIDTH 12 0
BBX 10 17 1 0
BITMAP
1C00
2200
2200
1C00
0000
3E00
7700
E380
E380
4380
0F80
7380
E380
E380
E780
FFC0
7180
ENDCHAR
STARTCHAR ae
ENCODING 230
SWIDTH 722 0
DWIDTH 17 0
BBX 15 12 1 0
BITMAP
3E78
77CC
E3CE
638E
038E
1FFE
7380
E380
E3C0
E7E2
FEFC
7C78
ENDCHAR
STARTCHAR ccedilla
ENCODING 231
SWIDTH 444 0
DWIDTH 11 0
BBX 9 18 1 -6
BITMAP
1E00
7300
7380
E380
E100
E000
E000
E000
F000
7880
7F00
1E00
0800
1800
1C00
0600
4600
3C00
ENDCHAR
STARTCHAR egrave
ENCODING 232
SWIDTH 444 0
DWIDTH 11 0
BBX 9 17 1 0
BITMAP
3800
1C00
0C00
0600
0000
1E00
7300
7380
E380
E380
FF80
E000
E000
F000
7880
7F00
1E00
ENDCHAR
STARTCHAR eacute
ENCODING 233
SWIDTH 444 0
DWIDTH 11 0
BBX 9 17 1 0
BITMAP
0700
0E00
0C00
1800
0000
1E00
7300
7380
E380
E380
FF80
E000
E000
F000
7880
7F00
1E00
ENDCHAR
STARTCHAR ecircumflex
ENCODING 234
SWIDTH 444 0
DWIDTH 11 0
BBX 9 17 1 0
BITMAP
0C00
1E00
3300
6180
0000
1E00
7300
7380
E380
E380
FF80
E000
E000
F000
7880
7F00
1E00
ENDCHAR
STARTCHAR edieresis
ENCODING 235
SWIDTH 444 0
DWIDTH 11 0
BBX 9 16 1 0
BITMAP
3300
3300
0000
0000
1E00
7300
7380
E380
E380
FF80
E000
E000
F000
7880
7F00
1E00
ENDCHAR
STARTCHAR igrave
ENCODING 236
SWIDTH 278 0
DWIDTH 7 0
BBX 6 17 0 0
BITMAP
E0
70
30
18
00
78
38
38
38
38
38
38
38
38
38
38
7C
ENDCHAR
STARTCHAR iacute
ENCODING 237
SWIDTH 278 0
DWIDTH 7 0
BBX 5 17 1 0
BITMAP
38
70
60
C0
00
F0
70
70
70
70
70
70
70
70
70
70
F8
ENDCHAR
STARTCHAR icircumflex
ENCODING 238
SWIDTH 278 0
DWIDTH 7 0
BBX 8 17 0 0
BITMAP
18
3C
66
C3
00
78
38
38
38
38
38
38
38
38
38
38
7C
ENDCHAR
STARTCHAR idieresis
ENCODING 239
SWIDTH 278 0
DWIDTH 7 0
BBX 6 16 0 0
BITMAP
CC
CC
00
00
78
38
38
38
38
38
38
38
38
38
38
7C
ENDCHAR
STARTCHAR eth
ENCODING 240
SWIDTH 500 0
DWIDTH 13 0
BBX 11 18 1 0
BITMAP
6000
3B80
0E00
3C00
6E00
0700
1F80
7BC0
71C0
E0E0
E0E0
E0E0
E0E0
E0E0
E0E0
71C0
7BC0
1F00
ENDCHAR
STARTCHAR ntilde
ENCODING 241
SWIDTH 556 0
DWIDTH 14 0
BBX 12 17 1 0
BITMAP
0C40
1F80
2300
0000
0000
F3C0
77E0
78E0
70E0
70E0
70E0
70E0
70E0
70E0
70E0
70E0
F9F0
ENDCHAR
STARTCHAR ograve
ENCODING 242
SWIDTH 500 0
DWIDTH 13 0
BBX 11 17 1 0
BITMAP
1C00
0E00
0600
0300
0000
1F00
7BC0
71C0
E0E0
E0E0
E0E0
E0E0
E0E0
E0E0
71C0
7BC0
1F00
ENDCHAR
STARTCHAR oacute
ENCODING 243
SWIDTH 500 0
DWIDTH 13 0
BBX 11 17 1 0
BITMAP
0380
0700
0600
0C00
0000
1F00
7BC0
71C0
E0E0
E0E0
E0E0
E0E0
E0E0
E0E0
71C0
7BC0
1F00
ENDCHAR
STARTCHAR ocircumflex
ENCODING 244
SWIDTH 500 0
DWIDTH 13 0
BBX 11 17 1 0
BITMAP
0C00
1E00
3300
6180
0000
1F00
7BC0
71C0
E0E0
E0E0
E0E0
E0E0
E0E0
E0E0
71C0
7BC0
1F00
ENDCHAR
STARTCHAR otilde
ENCODING 245
SWIDTH 500 0
DWIDTH 13 0
BBX 11 17 1 0
BITMAP
1880
3F00
4600
0000
0000
1F00
7BC0
71C0
E0E0
E0E0
E0E0
E0E0
E0E0
E0E0
71C0
7BC0
1F00
ENDCHAR
STARTCHAR odieresis
ENCODING 246
SWIDTH 500 0
DWIDTH 13 0
BBX 11 16 1 0
BITMAP
3300
3300
0000
0000
1F00
7BC0
71C0
E0E0
E0E0
E0E0
E0E0
E0E0
E0E0
71C0
7BC0
1F00
ENDCHAR
STARTCHAR divide
ENCODING 247
SWIDTH 570 0
DWIDTH 14 0
BBX 12 12 1 0
BITMAP
0600
0F00
0600
0000
0000
FFF0
FFF0
0000
0000
0600
0F00
0600
ENDCHAR
STARTCHAR oslash
ENCODING 248
SWIDTH 500 0
DWIDTH 13 0
BBX 11 16 1 -2
BITMAP
0040
0040
1E80
79C0
71C0
E2E0
E2E0
E4E0
E4E0
E8E0
E8E0
71C0
7BC0
3F00
4000
4000
ENDCHAR
STARTCHAR ugrave
ENCODING 249
SWIDTH 556 0
DWIDTH 14 0
BBX 12 17 1 0
BITMAP
1C00
0E00
0600
0300
0000
F1E0
70E0
70E0
70E0
70E0
70E0
70E0
70E0
70E0
71E0
7EF0
3CE0
ENDCHAR
STARTCHAR uacute
ENCODING 250
SWIDTH 556 0
DWIDTH 14 0
BBX 12 17 1 0
BITMAP
0380
0700
0600
0C00
0000
F1E0
70E0
70E0
70E0
70E0
70E0
70E0
70E0
70E0
71E0
7EF0
3CE0
ENDCHAR
STARTCHAR ucircumflex
ENCODING 251
SWIDTH 556 0
DWIDTH 14 0
BBX 12 17 1 0
BITMAP
0600
0F00
1980
30C0
0000
F1E0
70E0
70E0
70E0
70E0
70E0
70E0
70E0
70E0
71E0
7EF0
3CE0
ENDCHAR
STARTCHAR udieresis
ENCODING 252
SWIDTH 556 0
DWIDTH 14 0
BBX 12 16 1 0
BITMAP
1980
1980
0000
0000
F1E0
70E0
70E0
70E0
70E0
70E0
70E0
70E0
70E0
71E0
7EF0
3CE0
ENDCHAR
STARTCHAR yacute
ENCODING 253
SWIDTH 500 0
DWIDTH 12 0
BBX 12 22 0 -5
BITMAP
01C0
0380
0300
0600
0000
FDF0
7860
3840
38C0
3C80
1C80
1D80
1F00
0F00
0F00
0600
0600
0600
6400
EC00
F800
7000
ENDCHAR
STARTCHAR thorn
ENCODING 254
SWIDTH 556 0
DWIDTH 14 0
BBX 12 22 1 -5
BITMAP
F000
7000
7000
7000
7000
7380
77E0
7CE0
7870
7070
7070
7070
7070
7070
78E0
77E0
7380
7000
7000
7000
7000
FC00
ENDCHAR
STARTCHAR ydieresis
ENCODING 255
SWIDTH 500 0
DWIDTH 12 0
BBX 12 21 0 -5
BITMAP
1980
1980
0000
0000
FDF0
7860
3840
38C0
3C80
1C80
1D80
1F00
0F00
0F00
0600
0600
0600
6400
EC00
F800
7000
ENDCHAR
STARTCHAR Amacron
ENCODING 256
SWIDTH 722 0
DWIDTH 18 0
BBX 17 20 0 0
BITMAP
07E000
07E000
000000
018000
01C000
03C000
03E000
02E000
06E000
067000
047000
0C7000
083800
083800
1FF800
103C00
301C00
301E00
701E00
F87F80
ENDCHAR
STARTCHAR amacron
ENCODING 257
SWIDTH 500 0
DWIDTH 12 0
BBX 10 15 1 0
BITMAP
3F00
3F00
0000
3E00
6700
E380
E380
4380
0F80
7380
E380
E380
E780
FFC0
7180
ENDCHAR
STARTCHAR Abreve
ENCODING 258
SWIDTH 722 0
DWIDTH 18 0
BBX 17 22 0 0
BITMAP
042000
042000
07E000
03C000
000000
018000
01C000
03C000
03E000
02E000
06E000
067000
047000
0C7000
083800
083800
1FF800
103C00
301C00
301E00
701E00
F87F80
ENDCHAR
STARTCHAR abreve
ENCODING 259
SWIDTH 500 0
DWIDTH 12 0
BBX 10 17 1 0
BITMAP
2100
2100
3F00
1E00
0000
3E00
6700
E380
E380
4380
0F80
7380
E380
E380
E780
FFC0
7180
ENDCHAR
STARTCHAR Aogonek
ENCODING 260
SWIDTH 722 0
DWIDTH 18 0
BBX 17 22 0 -5
BITMAP
018000
01C000
03C000
03E000
02E000
06E000
067000
047000
0C7000
083800
083800
1FF800
103C00
301C00
301E00
701E00
F87F80
00C000
018000
018000
019000
00E000
ENDCHAR
STARTCHAR aogonek
ENCODING 261
SWIDTH 500 0
DWIDTH 12 0
BBX 10 17 1 -5
BITMAP
3E00
6700
E380
E380
4380
0F80
7380
E380
E380
E780
FFC0
7180
0C00
1800
1800
1900
0E00
ENDCHAR
STARTCHAR Cacute
ENCODING 262
SWIDTH 722 0
DWIDTH 18 0
BBX 14 22 2 0
BITMAP
00E0
01C0
0180
0300
0000
07E4
1E7C
3C1C
780C
7004
F004
E000
E000
E000
E000
E000
F000
F000
7804
781C
3E78
0FE0
ENDCHAR
STARTCHAR cacute
ENCODING 263
SWIDTH 444 0
DWIDTH 11 0
BBX 9 17 1 0
BITMAP
0700
0E00
0C00
1800
0000
1F00
7380
7380
E380
E100
E000
E000
E000
F000
7880
7F00
1E00
ENDCHAR
STARTCHAR Ccircumflex
ENCODING 264
SWIDTH 722 0
DWIDTH 18 0
BBX 14 22 2 0
BITMAP
0300
0780
0CC0
1860
0000
07E4
1E7C
3C1C
780C
7004
F004
E000
E000
E000
E000
E000
F000
F000
7804
781C
3E78
0FE0
ENDCHAR
STARTCHAR ccircumflex
ENCODING 265
SWIDTH 444 0
DWIDTH 11 0
BBX 9 17 1 0
BITMAP
0C00
1E00
3300
6180
0000
1F00
7380
7380
E380
E100
E000
E000
E000
F000
7880
7F00
1E00
ENDCHAR
STARTCHAR Cdotaccent
ENCODING 266
SWIDTH 722 0
DWIDTH 18 0
BBX 14 20 2 0
BITMAP
0300
0300
0000
07E4
1E7C
3C1C
780C
7004
F004
E000
E000
E000
E000
E000
F000
F000
7804
781C
3E78
0FE0
ENDCHAR
STARTCHAR cdotaccent
ENCODING 267
SWIDTH 444 0
DWIDTH 11 0
BBX 9 15 1 0
BITMAP
0C00
0C00
0000
1F00
7380
7380
E380
E100
E000
E000
E000
F000
7880
7F00
1E00
ENDCHAR
STARTCHAR Ccaron
ENCODING 268
SWIDTH 722 0
DWIDTH 18 0
BBX 14 22 2 0
BITMAP
1860
0CC0
0780
0300
0000
07E4
1E7C
3C1C
780C
7004
F004
E000
E000
E000
E000
E000
F000
F000
7804
781C
3E78
0FE0
ENDCHAR
STARTCHAR ccaron
ENCODING 269
SWIDTH 444 0
DWIDTH 11 0
BBX 9 17 1 0
BITMAP
6180
3300
1E00
0C00
0000
1F00
7380
7380
E380
E100
E000
E000
E000
F000
7880
7F00
1E00
ENDCHAR
STARTCHAR Dcaron
ENCODING 270
SWIDTH 722 0
DWIDTH 18 0
BBX 16 22 0 0
BITMAP
0C30
0660
03C0
0180
0000
FFE0
1C7C
1C1E
1C0E
1C0F
1C07
1C07
1C07
1C07
1C07
1C07
1C07
1C0F
1C0E
1C1E
1C78
FFE0
ENDCHAR
STARTCHAR dcaron
ENCODING 271
SWIDTH 861 0
DWIDTH 21 0
BBX 18 17 1 0
BITMAP
03E180
00E3C0
00E3C0
00E1C0
00E0C0
1EE180
7FE180
71E300
E0E200
E0E000
E0E000
E0E000
E0E000
F0E000
71E000
7EE000
1C7000
ENDCHAR
STARTCHAR Dcroat
ENCODING 272
SWIDTH 722 0
DWIDTH 18 0
BBX 16 17 1 0
BITMAP
FFF0
3C38
381C
380E
380E
3807
3807
FF87
FF87
3807
3807
380E
380E
381C
381C
3C78
FFE0
ENDCHAR
STARTCHAR dcroat
ENCODING 273
SWIDTH 556 0
DWIDTH 14 0
BBX 13 17 1 0
BITMAP
03E0
00E0
00E0
03F8
03F8
1EE0
7FE0
71E0
E0E0
E0E0
E0E0
E0E0
E0E0
F0E0
71E0
7EE0
1C70
ENDCHAR
STARTCHAR Emacron
ENCODING 274
SWIDTH 667 0
DWIDTH 17 0
BBX 15 20 1 0
BITMAP
0FC0
0FC0
0000
FFFC
1E1C
1C0C
1C04
1C24
1C20
1C60
1CE0
1FE0
1CE0
1C60
1C20
1C22
1C06
1C0C
1E1C
FFFC
ENDCHAR
STARTCHAR emacron
ENCODING 275
SWIDTH 444 0
DWIDTH 11 0
BBX 10 15 1 0
BITMAP
3F00
3F00
0000
1F00
7380
6380
E1C0
E1C0
FFC0
E000
E000
F000
7880
7F00
1E00
ENDCHAR
STARTCHAR Ebreve
ENCODING 276
SWIDTH 667 0
DWIDTH 17 0
BBX 15 22 1 0
BITMAP
0840
0840
0FC0
0780
0000
FFFC
1E1C
1C0C
1C04
1C24
1C20
1C60
1CE0
1FE0
1CE0
1C60
1C20
1C22
1C06
1C0C
1E1C
FFFC
ENDCHAR
STARTCHAR ebreve
ENCODING 277
SWIDTH 444 0
DWIDTH 11 0
BBX 10 17 1 0
BITMAP
2100
2100
3F00
1E00
0000
1F00
7380
6380
E1C0
E1C0
FFC0
E000
E000
F000
7880
7F00
1E00
ENDCHAR
STARTCHAR Edotaccent
ENCODING 278
SWIDTH 667 0
DWIDTH 17 0
BBX 15 20 1 0
BITMAP
0300
0300
0000
FFFC
1E1C
1C0C
1C04
1C24
1C20
1C60
1CE0
1FE0
1CE0
1C60
1C20
1C22
1C06
1C0C
1E1C
FFFC
ENDCHAR
STARTCHAR edotaccent
ENCODING 279
SWIDTH 444 0
DWIDTH 11 0
BBX 10 15 1 0
BITMAP
0C00
0C00
0000
1F00
7380
6380
E1C0
E1C0
FFC0
E000
E000
F000
7880
7F00
1E00
ENDCHAR
STARTCHAR Eogonek
ENCODING 280
SWIDTH 667 0
DWIDTH 17 0
BBX 15 22 1 -5
BITMAP
FFFC
1E1C
1C0C
1C04
1C24
1C20
1C60
1CE0
1FE0
1CE0
1C60
1C20
1C22
1C06
1C0C
1E1C
FFFC
0180
0300
0300
0320
01C0
ENDCHAR
STARTCHAR eogonek
ENCODING 281
SWIDTH 444 0
DWIDTH 11 0
BBX 10 17 1 -5
BITMAP
1F00
7380
6380
E1C0
E1C0
FFC0
E000
E000
F000
7880
7F00
1E00
0C00
1800
1800
1900
0E00
ENDCHAR
STARTCHAR Ecaron
ENCODING 282
SWIDTH 667 0
DWIDTH 17 0
BBX 15 22 1 0
BITMAP
1860
0CC0
0780
0300
0000
FFFC
1E1C
1C0C
1C04
1C24
1C20
1C60
1CE0
1FE0
1CE0
1C60
1C20
1C22
1C06
1C0C
1E1C
FFFC
ENDCHAR
STARTCHAR ecaron
ENCODING 283
SWIDTH 444 0
DWIDTH 11 0
BBX 10 17 1 0
BITMAP
6180
3300
1E00
0C00
0000
1F00
7380
6380
E1C0
E1C0
FFC0
E000
E000
F000
7880
7F00
1E00
ENDCHAR
STARTCHAR Gcircumflex
ENCODING 284
SWIDTH 778 0
DWIDTH 19 0
BBX 17 22 1 0
BITMAP
018000
03C000
066000
0C3000
000000
07FA00
1F1E00
3C0E00
780600
700200
F00200
E00000
E00000
E07F80
E00E00
E00E00
F00E00
700E00
780E00
3C0E00
1F3E00
07FC00
ENDCHAR
STARTCHAR gcircumflex
ENCODING 285
SWIDTH 500 0
DWIDTH 12 0
BBX 10 22 1 -5
BITMAP
0C00
1E00
3300
6180
0000
3E00
77C0
E380
E380
E380
E380
7300
3E00
7000
E000
FF80
FFC0
7FC0
E0C0
C0C0
C180
7F00
ENDCHAR
STARTCHAR Gbreve
ENCODING 286
SWIDTH 778 0
DWIDTH 19 0
BBX 17 22 1 0
BITMAP
042000
042000
07E000
03C000
000000
07FA00
1F1E00
3C0E00
780600
700200
F00200
E00000
E00000
E07F80
E00E00
E00E00
F00E00
700E00
780E00
3C0E00
1F3E00
07FC00
ENDCHAR
STARTCHAR gbreve
ENCODING 287
SWIDTH 500 0
DWIDTH 12 0
BBX 10 22 1 -5
BITMAP
2100
2100
3F00
1E00
0000
3E00
77C0
E380
E380
E380
E380
7300
3E00
7000
E000
FF80
FFC0
7FC0
E0C0
C0C0
C180
7F00
ENDCHAR
STARTCHAR Gdotaccent
ENCODING 288
SWIDTH 778 0
DWIDTH 19 0
BBX 17 20 1 0
BITMAP
018000
018000
000000
07FA00
1F1E00
3C0E00
780600
700200
F00200
E00000
E00000
E07F80
E00E00
E00E00
F00E00
700E00
780E00
3C0E00
1F3E00
07FC00
ENDCHAR
STARTCHAR gdotaccent
ENCODING 289
SWIDTH 500 0
DWIDTH 12 0
BBX 10 20 1 -5
BITMAP
0C00
0C00
0000
3E00
77C0
E380
E380
E380
E380
7300
3E00
7000
E000
FF80
FFC0
7FC0
E0C0
C0C0
C180
7F00
ENDCHAR
STARTCHAR Gcommaaccent
ENCODING 290
SWIDTH 778 0
DWIDTH 19 0
BBX 17 27 1 -10
BITMAP
07FA00
1F1E00
3C0E00
780600
700200
F00200
E00000
E00000
E07F80
E00E00
E00E00
F00E00
700E00
780E00
3C0E00
1F3E00
07FC00
000000
00C000
01E000
01E000
00E000
006000
00C000
00C000
018000
010000
ENDCHAR
STARTCHAR gcommaaccent
ENCODING 291
SWIDTH 500 0
DWIDTH 12 0
BBX 10 27 1 -5
BITMAP
0200
0600
0C00
0C00
1800
1C00
1E00
1E00
0C00
0000
3E00
77C0
E380
E380
E380
E380
7300
3E00
7000
E000
FF80
FFC0
7FC0
E0C0
C0C0
C180
7F00
ENDCHAR
STARTCHAR Hcircumflex
ENCODING 292
SWIDTH 778 0
DWIDTH 19 0
BBX 18 22 0 0
BITMAP
00C000
01E000
033000
061800
000000
FF3FC0
380700
380700
380700
380700
380700
380700
3FFF00
3FFF00
380700
380700
380700
380700
380700
380700
380700
FF3FC0
ENDCHAR
STARTCHAR hcircumflex
ENCODING 293
SWIDTH 556 0
DWIDTH 14 0
BBX 13 22 0 0
BITMAP
1800
3C00
6600
C300
0000
F800
3800
3800
3800
3800
39E0
3FF0
3C70
3870
3870
3870
3870
3870
3870
3870
3870
7CF8
ENDCHAR
STARTCHAR Hbar
ENCODING 294
SWIDTH 778 0
DWIDTH 19 0
BBX 18 17 0 0
BITMAP
FF3FC0
380700
380700
380700
FFFFC0
FFFFC0
380700
3FFF00
3FFF00
380700
380700
380700
380700
380700
380700
380700
FF3FC0
ENDCHAR
STARTCHAR hbar
ENCODING 295
SWIDTH 556 0
DWIDTH 14 0
BBX 13 17 0 0
BITMAP
F800
3800
3800
FE00
FE00
39E0
3FF0
3C70
3870
3870
3870
3870
3870
3870
3870
3870
7CF8
ENDCHAR
STARTCHAR Itilde
ENCODING 296
SWIDTH 389 0
DWIDTH 10 0
BBX 8 21 2 0
BITMAP
31
7E
8C
00
FE
38
38
38
38
38
38
38
38
38
38
38
38
38
38
38
FE
ENDCHAR
STARTCHAR itilde
ENCODING 297
SWIDTH 278 0
DWIDTH 7 0
BBX 8 16 0 0
BITMAP
31
7E
8C
00
78
38
38
38
38
38
38
38
38
38
38
7C
ENDCHAR
STARTCHAR Imacron
ENCODING 298
SWIDTH 389 0
DWIDTH 10 0
BBX 7 20 2 0
BITMAP
7E
7E
00
FE
38
38
38
38
38
38
38
38
38
38
38
38
38
38
38
FE
ENDCHAR
STARTCHAR imacron
ENCODING 299
SWIDTH 278 0
DWIDTH 7 0
BBX 6 15 0 0
BITMAP
FC
FC
00
78
38
38
38
38
38
38
38
38
38
38
7C
ENDCHAR
STARTCHAR Ibreve
ENCODING 300
SWIDTH 389 0
DWIDTH 10 0
BBX 7 22 2 0
BITMAP
42
42
7E
3C
00
FE
38
38
38
38
38
38
38
38
38
38
38
38
38
38
38
FE
ENDCHAR
STARTCHAR ibreve
ENCODING 301
SWIDTH 278 0
DWIDTH 7 0
BBX 6 17 0 0
BITMAP
84
84
FC
78
00
78
38
38
38
38
38
38
38
38
38
38
7C
ENDCHAR
STARTCHAR Iogonek
ENCODING 302
SWIDTH 389 0
DWIDTH 10 0
BBX 7 22 2 -5
BITMAP
FE
38
38
38
38
38
38
38
38
38
38
38
38
38
38
38
FE
18
30
30
32
1C
ENDCHAR
STARTCHAR iogonek
ENCODING 303
SWIDTH 278 0
DWIDTH 7 0
BBX 6 22 1 -5
BITMAP
70
70
70
00
00
F0
70
70
70
70
70
70
70
70
70
70
F8
30
60
60
64
38
ENDCHAR
STARTCHAR Idotaccent
ENCODING 304
SWIDTH 389 0
DWIDTH 10 0
BBX 7 20 2 0
BITMAP
18
18
00
FE
38
38
38
38
38
38
38
38
38
38
38
38
38
38
38
FE
ENDCHAR
STARTCHAR dotlessi
ENCODING 305
SWIDTH 278 0
DWIDTH 7 0
BBX 5 12 1 0
BITMAP
F0
70
70
70
70
70
70
70
70
70
70
F8
ENDCHAR
STARTCHAR IJ
ENCODING 306
SWIDTH 870 0
DWIDTH 22 0
BBX 20 19 2 -2
BITMAP
FE1FF0
380380
380380
380380
380380
380380
380380
380380
380380
380380
380380
380380
380380
380380
384380
38E380
FEE300
00E700
007C00
ENDCHAR
STARTCHAR ij
ENCODING 307
SWIDTH 597 0
DWIDTH 15 0
BBX 12 22 1 -5
BITMAP
7070
7070
7070
0000
0000
F0F0
7070
7070
7070
7070
7070
7070
7070
7070
7070
7070
F870
0070
0670
0670
0660
03C0
ENDCHAR
STARTCHAR Jcircumflex
ENCODING 308
SWIDTH 500 0
DWIDTH 12 0
BBX 12 24 0 -2
BITMAP
0300
0780
0CC0
1860
0000
1FF0
0380
0380
0380
0380
0380
0380
0380
0380
0380
0380
0380
0380
0380
4380
E380
E300
E700
7C00
ENDCHAR
STARTCHAR jcircumflex
ENCODING 309
SWIDTH 333 0
DWIDTH 8 0
BBX 9 22 -1 -5
BITMAP
0C00
1E00
3300
6180
0000
1E00
0E00
0E00
0E00
0E00
0E00
0E00
0E00
0E00
0E00
0E00
0E00
0E00
CE00
CE00
CC00
7800
ENDCHAR
STARTCHAR Kcommaaccent
ENCODING 310
SWIDTH 778 0
DWIDTH 19 0
BBX 17 27 1 -10
BITMAP
FE7F00
383800
383000
386000
38C000
398000
3B0000
3F0000
3F8000
3BC000
39E000
38F000
387800
383C00
381E00
380F00
FE1F80
000000
00C000
01E000
01E000
00E000
006000
00C000
00C000
018000
010000
ENDCHAR
STARTCHAR kcommaaccent
ENCODING 311
SWIDTH 556 0
DWIDTH 15 0
BBX 13 27 1 -10
BITMAP
F000
7000
7000
7000
7000
73F0
70C0
7180
7300
7600
7E00
7F00
7780
73C0
71E0
70F0
F9F8
0000
0600
0F00
0F00
0700
0300
0600
0600
0C00
0800
ENDCHAR
STARTCHAR kgreenlandic
ENCODING 312
SWIDTH 556 0
DWIDTH 15 0
BBX 13 12 1 0
BITMAP
73F0
70C0
7180
7300
7600
7E00
7F00
7780
73C0
71E0
70F0
F9F8
ENDCHAR
STARTCHAR Lacute
ENCODING 313
SWIDTH 667 0
DWIDTH 16 0
BBX 14 22 1 0
BITMAP
0700
0E00
0C00
1800
0000
FE00
3800
3800
3800
3800
3800
3800
3800
3800
3800
3800
3800
3804
380C
3818
3838
FFF8
ENDCHAR
STARTCHAR lacute
ENCODING 314
SWIDTH 278 0
DWIDTH 7 0
BBX 6 22 0 0
BITMAP
1C
38
30
60
00
F8
38
38
38
38
38
38
38
38
38
38
38
38
38
38
38
7C
ENDCHAR
STARTCHAR Lcommaaccent
ENCODING 315
SWIDTH 667 0
DWIDTH 16 0
BBX 14 27 1 -10
BITMAP
FE00
3800
3800
3800
3800
3800
3800
3800
3800
3800
3800
3800
3804
380C
3818
3838
FFF8
0000
0300
0780
0780
0380
0180
0300
0300
0600
0400
ENDCHAR
STARTCHAR lcommaaccent
ENCODING 316
SWIDTH 278 0
DWIDTH 7 0
BBX 6 27 0 -10
BITMAP
F8
38
38
38
38
38
38
38
38
38
38
38
38
38
38
38
7C
00
30
78
78
38
18
30
30
60
40
ENDCHAR
STARTCHAR Lcaron
ENCODING 317
SWIDTH 967 0
DWIDTH 23 0
BBX 20 17 1 0
BITMAP
FE0060
3800F0
3800F0
380070
380030
380060
380060
3800C0
380080
380000
380000
380000
380400
380C00
381800
383800
FFF800
ENDCHAR
STARTCHAR lcaron
ENCODING 318
SWIDTH 597 0
DWIDTH 15 0
BBX 13 17 0 0
BITMAP
F830
3878
3878
3838
3818
3830
3830
3860
3840
3800
3800
3800
3800
3800
3800
3800
7C00
ENDCHAR
STARTCHAR Ldot
ENCODING 319
SWIDTH 884 0
DWIDTH 21 0
BBX 18 17 1 0
BITMAP
FE0000
380000
380000
380000
380000
380000
380000
3801C0
3801C0
3801C0
380000
380000
380400
380C00
381800
383800
FFF800
ENDCHAR
STARTCHAR ldot
ENCODING 320
SWIDTH 514 0
DWIDTH 13 0
BBX 11 17 0 0
BITMAP
F800
3800
3800
3800
3800
3800
3800
38E0
38E0
38E0
3800
3800
3800
3800
3800
3800
7C00
ENDCHAR
STARTCHAR Lslash
ENCODING 321
SWIDTH 667 0
DWIDTH 16 0
BBX 15 17 1 0
BITMAP
FF00
3C00
3C00
3C00
3C80
3D80
3F00
3E00
7C00
FC00
BC00
3C00
3C02
3C06
3C0C
3C1C
FFFC
ENDCHAR
STARTCHAR lslash
ENCODING 322
SWIDTH 278 0
DWIDTH 7 0
BBX 7 17 0 0
BITMAP
78
38
38
38
3A
3E
3C
38
78
F8
B8
38
38
38
38
38
7C
ENDCHAR
STARTCHAR Nacute
ENCODING 323
SWIDTH 722 0
DWIDTH 18 0
BBX 17 22 0 0
BITMAP
00E000
01C000
018000
030000
000000
F00F80
780700
3C0200
3E0200
3F0200
2F8200
27C200
23E200
21F200
20FA00
207A00
203E00
201E00
200E00
200600
700600
F80200
ENDCHAR
STARTCHAR nacute
ENCODING 324
SWIDTH 556 0
DWIDTH 14 0
BBX 12 17 1 0
BITMAP
0380
0700
0600
0C00
0000
F3C0
77E0
78E0
70E0
70E0
70E0
70E0
70E0
70E0
70E0
70E0
F9F0
ENDCHAR
STARTCHAR Ncommaaccent
ENCODING 325
SWIDTH 722 0
DWIDTH 18 0
BBX 17 27 0 -10
BITMAP
F00F80
780700
3C0200
3E0200
3F0200
2F8200
27C200
23E200
21F200
20FA00
207A00
203E00
201E00
200E00
200600
700600
F80200
000000
018000
03C000
03C000
01C000
00C000
018000
018000
030000
020000
ENDCHAR
STARTCHAR ncommaaccent
ENCODING 326
SWIDTH 556 0
DWIDTH 14 0
BBX 12 22 1 -10
BITMAP
F3C0
77E0
78E0
70E0
70E0
70E0
70E0
70E0
70E0
70E0
70E0
F9F0
0000
0600
0F00
0F00
0700
0300
0600
0600
0C00
0800
ENDCHAR
STARTCHAR Ncaron
ENCODING 327
SWIDTH 722 0
DWIDTH 18 0
BBX 17 22 0 0
BITMAP
0C3000
066000
03C000
018000
000000
F00F80
780700
3C0200
3E0200
3F0200
2F8200
27C200
23E200
21F200
20FA00
207A00
203E00
201E00
200E00
200600
700600
F80200
ENDCHAR
STARTCHAR ncaron
ENCODING 328
SWIDTH 556 0
DWIDTH 14 0
BBX 12 17 1 0
BITMAP
30C0
1980
0F00
0600
0000
F3C0
77E0
78E0
70E0
70E0
70E0
70E0
70E0
70E0
70E0
70E0
F9F0
ENDCHAR
STARTCHAR napostrophe
ENCODING 329
SWIDTH 872 0
DWIDTH 22 0
BBX 19 17 2 0
BITMAP
600000
F00000
F00000
700000
300000
61E780
60EFC0
C0F1C0
80E1C0
00E1C0
00E1C0
00E1C0
00E1C0
00E1C0
00E1C0
00E1C0
01F3E0
ENDCHAR
STARTCHAR Eng
ENCODING 330
SWIDTH 722 0
DWIDTH 18 0
BBX 17 22 0 -5
BITMAP
F00F80
780700
3C0200
3E0200
3F0200
2F8200
27C200
23E200
21F200
20FA00
207A00
203E00
201E00
200E00
200E00
700E00
F80E00
000E00
00CE00
00CE00
00CC00
007800
ENDCHAR
STARTCHAR eng
ENCODING 331
SWIDTH 556 0
DWIDTH 14 0
BBX 11 17 1 -5
BITMAP
F3C0
77E0
78E0
70E0
70E0
70E0
70E0
70E0
70E0
70E0
70E0
F8E0
00E0
0CE0
0CE0
0CC0
0780
ENDCHAR
STARTCHAR Omacron
ENCODING 332
SWIDTH 778 0
DWIDTH 19 0
BBX 16 20 1 0
BITMAP
07E0
07E0
0000
07E0
1E78
381C
781E
700E
F00F
E007
E007
E007
E007
E007
F00F
700E
781E
381C
1E78
07E0
ENDCHAR
STARTCHAR omacron
ENCODING 333
SWIDTH 500 0
DWIDTH 13 0
BBX 11 15 1 0
BITMAP
1F80
1F80
0000
1F00
7BC0
71C0
E0E0
E0E0
E0E0
E0E0
E0E0
E0E0
71C0
7BC0
1F00
ENDCHAR
STARTCHAR Obreve
ENCODING 334
SWIDTH 778 0
DWIDTH 19 0
BBX 16 22 1 0
BITMAP
0420
0420
07E0
03C0
0000
07E0
1E78
381C
781E
700E
F00F
E007
E007
E007
E007
E007
F00F
700E
781E
381C
1E78
07E0
ENDCHAR
STARTCHAR obreve
ENCODING 335
SWIDTH 500 0
DWIDTH 13 0
BBX 11 17 1 0
BITMAP
1080
1080
1F80
0F00
0000
1F00
7BC0
71C0
E0E0
E0E0
E0E0
E0E0
E0E0
E0E0
71C0
7BC0
1F00
ENDCHAR
STARTCHAR Ohungarumlaut
ENCODING 336
SWIDTH 778 0
DWIDTH 19 0
BBX 16 23 1 0
BITMAP
0330
0330
0660
0660
0440
0000
07E0
1E78
381C
781E
700E
F00F
E007
E007
E007
E007
E007
F00F
700E
781E
381C
1E78
07E0
ENDCHAR
STARTCHAR ohungarumlaut
ENCODING 337
SWIDTH 500 0
DWIDTH 13 0
BBX 11 18 1 0
BITMAP
1980
1980
3300
3300
2200
0000
1F00
7BC0
71C0
E0E0
E0E0
E0E0
E0E0
E0E0
E0E0
71C0
7BC0
1F00
ENDCHAR
STARTCHAR OE
ENCODING 338
SWIDTH 1000 0
DWIDTH 25 0
BBX 23 17 0 0
BITMAP
07FFFC
1E3C1C
383C0C
383C04
783C24
703C20
F03C60
F03CE0
F03FE0
F03CE0
F03C60
F03C20
703C22
783C06
383C0C
1C3C1C
07FFFC
ENDCHAR
STARTCHAR oe
ENCODING 339
SWIDTH 722 0
DWIDTH 17 0
BBX 15 12 1 0
BITMAP
1E78
73CC
73CE
E18E
E18E
E1FE
E180
E180
E1C0
73E2
73FC
1E78
ENDCHAR
STARTCHAR Racute
ENCODING 340
SWIDTH 722 0
DWIDTH 18 0
BBX 16 22 1 0
BITMAP
00E0
01C0
0180
0300
0000
FFF0
1C38
1C1C
1C1C
1C1C
1C1C
1C38
1C70
1FC0
1DE0
1CF0
1C70
1C78
1C3C
1C1C
1C1E
FF0F
ENDCHAR
STARTCHAR racute
ENCODING 341
SWIDTH 444 0
DWIDTH 11 0
BBX 10 17 1 0
BITMAP
0700
0E00
0C00
1800
0000
F780
79C0
73C0
7180
7000
7000
7000
7000
7000
7000
7000
FC00
ENDCHAR
STARTCHAR Rcommaaccent
ENCODING 342
SWIDTH 722 0
DWIDTH 18 0
BBX 16 27 1 -10
BITMAP
FFF0
1C38
1C1C
1C1C
1C1C
1C1C
1C38
1C70
1FC0
1DE0
1CF0
1C70
1C78
1C3C
1C1C
1C1E
FF0F
0000
0180
03C0
03C0
01C0
00C0
0180
0180
0300
0200
ENDCHAR
STARTCHAR rcommaaccent
ENCODING 343
SWIDTH 444 0
DWIDTH 11 0
BBX 10 22 1 -10
BITMAP
F780
79C0
73C0
7180
7000
7000
7000
7000
7000
7000
7000
FC00
0000
3000
7800
7800
3800
1800
3000
3000
6000
4000
ENDCHAR
STARTCHAR Rcaron
ENCODING 344
SWIDTH 722 0
DWIDTH 18 0
BBX 16 22 1 0
BITMAP
0C30
0660
03C0
0180
0000
FFF0
1C38
1C1C
1C1C
1C1C
1C1C
1C38
1C70
1FC0
1DE0
1CF0
1C70
1C78
1C3C
1C1C
1C1E
FF0F
ENDCHAR
STARTCHAR rcaron
ENCODING 345
SWIDTH 444 0
DWIDTH 11 0
BBX 10 17 1 0
BITMAP
6180
3300
1E00
0C00
0000
F780
79C0
73C0
7180
7000
7000
7000
7000
7000
7000
7000
FC00
ENDCHAR
STARTCHAR Sacute
ENCODING 346
SWIDTH 556 0
DWIDTH 14 0
BBX 11 22 2 0
BITMAP
0700
0E00
0C00
1800
0000
3F40
71C0
E0C0
E040
E040
F000
FC00
7F00
1FC0
0FC0
03E0
81E0
80E0
C0E0
E0C0
F1C0
BF80
ENDCHAR
STARTCHAR sacute
ENCODING 347
SWIDTH 389 0
DWIDTH 10 0
BBX 8 17 1 0
BITMAP
0E
1C
18
30
00
3E
66
E2
E2
F8
7C
3E
1F
87
87
C6
FC
ENDCHAR
STARTCHAR Scircumflex
ENCODING 348
SWIDTH 556 0
DWIDTH 14 0
BBX 11 22 2 0
BITMAP
0C00
1E00
3300
6180
0000
3F40
71C0
E0C0
E040
E040
F000
FC00
7F00
1FC0
0FC0
03E0
81E0
80E0
C0E0
E0C0
F1C0
BF80
ENDCHAR
STARTCHAR scircumflex
ENCODING 349
SWIDTH 389 0
DWIDTH 10 0
BBX 8 17 1 0
BITMAP
18
3C
66
C3
00
3E
66
E2
E2
F8
7C
3E
1F
87
87
C6
FC
ENDCHAR
STARTCHAR Scedilla
ENCODING 350
SWIDTH 556 0
DWIDTH 14 0
BBX 11 23 2 -6
BITMAP
3F40
71C0
E0C0
E040
E040
F000
FC00
7F00
1FC0
0FC0
03E0
81E0
80E0
C0E0
E0C0
F1C0
BF80
0400
0C00
0E00
0300
2300
1E00
ENDCHAR
STARTCHAR scedilla
ENCODING 351
SWIDTH 389 0
DWIDTH 10 0
BBX 8 18 1 -6
BITMAP
3E
66
E2
E2
F8
7C
3E
1F
87
87
C6
FC
08
18
1C
06
46
3C
ENDCHAR
STARTCHAR Scaron
ENCODING 352
SWIDTH 556 0
DWIDTH 14 0
BBX 11 22 2 0
BITMAP
6180
3300
1E00
0C00
0000
3F40
71C0
E0C0
E040
E040
F000
FC00
7F00
1FC0
0FC0
03E0
81E0
80E0
C0E0
E0C0
F1C0
BF80
ENDCHAR
STARTCHAR scaron
ENCODING 353
SWIDTH 389 0
DWIDTH 10 0
BBX 8 17 1 0
BITMAP
C3
66
3C
18
00
3E
66
E2
E2
F8
7C
3E
1F
87
87
C6
FC
ENDCHAR
STARTCHAR Tcommaaccent
ENCODING 354
SWIDTH 667 0
DWIDTH 16 0
BBX 15 23 0 -6
BITMAP
FFFE
E38E
C386
8382
8382
0380
0380
0380
0380
0380
0380
0380
0380
0380
0380
0380
1FF0
0100
0300
0380
00C0
08C0
0780
ENDCHAR
STARTCHAR tcommaaccent
ENCODING 355
SWIDTH 333 0
DWIDTH 8 0
BBX 8 22 0 -6
BITMAP
08
18
38
78
FF
38
38
38
38
38
38
38
38
39
3E
1C
08
18
1C
06
46
3C
ENDCHAR
STARTCHAR Tcaron
ENCODING 356
SWIDTH 667 0
DWIDTH 16 0
BBX 15 22 0 0
BITMAP
0C30
0660
03C0
0180
0000
FFFE
E38E
C386
8382
8382
0380
0380
0380
0380
0380
0380
0380
0380
0380
0380
0380
1FF0
ENDCHAR
STARTCHAR tcaron
ENCODING 357
SWIDTH 649 0
DWIDTH 16 0
BBX 14 17 0 0
BITMAP
0018
083C
183C
381C
780C
FF18
3818
3830
3820
3800
3800
3800
3800
3800
3900
3E00
1C00
ENDCHAR
STARTCHAR Tbar
ENCODING 358
SWIDTH 667 0
DWIDTH 16 0
BBX 15 17 0 0
BITMAP
FFFE
E38E
C386
8382
8382
0380
0380
0FE0
0FE0
0380
0380
0380
0380
0380
0380
0380
1FF0
ENDCHAR
STARTCHAR tbar
ENCODING 359
SWIDTH 333 0
DWIDTH 8 0
BBX 8 16 0 0
BITMAP
08
18
38
78
FF
38
38
38
38
7F
7F
38
38
39
3E
1C
ENDCHAR
STARTCHAR Utilde
ENCODING 360
SWIDTH 722 0
DWIDTH 18 0
BBX 17 21 1 0
BITMAP
031000
07E000
08C000
000000
FF0F80
380200
380200
380200
380200
380200
380200
380200
380200
380200
380200
380200
380200
380600
1C0400
1E0C00
0FF800
ENDCHAR
STARTCHAR utilde
ENCODING 361
SWIDTH 556 0
DWIDTH 14 0
BBX 12 16 1 0
BITMAP
0C40
1F80
2300
0000
F1E0
70E0
70E0
70E0
70E0
70E0
70E0
70E0
70E0
71E0
7EF0
3CE0
ENDCHAR
STARTCHAR Umacron
ENCODING 362
SWIDTH 722 0
DWIDTH 18 0
BBX 17 20 1 0
BITMAP
07E000
07E000
000000
FF0F80
380200
380200
380200
380200
380200
380200
380200
380200
380200
380200
380200
380200
380600
1C0400
1E0C00
0FF800
ENDCHAR
STARTCHAR umacron
ENCODING 363
SWIDTH 556 0
DWIDTH 14 0
BBX 12 15 1 0
BITMAP
1F80
1F80
0000
F1E0
70E0
70E0
70E0
70E0
70E0
70E0
70E0
70E0
71E0
7EF0
3CE0
ENDCHAR
STARTCHAR Ubreve
ENCODING 364
SWIDTH 722 0
DWIDTH 18 0
BBX 17 22 1 0
BITMAP
042000
042000
07E000
03C000
000000
FF0F80
380200
380200
380200
380200
380200
380200
380200
380200
380200
380200
380200
380200
380600
1C0400
1E0C00
0FF800
ENDCHAR
STARTCHAR ubreve
ENCODING 365
SWIDTH 556 0
DWIDTH 14 0
BBX 12 17 1 0
BITMAP
1080
1080
1F80
0F00
0000
F1E0
70E0
70E0
70E0
70E0
70E0
70E0
70E0
70E0
71E0
7EF0
3CE0
ENDCHAR
STARTCHAR Uring
ENCODING 366
SWIDTH 722 0
DWIDTH 18 0
BBX 17 22 1 0
BITMAP
038000
044000
044000
038000
000000
FF0F80
380200
380200
380200
380200
380200
380200
380200
380200
380200
380200
380200
380200
380600
1C0400
1E0C00
0FF800
ENDCHAR
STARTCHAR uring
ENCODING 367
SWIDTH 556 0
DWIDTH 14 0
BBX 12 17 1 0
BITMAP
0E00
1100
1100
0E00
0000
F1E0
70E0
70E0
70E0
70E0
70E0
70E0
70E0
70E0
71E0
7EF0
3CE0
ENDCHAR
STARTCHAR Uhungarumlaut
ENCODING 368
SWIDTH 722 0
DWIDTH 18 0
BBX 17 23 1 0
BITMAP
066000
066000
0CC000
0CC000
088000
000000
FF0F80
380200
380200
380200
380200
380200
380200
380200
380200
380200
380200
380200
380200
380600
1C0400
1E0C00
0FF800
ENDCHAR
STARTCHAR uhungarumlaut
ENCODING 369
SWIDTH 556 0
DWIDTH 14 0
BBX 12 18 1 0
BITMAP
0CC0
0CC0
1980
1980
1100
0000
F1E0
70E0
70E0
70E0
70E0
70E0
70E0
70E0
70E0
71E0
7EF0
3CE0
ENDCHAR
STARTCHAR Uogonek
ENCODING 370
SWIDTH 722 0
DWIDTH 18 0
BBX 17 22 1 -5
BITMAP
FF0F80
380200
380200
380200
380200
380200
380200
380200
380200
380200
380200
380200
380200
380600
1C0400
1E0C00
0FF800
018000
030000
030000
032000
01C000
ENDCHAR
STARTCHAR uogonek
ENCODING 371
SWIDTH 556 0
DWIDTH 14 0
BBX 12 17 1 -5
BITMAP
F1E0
70E0
70E0
70E0
70E0
70E0
70E0
70E0
70E0
71E0
7EF0
3CE0
0600
0C00
0C00
0C80
0700
ENDCHAR
STARTCHAR Wcircumflex
ENCODING 372
SWIDTH 1000 0
DWIDTH 25 0
BBX 25 22 1 0
BITMAP
00180000
003C0000
00660000
00C30000
00000000
FF7F9F80
3C1E0600
3C0E0400
1C0E0C00
1E1E0800
1E1F1800
0E171800
0E371000
0F271000
0763B000
0743A000
07C3E000
03C1E000
0381C000
0381C000
01008000
01008000
ENDCHAR
STARTCHAR wcircumflex
ENCODING 373
SWIDTH 722 0
DWIDTH 18 0
BBX 17 17 0 0
BITMAP
018000
03C000
066000
0C3000
000000
FDF780
78E300
38E300
38E200
38E600
1CF600
1D7400
1F3C00
0F3C00
0E3800
061800
061800
ENDCHAR
STARTCHAR Ycircumflex
ENCODING 374
SWIDTH 722 0
DWIDTH 18 0
BBX 17 22 1 0
BITMAP
018000
03C000
066000
0C3000
000000
FF3F80
3C0F00
3C0C00
1E0C00
0E1800
0F1800
073000
03A000
03E000
01C000
01C000
01C000
01C000
01C000
01C000
01C000
07F000
ENDCHAR
STARTCHAR ycircumflex
ENCODING 375
SWIDTH 500 0
DWIDTH 12 0
BBX 12 22 0 -5
BITMAP
0600
0F00
1980
30C0
0000
FDF0
7860
3840
38C0
3C80
1C80
1D80
1F00
0F00
0F00
0600
0600
0600
6400
EC00
F800
7000
ENDCHAR
STARTCHAR Ydieresis
ENCODING 376
SWIDTH 722 0
DWIDTH 18 0
BBX 17 21 1 0
BITMAP
033000
033000
000000
000000
FF3F80
3C0F00
3C0C00
1E0C00
0E1800
0F1800
073000
03A000
03E000
01C000
01C000
01C000
01C000
01C000
01C000
01C000
07F000
ENDCHAR
STARTCHAR Zacute
ENCODING 377
SWIDTH 667 0
DWIDTH 17 0
BBX 14 22 2 0
BITMAP
01C0
0380
0300
0600
0000
FFF8
E078
C0F0
C0F0
81E0
03C0
03C0
0780
0F80
0F00
1E00
3E04
3C04
780C
781C
F038
FFF8
ENDCHAR
STARTCHAR zacute
ENCODING 378
SWIDTH 444 0
DWIDTH 11 0
BBX 9 17 1 0
BITMAP
0700
0E00
0C00
1800
0000
FF80
C700
8F00
8E00
1E00
1C00
3C00
3800
7880
7180
F180
FF80
ENDCHAR
STARTCHAR Zdotaccent
ENCODING 379
SWIDTH 667 0
DWIDTH 17 0
BBX 14 20 2 0
BITMAP
0300
0300
0000
FFF8
E078
C0F0
C0F0
81E0
03C0
03C0
0780
0F80
0F00
1E00
3E04
3C04
780C
781C
F038
FFF8
ENDCHAR
STARTCHAR zdotaccent
ENCODING 380
SWIDTH 444 0
DWIDTH 11 0
BBX 9 15 1 0
BITMAP
0C00
0C00
0000
FF80
C700
8F00
8E00
1E00
1C00
3C00
3800
7880
7180
F180
FF80
ENDCHAR
STARTCHAR Zcaron
ENCODING 381
SWIDTH 667 0
DWIDTH 17 0
BBX 14 22 2 0
BITMAP
1860
0CC0
0780
0300
0000
FFF8
E078
C0F0
C0F0
81E0
03C0
03C0
0780
0F80
0F00
1E00
3E04
3C04
780C
781C
F038
FFF8
ENDCHAR
STARTCHAR zcaron
ENCODING 382
SWIDTH 444 0
DWIDTH 11 0
BBX 9 17 1 0
BITMAP
C300
6600
3C00
1800
0000
FF80
C700
8F00
8E00
1E00
1C00
3C00
3800
7880
7180
F180
FF80
ENDCHAR
STARTCHAR uni0186
ENCODING 390
SWIDTH 722 0
DWIDTH 18 0
BBX 14 17 2 0
BITMAP
1FC0
79F0
E078
8078
003C
003C
001C
001C
001C
001C
001C
803C
8038
C078
E0F0
F9E0
9F80
ENDCHAR
STARTCHAR uni0189
ENCODING 393
SWIDTH 722 0
DWIDTH 18 0
BBX 16 17 1 0
BITMAP
FFF0
3C38
381C
380E
380E
3807
3807
FF87
FF87
3807
3807
380E
380E
381C
381C
3C78
FFE0
ENDCHAR
STARTCHAR uni018E
ENCODING 398
SWIDTH 667 0
DWIDTH 17 0
BBX 15 17 1 0
BITMAP
7FFE
70F0
6070
C070
8870
0870
0C70
0E70
0FF0
0E70
0C70
0870
4870
4070
6070
70F0
7FFE
ENDCHAR
STARTCHAR florin
ENCODING 402
SWIDTH 500 0
DWIDTH 13 0
BBX 12 22 0 -4
BITMAP
01E0
03B0
0330
0700
0700
0700
0700
3FE0
3FE0
0700
0700
0700
0700
0E00
0E00
0E00
0E00
0E00
0E00
CC00
DC00
7800
ENDCHAR
STARTCHAR uni0197
ENCODING 407
SWIDTH 389 0
DWIDTH 10 0
BBX 7 17 2 0
BITMAP
FE
38
38
38
38
38
38
FE
FE
38
38
38
38
38
38
38
FE
ENDCHAR
STARTCHAR uni019A
ENCODING 410
SWIDTH 278 0
DWIDTH 7 0
BBX 7 17 0 0
BITMAP
F8
38
38
38
38
38
38
FE
FE
38
38
38
38
38
38
38
7C
ENDCHAR
STARTCHAR uni019D
ENCODING 413
SWIDTH 722 0
DWIDTH 18 0
BBX 19 22 -2 -5
BITMAP
3C03E0
1E01C0
0F0080
0F8080
0FC080
0BE080
09F080
08F880
087C80
083E80
081E80
080F80
0E0780
0E0380
0E0180
0E0180
0E0080
0E0000
CE0000
CE0000
CC0000
780000
ENDCHAR
STARTCHAR uni019F
ENCODING 415
SWIDTH 778 0
DWIDTH 19 0
BBX 16 17 1 0
BITMAP
07E0
1E78
381C
781E
700E
F00F
E007
FFFF
FFFF
E007
E007
F00F
700E
781E
381C
1E78
07E0
ENDCHAR
STARTCHAR Ohorn
ENCODING 416
SWIDTH 778 0
DWIDTH 19 0
BBX 19 17 1 0
BITMAP
07E0C0
1E79E0
381DE0
781EE0
700E60
F00FC0
E007C0
E00780
E00700
E00700
E00700
F00F00
700E00
781E00
381C00
1E7800
07E000
ENDCHAR
STARTCHAR ohorn
ENCODING 417
SWIDTH 500 0
DWIDTH 13 0
BBX 14 12 1 0
BITMAP
1F18
7BFC
71FC
E0FC
E0EC
E0F8
E0F8
E0F0
E0E0
71C0
7BC0
1F00
ENDCHAR
STARTCHAR uni01A7
ENCODING 423
SWIDTH 556 0
DWIDTH 14 0
BBX 11 17 2 0
BITMAP
5F80
71C0
60E0
40E0
40E0
01E0
07E0
1FC0
7F00
7E00
F800
F020
E020
E060
60E0
71E0
3FA0
ENDCHAR
STARTCHAR uni01A8
ENCODING 424
SWIDTH 389 0
DWIDTH 10 0
BBX 8 12 1 0
BITMAP
7C
66
47
47
1F
3E
7C
F8
E1
E1
63
3F
ENDCHAR
STARTCHAR uni01AE
ENCODING 430
SWIDTH 667 0
DWIDTH 16 0
BBX 15 22 0 -5
BITMAP
FFFE
E38E
C386
8382
8382
0380
0380
0380
0380
0380
0380
0380
0380
0380
0380
0380
0380
0380
0398
0398
0198
00F0
ENDCHAR
STARTCHAR Uhorn
ENCODING 431
SWIDTH 722 0
DWIDTH 18 0
BBX 19 17 1 0
BITMAP
FF0FC0
3803E0
3803E0
3802E0
380260
3802C0
3802C0
380380
380300
380200
380200
380200
380200
380600
1C0400
1E0C00
0FF800
ENDCHAR
STARTCHAR uhorn
ENCODING 432
SWIDTH 556 0
DWIDTH 14 0
BBX 15 12 1 0
BITMAP
F1EC
70FE
70FE
70EE
70E6
70EC
70EC
70F8
70F0
71E0
7EF0
3CE0
ENDCHAR
STARTCHAR uni01B5
ENCODING 437
SWIDTH 667 0
DWIDTH 17 0
BBX 14 17 2 0
BITMAP
FFF8
E078
C0F0
C0F0
81E0
03C0
03C0
0FE0
0FE0
0F00
1E00
3E04
3C04
780C
781C
F038
FFF8
ENDCHAR
STARTCHAR uni01B6
ENCODING 438
SWIDTH 444 0
DWIDTH 11 0
BBX 9 12 1 0
BITMAP
FF80
C700
8F00
8E00
1E00
7F00
7F00
3800
7880
7180
F180
FF80
ENDCHAR
STARTCHAR uni01BB
ENCODING 443
SWIDTH 500 0
DWIDTH 12 0
BBX 10 17 1 0
BITMAP
1E00
3F00
7F80
C780
8380
0380
0380
FFC0
FFC0
0600
0C00
0C00
1840
3040
7FC0
FFC0
FF80
ENDCHAR
STARTCHAR uni01BC
ENCODING 444
SWIDTH 500 0
DWIDTH 12 0
BBX 11 17 0 0
BITMAP
1FE0
1FC0
3FC0
3000
2000
6000
7F00
7F80
7FC0
07C0
01C0
00C0
00C0
60C0
F180
FB80
7E00
ENDCHAR
STARTCHAR uni01C0
ENCODING 448
SWIDTH 220 0
DWIDTH 6 0
BBX 2 22 2 -5
BITMAP
C0
C0
C0
C0
C0
C0
C0
C0
C0
C0
C0
C0
C0
C0
C0
C0
C0
C0
C0
C0
C0
C0
ENDCHAR
STARTCHAR uni01C2
ENCODING 450
SWIDTH 570 0
DWIDTH 14 0
BBX 11 22 1 -5
BITMAP
0600
0600
0600
0600
0600
0600
0600
0600
FFE0
FFE0
0600
0600
FFE0
FFE0
0600
0600
0600
0600
0600
0600
0600
0600
ENDCHAR
STARTCHAR uni01C3
ENCODING 451
SWIDTH 333 0
DWIDTH 8 0
BBX 4 17 2 0
BITMAP
60
F0
F0
F0
F0
F0
60
60
60
60
60
00
00
60
F0
F0
60
ENDCHAR
STARTCHAR uni01CD
ENCODING 461
SWIDTH 722 0
DWIDTH 18 0
BBX 17 22 0 0
BITMAP
0C3000
066000
03C000
018000
000000
018000
01C000
03C000
03E000
02E000
06E000
067000
047000
0C7000
083800
083800
1FF800
103C00
301C00
301E00
701E00
F87F80
ENDCHAR
STARTCHAR uni01CE
ENCODING 462
SWIDTH 500 0
DWIDTH 12 0
BBX 10 17 1 0
BITMAP
6180
3300
1E00
0C00
0000
3E00
6700
E380
E380
4380
0F80
7380
E380
E380
E780
FFC0
7180
ENDCHAR
STARTCHAR uni01CF
ENCODING 463
SWIDTH 389 0
DWIDTH 10 0
BBX 8 22 2 0
BITMAP
C3
66
3C
18
00
FE
38
38
38
38
38
38
38
38
38
38
38
38
38
38
38
FE
ENDCHAR
STARTCHAR uni01D0
ENCODING 464
SWIDTH 278 0
DWIDTH 7 0
BBX 8 17 -1 0
BITMAP
C3
66
3C
18
00
3C
1C
1C
1C
1C
1C
1C
1C
1C
1C
1C
3E
ENDCHAR
STARTCHAR uni01D1
ENCODING 465
SWIDTH 778 0
DWIDTH 19 0
BBX 16 22 1 0
BITMAP
0C30
0660
03C0
0180
0000
07E0
1E78
381C
781E
700E
F00F
E007
E007
E007
E007
E007
F00F
700E
781E
381C
1E78
07E0
ENDCHAR
STARTCHAR uni01D2
ENCODING 466
SWIDTH 500 0
DWIDTH 13 0
BBX 11 17 1 0
BITMAP
30C0
1980
0F00
0600
0000
1F00
7BC0
71C0
E0E0
E0E0
E0E0
E0E0
E0E0
E0E0
71C0
7BC0
1F00
ENDCHAR
STARTCHAR uni01D3
ENCODING 467
SWIDTH 722 0
DWIDTH 18 0
BBX 17 22 1 0
BITMAP
0C3000
066000
03C000
018000
000000
FF0F80
380200
380200
380200
380200
380200
380200
380200
380200
380200
380200
380200
380200
380600
1C0400
1E0C00
0FF800
ENDCHAR
STARTCHAR uni01D4
ENCODING 468
SWIDTH 556 0
DWIDTH 14 0
BBX 12 17 1 0
BITMAP
30C0
1980
0F00
0600
0000
F1E0
70E0
70E0
70E0
70E0
70E0
70E0
70E0
70E0
71E0
7EF0
3CE0
ENDCHAR
STARTCHAR uni01D5
ENCODING 469
SWIDTH 722 0
DWIDTH 18 0
BBX 17 24 1 0
BITMAP
07E000
07E000
000000
031800
031800
000000
000000
FF0F80
380200
380200
380200
380200
380200
380200
380200
380200
380200
380200
380200
380200
380600
1C0400
1E0C00
0FF800
ENDCHAR
STARTCHAR uni01D6
ENCODING 470
SWIDTH 556 0
DWIDTH 14 0
BBX 12 19 1 0
BITMAP
1F80
1F80
0000
1980
1980
0000
0000
F1E0
70E0
70E0
70E0
70E0
70E0
70E0
70E0
70E0
71E0
7EF0
3CE0
ENDCHAR
STARTCHAR uni01D7
ENCODING 471
SWIDTH 722 0
DWIDTH 18 0
BBX 17 26 1 0
BITMAP
00E000
01C000
018000
030000
000000
031800
031800
000000
000000
FF0F80
380200
380200
380200
380200
380200
380200
380200
380200
380200
380200
380200
380200
380600
1C0400
1E0C00
0FF800
ENDCHAR
STARTCHAR uni01D8
ENCODING 472
SWIDTH 556 0
DWIDTH 14 0
BBX 12 21 1 0
BITMAP
0380
0700
0600
0C00
0000
1980
1980
0000
0000
F1E0
70E0
70E0
70E0
70E0
70E0
70E0
70E0
70E0
71E0
7EF0
3CE0
ENDCHAR
STARTCHAR uni01D9
ENCODING 473
SWIDTH 722 0
DWIDTH 18 0
BBX 17 26 1 0
BITMAP
0C3000
066000
03C000
018000
000000
031800
031800
000000
000000
FF0F80
380200
380200
380200
380200
380200
380200
380200
380200
380200
380200
380200
380200
380600
1C0400
1E0C00
0FF800
ENDCHAR
STARTCHAR uni01DA
ENCODING 474
SWIDTH 556 0
DWIDTH 14 0
BBX 12 21 1 0
BITMAP
30C0
1980
0F00
0600
0000
1980
1980
0000
0000
F1E0
70E0
70E0
70E0
70E0
70E0
70E0
70E0
70E0
71E0
7EF0
3CE0
ENDCHAR
STARTCHAR uni01DB
ENCODING 475
SWIDTH 722 0
DWIDTH 18 0
BBX 17 26 1 0
BITMAP
070000
038000
018000
00C000
000000
031800
031800
000000
000000
FF0F80
380200
380200
380200
380200
380200
380200
380200
380200
380200
380200
380200
380200
380600
1C0400
1E0C00
0FF800
ENDCHAR
STARTCHAR uni01DC
ENCODING 476
SWIDTH 556 0
DWIDTH 14 0
BBX 12 21 1 0
BITMAP
1C00
0E00
0600
0300
0000
1980
1980
0000
0000
F1E0
70E0
70E0
70E0
70E0
70E0
70E0
70E0
70E0
71E0
7EF0
3CE0
ENDCHAR
STARTCHAR uni01DD
ENCODING 477
SWIDTH 444 0
DWIDTH 11 0
BBX 10 12 1 0
BITMAP
1E00
3F80
4780
03C0
01C0
01C0
FFC0
E1C0
E1C0
7180
7380
3E00
ENDCHAR
STARTCHAR uni01DE
ENCODING 478
SWIDTH 722 0
DWIDTH 18 0
BBX 17 23 0 0
BITMAP
07E000
07E000
000000
063000
063000
000000
018000
01C000
03C000
03E000
02E000
06E000
067000
047000
0C7000
083800
083800
1FF800
103C00
301C00
301E00
701E00
F87F80
ENDCHAR
STARTCHAR uni01DF
ENCODING 479
SWIDTH 500 0
DWIDTH 12 0
BBX 10 19 1 0
BITMAP
3F00
3F00
0000
3300
3300
0000
0000
3E00
7700
E380
E380
4380
0F80
7380
E380
E380
E780
FFC0
7180
ENDCHAR
STARTCHAR uni01E0
ENCODING 480
SWIDTH 722 0
DWIDTH 18 0
BBX 17 23 0 0
BITMAP
07E000
07E000
000000
018000
018000
000000
018000
01C000
03C000
03E000
02E000
06E000
067000
047000
0C7000
083800
083800
1FF800
103C00
301C00
301E00
701E00
F87F80
ENDCHAR
STARTCHAR uni01E1
ENCODING 481
SWIDTH 500 0
DWIDTH 12 0
BBX 10 18 1 0
BITMAP
3F00
3F00
0000
0C00
0C00
0000
3E00
6700
E380
E380
4380
0F80
7380
E380
E380
E780
FFC0
7180
ENDCHAR
STARTCHAR uni01E2
ENCODING 482
SWIDTH 1000 0
DWIDTH 25 0
BBX 23 20 0 0
BITMAP
003F00
003F00
000000
01FFFC
007C1C
00DC0C
009C04
019C24
011C20
031C60
021CE0
061FE0
07FCE0
0C1C60
081C20
181C22
101C06
301C0E
701C1E
F8FFFE
ENDCHAR
STARTCHAR uni01E3
ENCODING 483
SWIDTH 722 0
DWIDTH 17 0
BBX 15 15 1 0
BITMAP
07E0
07E0
0000
3E78
77CC
E3CE
638E
038E
1FFE
7380
E380
E3C0
E7E2
FEFC
7C78
ENDCHAR
STARTCHAR uni01E4
ENCODING 484
SWIDTH 778 0
DWIDTH 19 0
BBX 18 17 1 0
BITMAP
07FA00
1F1E00
3C0E00
780600
700200
F00200
E00000
E00000
E07F80
E00E00
E00E00
F00E00
701FC0
781FC0
3C0E00
1F3E00
07FC00
ENDCHAR
STARTCHAR uni01E5
ENCODING 485
SWIDTH 500 0
DWIDTH 12 0
BBX 10 17 1 -5
BITMAP
3E00
77C0
E380
E380
E380
E380
7300
3E00
7000
E000
FF80
FFC0
FFC0
FFC0
C0C0
C180
7F00
ENDCHAR
STARTCHAR Gcaron
ENCODING 486
SWIDTH 778 0
DWIDTH 19 0
BBX 17 22 1 0
BITMAP
0C3000
066000
03C000
018000
000000
07FA00
1F1E00
3C0E00
780600
700200
F00200
E00000
E00000
E07F80
E00E00
E00E00
F00E00
700E00
780E00
3C0E00
1F3E00
07FC00
ENDCHAR
STARTCHAR gcaron
ENCODING 487
SWIDTH 500 0
DWIDTH 12 0
BBX 10 22 1 -5
BITMAP
6180
3300
1E00
0C00
0000
3E00
77C0
E380
E380
E380
E380
7300
3E00
7000
E000
FF80
FFC0
7FC0
E0C0
C0C0
C180
7F00
ENDCHAR
STARTCHAR uni01E8
ENCODING 488
SWIDTH 778 0
DWIDTH 19 0
BBX 17 22 1 0
BITMAP
0C3000
066000
03C000
018000
000000
FE7F00
383800
383000
386000
38C000
398000
3B0000
3F0000
3F8000
3BC000
39E000
38F000
387800
383C00
381E00
380F00
FE1F80
ENDCHAR
STARTCHAR uni01E9
ENCODING 489
SWIDTH 556 0
DWIDTH 15 0
BBX 13 22 1 0
BITMAP
C300
6600
3C00
1800
0000
F000
7000
7000
7000
7000
73F0
70C0
7180
7300
7600
7E00
7F00
7780
73C0
71E0
70F0
F9F8
ENDCHAR
STARTCHAR uni01EA
ENCODING 490
SWIDTH 778 0
DWIDTH 19 0
BBX 16 22 1 -5
BITMAP
07E0
1E78
381C
781E
700E
F00F
E007
E007
E007
E007
E007
F00F
700E
781E
381C
1E78
07E0
0180
0300
0300
0320
01C0
ENDCHAR
STARTCHAR uni01EB
ENCODING 491
SWIDTH 500 0
DWIDTH 13 0
BBX 11 17 1 -5
BITMAP
1F00
7BC0
71C0
E0E0
E0E0
E0E0
E0E0
E0E0
E0E0
71C0
7BC0
1F00
0600
0C00
0C00
0C80
0700
ENDCHAR
STARTCHAR uni01EC
ENCODING 492
SWIDTH 778 0
DWIDTH 19 0
BBX 16 25 1 -5
BITMAP
07E0
07E0
0000
07E0
1E78
381C
781E
700E
F00F
E007
E007
E007
E007
E007
F00F
700E
781E
381C
1E78
07E0
0180
0300
0300
0320
01C0
ENDCHAR
STARTCHAR uni01ED
ENCODING 493
SWIDTH 500 0
DWIDTH 13 0
BBX 11 20 1 -5
BITMAP
1F80
1F80
0000
1F00
7BC0
71C0
E0E0
E0E0
E0E0
E0E0
E0E0
E0E0
71C0
7BC0
1F00
0600
0C00
0C00
0C80
0700
ENDCHAR
STARTCHAR uni01F0
ENCODING 496
SWIDTH 333 0
DWIDTH 8 0
BBX 9 22 -1 -5
BITMAP
6180
3300
1E00
0C00
0000
1E00
0E00
0E00
0E00
0E00
0E00
0E00
0E00
0E00
0E00
0E00
0E00
0E00
CE00
CE00
CC00
7800
ENDCHAR
STARTCHAR uni01F4
ENCODING 500
SWIDTH 778 0
DWIDTH 19 0
BBX 17 22 1 0
BITMAP
00E000
01C000
018000
030000
000000
07FA00
1F1E00
3C0E00
780600
700200
F00200
E00000
E00000
E07F80
E00E00
E00E00
F00E00
700E00
780E00
3C0E00
1F3E00
07FC00
ENDCHAR
STARTCHAR uni01F5
ENCODING 501
SWIDTH 500 0
DWIDTH 12 0
BBX 10 22 1 -5
BITMAP
0700
0E00
0C00
1800
0000
3E00
77C0
E380
E380
E380
E380
7300
3E00
7000
E000
FF80
FFC0
7FC0
E0C0
C0C0
C180
7F00
ENDCHAR
STARTCHAR uni01F8
ENCODING 504
SWIDTH 722 0
DWIDTH 18 0
BBX 17 22 0 0
BITMAP
070000
038000
018000
00C000
000000
F00F80
780700
3C0200
3E0200
3F0200
2F8200
27C200
23E200
21F200
20FA00
207A00
203E00
201E00
200E00
200600
700600
F80200
ENDCHAR
STARTCHAR uni01F9
ENCODING 505
SWIDTH 556 0
DWIDTH 14 0
BBX 12 17 1 0
BITMAP
1C00
0E00
0600
0300
0000
F3C0
77E0
78E0
70E0
70E0
70E0
70E0
70E0
70E0
70E0
70E0
F9F0
ENDCHAR
STARTCHAR Aringacute
ENCODING 506
SWIDTH 722 0
DWIDTH 18 0
BBX 17 27 0 0
BITMAP
007000
00E000
00C000
018000
000000
01C000
022000
022000
01C000
000000
018000
01C000
03C000
03E000
02E000
06E000
067000
047000
0C7000
083800
083800
1FF800
103C00
301C00
301E00
701E00
F87F80
ENDCHAR
STARTCHAR aringacute
ENCODING 507
SWIDTH 500 0
DWIDTH 12 0
BBX 10 22 1 0
BITMAP
0700
0E00
0C00
1800
0000
1C00
2200
2200
1C00
0000
3E00
7700
E380
E380
4380
0F80
7380
E380
E380
E780
FFC0
7180
ENDCHAR
STARTCHAR AEacute
ENCODING 508
SWIDTH 1000 0
DWIDTH 25 0
BBX 23 22 0 0
BITMAP
000700
000E00
000C00
001800
000000
01FFFC
007C1C
00DC0C
009C04
019C24
011C20
031C60
021CE0
061FE0
07FCE0
0C1C60
081C20
181C22
101C06
301C0E
701C1E
F8FFFE
ENDCHAR
STARTCHAR aeacute
ENCODING 509
SWIDTH 722 0
DWIDTH 17 0
BBX 15 17 1 0
BITMAP
00E0
01C0
0180
0300
0000
3E78
77CC
E3CE
638E
038E
1FFE
7380
E380
E3C0
E7E2
FEFC
7C78
ENDCHAR
STARTCHAR Oslashacute
ENCODING 510
SWIDTH 778 0
DWIDTH 19 0
BBX 16 24 1 -1
BITMAP
0070
00E0
00C0
0180
0000
0004
07EC
1E78
381C
701E
7036
E067
E0C7
E0C7
E187
E307
E307
E607
6C0E
780E
381C
3E78
37E0
6000
ENDCHAR
STARTCHAR oslashacute
ENCODING 511
SWIDTH 500 0
DWIDTH 13 0
BBX 11 21 1 -2
BITMAP
0380
0700
0600
0C00
0000
0040
0040
1E80
79C0
71C0
E2E0
E2E0
E4E0
E4E0
E8E0
E8E0
71C0
7BC0
3F00
4000
4000
ENDCHAR
STARTCHAR uni0200
ENCODING 512
SWIDTH 722 0
DWIDTH 18 0
BBX 17 23 0 0
BITMAP
0CC000
0CC000
066000
066000
022000
000000
018000
01C000
03C000
03E000
02E000
06E000
067000
047000
0C7000
083800
083800
1FF800
103C00
301C00
301E00
701E00
F87F80
ENDCHAR
STARTCHAR uni0201
ENCODING 513
SWIDTH 500 0
DWIDTH 12 0
BBX 10 18 1 0
BITMAP
6600
6600
3300
3300
1100
0000
3E00
6700
E380
E380
4380
0F80
7380
E380
E380
E780
FFC0
7180
ENDCHAR
STARTCHAR uni0202
ENCODING 514
SWIDTH 722 0
DWIDTH 18 0
BBX 17 22 0 0
BITMAP
03C000
07E000
042000
042000
000000
018000
01C000
03C000
03E000
02E000
06E000
067000
047000
0C7000
083800
083800
1FF800
103C00
301C00
301E00
701E00
F87F80
ENDCHAR
STARTCHAR uni0203
ENCODING 515
SWIDTH 500 0
DWIDTH 12 0
BBX 10 17 1 0
BITMAP
1E00
3F00
2100
2100
0000
3E00
6700
E380
E380
4380
0F80
7380
E380
E380
E780
FFC0
7180
ENDCHAR
STARTCHAR uni0204
ENCODING 516
SWIDTH 667 0
DWIDTH 17 0
BBX 15 23 1 0
BITMAP
1980
1980
0CC0
0CC0
0440
0000
FFFC
1E1C
1C0C
1C04
1C24
1C20
1C60
1CE0
1FE0
1CE0
1C60
1C20
1C22
1C06
1C0C
1E1C
FFFC
ENDCHAR
STARTCHAR uni0205
ENCODING 517
SWIDTH 444 0
DWIDTH 11 0
BBX 10 18 1 0
BITMAP
6600
6600
3300
3300
1100
0000
1F00
7380
6380
E1C0
E1C0
FFC0
E000
E000
F000
7880
7F00
1E00
ENDCHAR
STARTCHAR uni0206
ENCODING 518
SWIDTH 667 0
DWIDTH 17 0
BBX 15 22 1 0
BITMAP
0780
0FC0
0840
0840
0000
FFFC
1E1C
1C0C
1C04
1C24
1C20
1C60
1CE0
1FE0
1CE0
1C60
1C20
1C22
1C06
1C0C
1E1C
FFFC
ENDCHAR
STARTCHAR uni0207
ENCODING 519
SWIDTH 444 0
DWIDTH 11 0
BBX 10 17 1 0
BITMAP
1E00
3F00
2100
2100
0000
1F00
7380
6380
E1C0
E1C0
FFC0
E000
E000
F000
7880
7F00
1E00
ENDCHAR
STARTCHAR uni0208
ENCODING 520
SWIDTH 389 0
DWIDTH 10 0
BBX 7 23 2 0
BITMAP
CC
CC
66
66
22
00
FE
38
38
38
38
38
38
38
38
38
38
38
38
38
38
38
FE
ENDCHAR
STARTCHAR uni0209
ENCODING 521
SWIDTH 278 0
DWIDTH 7 0
BBX 7 18 -1 0
BITMAP
CC
CC
66
66
22
00
3C
1C
1C
1C
1C
1C
1C
1C
1C
1C
1C
3E
ENDCHAR
STARTCHAR uni020A
ENCODING 522
SWIDTH 389 0
DWIDTH 10 0
BBX 7 22 2 0
BITMAP
3C
7E
42
42
00
FE
38
38
38
38
38
38
38
38
38
38
38
38
38
38
38
FE
ENDCHAR
STARTCHAR uni020B
ENCODING 523
SWIDTH 278 0
DWIDTH 7 0
BBX 6 17 0 0
BITMAP
78
FC
84
84
00
78
38
38
38
38
38
38
38
38
38
38
7C
ENDCHAR
STARTCHAR uni020C
ENCODING 524
SWIDTH 778 0
DWIDTH 19 0
BBX 16 23 1 0
BITMAP
0CC0
0CC0
0660
0660
0220
0000
07E0
1E78
381C
781E
700E
F00F
E007
E007
E007
E007
E007
F00F
700E
781E
381C
1E78
07E0
ENDCHAR
STARTCHAR uni020D
ENCODING 525
SWIDTH 500 0
DWIDTH 13 0
BBX 11 18 1 0
BITMAP
3300
3300
1980
1980
0880
0000
1F00
7BC0
71C0
E0E0
E0E0
E0E0
E0E0
E0E0
E0E0
71C0
7BC0
1F00
ENDCHAR
STARTCHAR uni020E
ENCODING 526
SWIDTH 778 0
DWIDTH 19 0
BBX 16 22 1 0
BITMAP
03C0
07E0
0420
0420
0000
07E0
1E78
381C
781E
700E
F00F
E007
E007
E007
E007
E007
F00F
700E
781E
381C
1E78
07E0
ENDCHAR
STARTCHAR uni020F
ENCODING 527
SWIDTH 500 0
DWIDTH 13 0
BBX 11 17 1 0
BITMAP
0F00
1F80
1080
1080
0000
1F00
7BC0
71C0
E0E0
E0E0
E0E0
E0E0
E0E0
E0E0
71C0
7BC0
1F00
ENDCHAR
STARTCHAR uni0210
ENCODING 528
SWIDTH 722 0
DWIDTH 18 0
BBX 16 23 1 0
BITMAP
0CC0
0CC0
0660
0660
0220
0000
FFF0
1C38
1C1C
1C1C
1C1C
1C1C
1C38
1C70
1FC0
1DE0
1CF0
1C70
1C78
1C3C
1C1C
1C1E
FF0F
ENDCHAR
STARTCHAR uni0211
ENCODING 529
SWIDTH 444 0
DWIDTH 11 0
BBX 10 18 1 0
BITMAP
6600
6600
3300
3300
1100
0000
F780
79C0
73C0
7180
7000
7000
7000
7000
7000
7000
7000
FC00
ENDCHAR
STARTCHAR uni0212
ENCODING 530
SWIDTH 722 0
DWIDTH 18 0
BBX 16 22 1 0
BITMAP
03C0
07E0
0420
0420
0000
FFF0
1C38
1C1C
1C1C
1C1C
1C1C
1C38
1C70
1FC0
1DE0
1CF0
1C70
1C78
1C3C
1C1C
1C1E
FF0F
ENDCHAR
STARTCHAR uni0213
ENCODING 531
SWIDTH 444 0
DWIDTH 11 0
BBX 10 17 1 0
BITMAP
1E00
3F00
2100
2100
0000
F780
79C0
73C0
7180
7000
7000
7000
7000
7000
7000
7000
FC00
ENDCHAR
STARTCHAR uni0214
ENCODING 532
SWIDTH 722 0
DWIDTH 18 0
BBX 17 23 1 0
BITMAP
0CC000
0CC000
066000
066000
022000
000000
FF0F80
380200
380200
380200
380200
380200
380200
380200
380200
380200
380200
380200
380200
380600
1C0400
1E0C00
0FF800
ENDCHAR
STARTCHAR uni0215
ENCODING 533
SWIDTH 556 0
DWIDTH 14 0
BBX 12 18 1 0
BITMAP
3300
3300
1980
1980
0880
0000
F1E0
70E0
70E0
70E0
70E0
70E0
70E0
70E0
70E0
71E0
7EF0
3CE0
ENDCHAR
STARTCHAR uni0216
ENCODING 534
SWIDTH 722 0
DWIDTH 18 0
BBX 17 22 1 0
BITMAP
03C000
07E000
042000
042000
000000
FF0F80
380200
380200
380200
380200
380200
380200
380200
380200
380200
380200
380200
380200
380600
1C0400
1E0C00
0FF800
ENDCHAR
STARTCHAR uni0217
ENCODING 535
SWIDTH 556 0
DWIDTH 14 0
BBX 12 17 1 0
BITMAP
0F00
1F80
1080
1080
0000
F1E0
70E0
70E0
70E0
70E0
70E0
70E0
70E0
70E0
71E0
7EF0
3CE0
ENDCHAR
STARTCHAR Scommaaccent
ENCODING 536
SWIDTH 556 0
DWIDTH 14 0
BBX 11 27 2 -10
BITMAP
3F40
71C0
E0C0
E040
E040
F000
FC00
7F00
1FC0
0FC0
03E0
81E0
80E0
C0E0
E0C0
F1C0
BF80
0000
0C00
1E00
1E00
0E00
0600
0C00
0C00
1800
1000
ENDCHAR
STARTCHAR scommaaccent
ENCODING 537
SWIDTH 389 0
DWIDTH 10 0
BBX 8 22 1 -10
BITMAP
3E
66
E2
E2
F8
7C
3E
1F
87
87
C6
FC
00
18
3C
3C
1C
0C
18
18
30
20
ENDCHAR
STARTCHAR Tcommaaccent
ENCODING 538
SWIDTH 667 0
DWIDTH 16 0
BBX 15 27 0 -10
BITMAP
FFFE
E38E
C386
8382
8382
0380
0380
0380
0380
0380
0380
0380
0380
0380
0380
0380
1FF0
0000
0180
03C0
03C0
01C0
00C0
0180
0180
0300
0200
ENDCHAR
STARTCHAR tcommaaccent
ENCODING 539
SWIDTH 333 0
DWIDTH 8 0
BBX 8 26 0 -10
BITMAP
08
18
38
78
FF
38
38
38
38
38
38
38
38
39
3E
1C
00
18
3C
3C
1C
0C
18
18
30
20
ENDCHAR
STARTCHAR uni021E
ENCODING 542
SWIDTH 778 0
DWIDTH 19 0
BBX 18 22 0 0
BITMAP
061800
033000
01E000
00C000
000000
FF3FC0
380700
380700
380700
380700
380700
380700
3FFF00
3FFF00
380700
380700
380700
380700
380700
380700
380700
FF3FC0
ENDCHAR
STARTCHAR uni021F
ENCODING 543
SWIDTH 556 0
DWIDTH 14 0
BBX 13 22 0 0
BITMAP
C300
6600
3C00
1800
0000
F800
3800
3800
3800
3800
39E0
3FF0
3C70
3870
3870
3870
3870
3870
3870
3870
3870
7CF8
ENDCHAR
STARTCHAR uni0226
ENCODING 550
SWIDTH 722 0
DWIDTH 18 0
BBX 17 20 0 0
BITMAP
018000
018000
000000
018000
01C000
03C000
03E000
02E000
06E000
067000
047000
0C7000
083800
083800
1FF800
103C00
301C00
301E00
701E00
F87F80
ENDCHAR
STARTCHAR uni0227
ENCODING 551
SWIDTH 500 0
DWIDTH 12 0
BBX 10 15 1 0
BITMAP
0C00
0C00
0000
3E00
6700
E380
E380
4380
0F80
7380
E380
E380
E780
FFC0
7180
ENDCHAR
STARTCHAR uni0228
ENCODING 552
SWIDTH 667 0
DWIDTH 17 0
BBX 15 23 1 -6
BITMAP
FFFC
1E1C
1C0C
1C04
1C24
1C20
1C60
1CE0
1FE0
1CE0
1C60
1C20
1C22
1C06
1C0C
1E1C
FFFC
0100
0300
0380
00C0
08C0
0780
ENDCHAR
STARTCHAR uni0229
ENCODING 553
SWIDTH 444 0
DWIDTH 11 0
BBX 10 18 1 -6
BITMAP
1F00
7380
6380
E1C0
E1C0
FFC0
E000
E000
F000
7880
7F00
1E00
0800
1800
1C00
0600
4600
3C00
ENDCHAR
STARTCHAR uni022A
ENCODING 554
SWIDTH 778 0
DWIDTH 19 0
BBX 16 24 1 0
BITMAP
07E0
07E0
0000
0C30
0C30
0000
0000
07E0
1E78
381C
781E
700E
F00F
E007
E007
E007
E007
E007
F00F
700E
781E
381C
1E78
07E0
ENDCHAR
STARTCHAR uni022B
ENCODING 555
SWIDTH 500 0
DWIDTH 13 0
BBX 11 19 1 0
BITMAP
3F00
3F00
0000
3300
3300
0000
0000
1F00
7BC0
71C0
E0E0
E0E0
E0E0
E0E0
E0E0
E0E0
71C0
7BC0
1F00
ENDCHAR
STARTCHAR uni022C
ENCODING 556
SWIDTH 778 0
DWIDTH 19 0
BBX 16 24 1 0
BITMAP
07E0
07E0
0000
0188
03F0
0460
0000
07E0
1E78
381C
781E
700E
F00F
E007
E007
E007
E007
E007
F00F
700E
781E
381C
1E78
07E0
ENDCHAR
STARTCHAR uni022D
ENCODING 557
SWIDTH 500 0
DWIDTH 13 0
BBX 11 20 1 0
BITMAP
3F00
3F00
0000
1880
3F00
4600
0000
0000
1F00
7BC0
71C0
E0E0
E0E0
E0E0
E0E0
E0E0
E0E0
71C0
7BC0
1F00
ENDCHAR
STARTCHAR uni022E
ENCODING 558
SWIDTH 778 0
DWIDTH 19 0
BBX 16 20 1 0
BITMAP
0180
0180
0000
07E0
1E78
381C
781E
700E
F00F
E007
E007
E007
E007
E007
F00F
700E
781E
381C
1E78
07E0
ENDCHAR
STARTCHAR uni022F
ENCODING 559
SWIDTH 500 0
DWIDTH 13 0
BBX 11 15 1 0
BITMAP
0600
0600
0000
1F00
7BC0
71C0
E0E0
E0E0
E0E0
E0E0
E0E0
E0E0
71C0
7BC0
1F00
ENDCHAR
STARTCHAR uni0230
ENCODING 560
SWIDTH 778 0
DWIDTH 19 0
BBX 16 23 1 0
BITMAP
07E0
07E0
0000
0180
0180
0000
07E0
1E78
381C
781E
700E
F00F
E007
E007
E007
E007
E007
F00F
700E
781E
381C
1E78
07E0
ENDCHAR
STARTCHAR uni0231
ENCODING 561
SWIDTH 500 0
DWIDTH 13 0
BBX 11 18 1 0
BITMAP
1F80
1F80
0000
0600
0600
0000
1F00
7BC0
71C0
E0E0
E0E0
E0E0
E0E0
E0E0
E0E0
71C0
7BC0
1F00
ENDCHAR
STARTCHAR uni0232
ENCODING 562
SWIDTH 722 0
DWIDTH 18 0
BBX 17 20 1 0
BITMAP
07E000
07E000
000000
FF3F80
3C0F00
3C0C00
1E0C00
0E1800
0F1800
073000
03A000
03E000
01C000
01C000
01C000
01C000
01C000
01C000
01C000
07F000
ENDCHAR
STARTCHAR uni0233
ENCODING 563
SWIDTH 500 0
DWIDTH 12 0
BBX 12 20 0 -5
BITMAP
1F80
1F80
0000
FDF0
7860
3840
38C0
3C80
1C80
1D80
1F00
0F00
0F00
0600
0600
0600
6400
EC00
F800
7000
ENDCHAR
STARTCHAR uni0250
ENCODING 592
SWIDTH 500 0
DWIDTH 12 0
BBX 10 12 1 0
BITMAP
6380
FFC0
79C0
71C0
71C0
7380
7C00
7080
71C0
71C0
3980
1F00
ENDCHAR
STARTCHAR uni0254
ENCODING 596
SWIDTH 444 0
DWIDTH 11 0
BBX 9 12 1 0
BITMAP
7C00
E700
E700
E380
4380
0380
0380
0380
0780
8F00
7F00
3C00
ENDCHAR
STARTCHAR uni0258
ENCODING 600
SWIDTH 444 0
DWIDTH 11 0
BBX 10 12 1 0
BITMAP
3E00
7380
7180
E1C0
E1C0
FFC0
01C0
01C0
03C0
4780
3F80
1E00
ENDCHAR
STARTCHAR uni0259
ENCODING 601
SWIDTH 444 0
DWIDTH 11 0
BBX 10 12 1 0
BITMAP
1E00
3F80
4780
03C0
01C0
01C0
FFC0
E1C0
E1C0
7180
7380
3E00
ENDCHAR
STARTCHAR uni025F
ENCODING 607
SWIDTH 333 0
DWIDTH 8 0
BBX 8 17 1 -5
BITMAP
1F
0E
0E
0E
0E
0E
0E
0E
0E
0E
0E
3F
0E
0E
CE
CC
78
ENDCHAR
STARTCHAR uni0265
ENCODING 613
SWIDTH 556 0
DWIDTH 14 0
BBX 13 17 0 -5
BITMAP
F9F0
70E0
70E0
70E0
70E0
70E0
70E0
70E0
70E0
71E0
7FE0
3CE0
00E0
00E0
00E0
00E0
00F8
ENDCHAR
STARTCHAR uni0275
ENCODING 629
SWIDTH 500 0
DWIDTH 13 0
BBX 11 12 1 0
BITMAP
1F00
7BC0
71C0
E0E0
E0E0
FFE0
FFE0
E0E0
E0E0
71C0
7BC0
1F00
ENDCHAR
STARTCHAR uni0279
ENCODING 633
SWIDTH 444 0
DWIDTH 11 0
BBX 10 12 1 0
BITMAP
0FC0
0380
0380
0380
0380
0380
0380
0380
6380
F380
E780
7BC0
ENDCHAR
STARTCHAR uni0287
ENCODING 647
SWIDTH 333 0
DWIDTH 8 0
BBX 8 16 0 0
BITMAP
38
7C
9C
1C
1C
1C
1C
1C
1C
1C
1C
FF
1E
1C
18
10
ENDCHAR
STARTCHAR uni0288
ENCODING 648
SWIDTH 333 0
DWIDTH 8 0
BBX 9 21 0 -5
BITMAP
0800
1800
3800
7800
FF00
3800
3800
3800
3800
3800
3800
3800
3800
3800
3800
3800
3800
3980
3980
1980
0F00
ENDCHAR
STARTCHAR uni0289
ENCODING 649
SWIDTH 556 0
DWIDTH 14 0
BBX 12 12 1 0
BITMAP
F1E0
70E0
70E0
70E0
70E0
FFF0
FFF0
70E0
70E0
71E0
7EF0
3CE0
ENDCHAR
STARTCHAR uni028C
ENCODING 652
SWIDTH 500 0
DWIDTH 12 0
BBX 12 12 0 0
BITMAP
0600
0600
0700
0F00
0F80
0B80
1B80
13C0
31C0
21E0
61E0
F3F0
ENDCHAR
STARTCHAR uni028D
ENCODING 653
SWIDTH 722 0
DWIDTH 18 0
BBX 17 12 0 0
BITMAP
0C3000
0C3000
0E3800
1E7800
1E7C00
175C00
379C00
338E00
238E00
638E00
638F00
F7DF80
ENDCHAR
STARTCHAR uni028E
ENCODING 654
SWIDTH 500 0
DWIDTH 12 0
BBX 12 17 0 0
BITMAP
00E0
01F0
0370
0260
0600
0600
0600
0F00
0F00
0F80
1B80
1380
13C0
31C0
21C0
61E0
FBF0
ENDCHAR
STARTCHAR uni029E
ENCODING 670
SWIDTH 556 0
DWIDTH 15 0
BBX 13 17 1 -5
BITMAP
FCF8
7870
3C70
1E70
0F70
07F0
03F0
0370
0670
0C70
1870
7E70
0070
0070
0070
0070
0078
ENDCHAR
STARTCHAR uni02BB
ENCODING 699
SWIDTH 333 0
DWIDTH 8 0
BBX 4 9 2 8
BITMAP
10
30
60
60
C0
E0
F0
F0
60
ENDCHAR
STARTCHAR afii57929
ENCODING 700
SWIDTH 333 0
DWIDTH 8 0
BBX 4 9 2 8
BITMAP
60
F0
F0
70
30
60
60
C0
80
ENDCHAR
STARTCHAR afii64937
ENCODING 701
SWIDTH 333 0
DWIDTH 8 0
BBX 4 9 2 8
BITMAP
60
F0
F0
E0
C0
60
60
30
10
ENDCHAR
STARTCHAR circumflex
ENCODING 710
SWIDTH 333 0
DWIDTH 8 0
BBX 8 4 1 14
BITMAP
18
3C
66
C3
ENDCHAR
STARTCHAR caron
ENCODING 711
SWIDTH 333 0
DWIDTH 8 0
BBX 8 4 1 14
BITMAP
C3
66
3C
18
ENDCHAR
STARTCHAR uni02C8
ENCODING 712
SWIDTH 278 0
DWIDTH 7 0
BBX 3 8 2 9
BITMAP
E0
E0
E0
E0
E0
E0
40
40
ENDCHAR
STARTCHAR macron
ENCODING 713
SWIDTH 333 0
DWIDTH 8 0
BBX 6 2 1 14
BITMAP
FC
FC
ENDCHAR
STARTCHAR uni02CA
ENCODING 714
SWIDTH 333 0
DWIDTH 8 0
BBX 5 4 2 13
BITMAP
38
70
60
C0
ENDCHAR
STARTCHAR uni02CB
ENCODING 715
SWIDTH 333 0
DWIDTH 8 0
BBX 5 4 1 13
BITMAP
E0
70
30
18
ENDCHAR
STARTCHAR uni02CD
ENCODING 717
SWIDTH 333 0
DWIDTH 8 0
BBX 6 2 1 -3
BITMAP
FC
FC
ENDCHAR
STARTCHAR uni02CE
ENCODING 718
SWIDTH 333 0
DWIDTH 8 0
BBX 5 4 1 -5
BITMAP
E0
70
30
18
ENDCHAR
STARTCHAR uni02CF
ENCODING 719
SWIDTH 333 0
DWIDTH 8 0
BBX 5 4 2 -5
BITMAP
38
70
60
C0
ENDCHAR
STARTCHAR breve
ENCODING 728
SWIDTH 333 0
DWIDTH 8 0
BBX 6 4 1 14
BITMAP
84
84
FC
78
ENDCHAR
STARTCHAR dotaccent
ENCODING 729
SWIDTH 333 0
DWIDTH 8 0
BBX 2 2 3 14
BITMAP
C0
C0
ENDCHAR
STARTCHAR ring
ENCODING 730
SWIDTH 333 0
DWIDTH 8 0
BBX 5 4 1 13
BITMAP
70
88
88
70
ENDCHAR
STARTCHAR ogonek
ENCODING 731
SWIDTH 333 0
DWIDTH 8 0
BBX 5 5 2 -5
BITMAP
60
C0
C0
C8
70
ENDCHAR
STARTCHAR tilde
ENCODING 732
SWIDTH 333 0
DWIDTH 8 0
BBX 8 3 0 14
BITMAP
31
7E
8C
ENDCHAR
STARTCHAR hungarumlaut
ENCODING 733
SWIDTH 333 0
DWIDTH 8 0
BBX 7 5 1 13
BITMAP
66
66
CC
CC
88
ENDCHAR
STARTCHAR uni02EE
ENCODING 750
SWIDTH 500 0
DWIDTH 13 0
BBX 9 9 1 8
BITMAP
6300
F780
F780
7380
3180
6300
6300
C600
8400
ENDCHAR
STARTCHAR uni037E
ENCODING 894
SWIDTH 333 0
DWIDTH 8 0
BBX 4 17 2 -5
BITMAP
60
F0
F0
60
00
00
00
00
60
F0
F0
70
30
60
60
C0
80
ENDCHAR
STARTCHAR tonos
ENCODING 900
SWIDTH 333 0
DWIDTH 8 0
BBX 5 4 2 13
BITMAP
38
70
60
C0
ENDCHAR
STARTCHAR dieresistonos
ENCODING 901
SWIDTH 333 0
DWIDTH 8 0
BBX 6 7 1 14
BITMAP
1C
38
30
60
00
CC
CC
ENDCHAR
STARTCHAR anoteleia
ENCODING 903
SWIDTH 250 0
DWIDTH 6 0
BBX 3 3 1 7
BITMAP
E0
E0
E0
ENDCHAR
STARTCHAR mu
ENCODING 956
SWIDTH 556 0
DWIDTH 14 0
BBX 12 17 1 -5
BITMAP
F1E0
70E0
70E0
70E0
70E0
70E0
70E0
70E0
70E0
71E0
7EF0
6CE0
6000
6000
E000
F000
6000
ENDCHAR
STARTCHAR uni1E00
ENCODING 7680
SWIDTH 722 0
DWIDTH 18 0
BBX 17 22 0 -5
BITMAP
018000
01C000
03C000
03E000
02E000
06E000
067000
047000
0C7000
083800
083800
1FF800
103C00
301C00
301E00
701E00
F87F80
000000
01C000
022000
022000
01C000
ENDCHAR
STARTCHAR uni1E01
ENCODING 7681
SWIDTH 500 0
DWIDTH 12 0
BBX 10 17 1 -5
BITMAP
3E00
6700
E380
E380
4380
0F80
7380
E380
E380
E780
FFC0
7180
0000
1C00
2200
2200
1C00
ENDCHAR
STARTCHAR uni1E02
ENCODING 7682
SWIDTH 667 0
DWIDTH 16 0
BBX 13 20 1 0
BITMAP
0600
0600
0000
FF80
38E0
3870
3870
3870
3870
3860
38C0
3FE0
3870
3838
3838
3838
3838
3838
3870
FFC0
ENDCHAR
STARTCHAR uni1E03
ENCODING 7683
SWIDTH 556 0
DWIDTH 13 0
BBX 12 20 0 0
BITMAP
1800
1800
0000
F800
3800
3800
3800
3800
3B80
3FE0
3CE0
3870
3870
3870
3870
3870
3870
38E0
3DE0
3780
ENDCHAR
STARTCHAR uni1E04
ENCODING 7684
SWIDTH 667 0
DWIDTH 16 0
BBX 13 20 1 -3
BITMAP
FF80
38E0
3870
3870
3870
3870
3860
38C0
3FE0
3870
3838
3838
3838
3838
3838
3870
FFC0
0000
0300
0300
ENDCHAR
STARTCHAR uni1E05
ENCODING 7685
SWIDTH 556 0
DWIDTH 13 0
BBX 12 20 0 -3
BITMAP
F800
3800
3800
3800
3800
3B80
3FE0
3CE0
3870
3870
3870
3870
3870
3870
38E0
3DE0
3780
0000
0600
0600
ENDCHAR
STARTCHAR uni1E06
ENCODING 7686
SWIDTH 667 0
DWIDTH 16 0
BBX 13 20 1 -3
BITMAP
FF80
38E0
3870
3870
3870
3870
3860
38C0
3FE0
3870
3838
3838
3838
3838
3838
3870
FFC0
0000
0FC0
0FC0
ENDCHAR
STARTCHAR uni1E07
ENCODING 7687
SWIDTH 556 0
DWIDTH 13 0
BBX 12 20 0 -3
BITMAP
F800
3800
3800
3800
3800
3B80
3FE0
3CE0
3870
3870
3870
3870
3870
3870
38E0
3DE0
3780
0000
1F80
1F80
ENDCHAR
STARTCHAR uni1E08
ENCODING 7688
SWIDTH 722 0
DWIDTH 18 0
BBX 14 28 2 -6
BITMAP
01C0
0380
0300
0600
0000
07E4
1E7C
3C1C
780C
7004
F004
E000
E000
E000
E000
E000
F000
F000
7804
781C
3E78
0FE0
0100
0300
0380
00C0
08C0
0780
ENDCHAR
STARTCHAR uni1E09
ENCODING 7689
SWIDTH 444 0
DWIDTH 11 0
BBX 9 23 1 -6
BITMAP
0700
0E00
0C00
1800
0000
1E00
7300
7380
E380
E100
E000
E000
E000
F000
7880
7F00
1E00
0800
1800
1C00
0600
4600
3C00
ENDCHAR
STARTCHAR uni1E0A
ENCODING 7690
SWIDTH 722 0
DWIDTH 18 0
BBX 16 20 0 0
BITMAP
0180
0180
0000
FFE0
1C7C
1C1E
1C0E
1C0F
1C07
1C07
1C07
1C07
1C07
1C07
1C07
1C0F
1C0E
1C1E
1C78
FFE0
ENDCHAR
STARTCHAR uni1E0B
ENCODING 7691
SWIDTH 556 0
DWIDTH 14 0
BBX 12 20 1 0
BITMAP
0180
0180
0000
03E0
00E0
00E0
00E0
00E0
1EE0
7FE0
71E0
E0E0
E0E0
E0E0
E0E0
E0E0
F0E0
71E0
7EE0
1C70
ENDCHAR
STARTCHAR uni1E0C
ENCODING 7692
SWIDTH 722 0
DWIDTH 18 0
BBX 16 20 0 -3
BITMAP
FFE0
1C7C
1C1E
1C0E
1C0F
1C07
1C07
1C07
1C07
1C07
1C07
1C07
1C0F
1C0E
1C1E
1C78
FFE0
0000
0180
0180
ENDCHAR
STARTCHAR uni1E0D
ENCODING 7693
SWIDTH 556 0
DWIDTH 14 0
BBX 12 20 1 -3
BITMAP
03E0
00E0
00E0
00E0
00E0
1EE0
7FE0
71E0
E0E0
E0E0
E0E0
E0E0
E0E0
F0E0
71E0
7EE0
1C70
0000
0600
0600
ENDCHAR
STARTCHAR uni1E0E
ENCODING 7694
SWIDTH 722 0
DWIDTH 18 0
BBX 16 20 0 -3
BITMAP
FFE0
1C7C
1C1E
1C0E
1C0F
1C07
1C07
1C07
1C07
1C07
1C07
1C07
1C0F
1C0E
1C1E
1C78
FFE0
0000
07E0
07E0
ENDCHAR
STARTCHAR uni1E0F
ENCODING 7695
SWIDTH 556 0
DWIDTH 14 0
BBX 12 20 1 -3
BITMAP
03E0
00E0
00E0
00E0
00E0
1EE0
7FE0
71E0
E0E0
E0E0
E0E0
E0E0
E0E0
F0E0
71E0
7EE0
1C70
0000
1F80
1F80
ENDCHAR
STARTCHAR uni1E10
ENCODING 7696
SWIDTH 722 0
DWIDTH 18 0
BBX 16 23 0 -6
BITMAP
FFE0
1C7C
1C1E
1C0E
1C0F
1C07
1C07
1C07
1C07
1C07
1C07
1C07
1C0F
1C0E
1C1E
1C78
FFE0
0080
0180
01C0
0060
0460
03C0
ENDCHAR
STARTCHAR uni1E11
ENCODING 7697
SWIDTH 556 0
DWIDTH 14 0
BBX 12 23 1 -6
BITMAP
03E0
00E0
00E0
00E0
00E0
1EE0
7FE0
71E0
E0E0
E0E0
E0E0
E0E0
E0E0
F0E0
71E0
7EE0
1C70
0200
0600
0700
0180
1180
0F00
ENDCHAR
STARTCHAR uni1E12
ENCODING 7698
SWIDTH 722 0
DWIDTH 18 0
BBX 16 22 0 -5
BITMAP
FFE0
1C7C
1C1E
1C0E
1C0F
1C07
1C07
1C07
1C07
1C07
1C07
1C07
1C0F
1C0E
1C1E
1C78
FFE0
0000
0180
03C0
0660
0C30
ENDCHAR
STARTCHAR uni1E13
ENCODING 7699
SWIDTH 556 0
DWIDTH 14 0
BBX 12 22 1 -5
BITMAP
03E0
00E0
00E0
00E0
00E0
1EE0
7FE0
71E0
E0E0
E0E0
E0E0
E0E0
E0E0
F0E0
71E0
7EE0
1C70
0000
0600
0F00
1980
30C0
ENDCHAR
STARTCHAR uni1E14
ENCODING 7700
SWIDTH 667 0
DWIDTH 17 0
BBX 15 25 1 0
BITMAP
0E00
0700
0300
0180
0000
0FC0
0FC0
0000
FFFC
1E1C
1C0C
1C04
1C24
1C20
1C60
1CE0
1FE0
1CE0
1C60
1C20
1C22
1C06
1C0C
1E1C
FFFC
ENDCHAR
STARTCHAR uni1E15
ENCODING 7701
SWIDTH 444 0
DWIDTH 11 0
BBX 10 20 1 0
BITMAP
3800
1C00
0C00
0600
0000
3F00
3F00
0000
1F00
7380
6380
E1C0
E1C0
FFC0
E000
E000
F000
7880
7F00
1E00
ENDCHAR
STARTCHAR uni1E16
ENCODING 7702
SWIDTH 667 0
DWIDTH 17 0
BBX 15 25 1 0
BITMAP
00E0
01C0
0180
0300
0000
0FC0
0FC0
0000
FFFC
1E1C
1C0C
1C04
1C24
1C20
1C60
1CE0
1FE0
1CE0
1C60
1C20
1C22
1C06
1C0C
1E1C
FFFC
ENDCHAR
STARTCHAR uni1E17
ENCODING 7703
SWIDTH 444 0
DWIDTH 11 0
BBX 10 20 1 0
BITMAP
0700
0E00
0C00
1800
0000
3F00
3F00
0000
1F00
7380
6380
E1C0
E1C0
FFC0
E000
E000
F000
7880
7F00
1E00
ENDCHAR
STARTCHAR uni1E18
ENCODING 7704
SWIDTH 667 0
DWIDTH 17 0
BBX 15 22 1 -5
BITMAP
FFFC
1E1C
1C0C
1C04
1C24
1C20
1C60
1CE0
1FE0
1CE0
1C60
1C20
1C22
1C06
1C0C
1E1C
FFFC
0000
0180
03C0
0660
0C30
ENDCHAR
STARTCHAR uni1E19
ENCODING 7705
SWIDTH 444 0
DWIDTH 11 0
BBX 10 17 1 -5
BITMAP
1F00
7380
6380
E1C0
E1C0
FFC0
E000
E000
F000
7880
7F00
1E00
0000
1800
3C00
6600
C300
ENDCHAR
STARTCHAR uni1E1A
ENCODING 7706
SWIDTH 667 0
DWIDTH 17 0
BBX 15 21 1 -4
BITMAP
FFFC
1E1C
1C0C
1C04
1C24
1C20
1C60
1CE0
1FE0
1CE0
1C60
1C20
1C22
1C06
1C0C
1E1C
FFFC
0000
0620
0FC0
1180
ENDCHAR
STARTCHAR uni1E1B
ENCODING 7707
SWIDTH 444 0
DWIDTH 11 0
BBX 10 16 1 -4
BITMAP
1F00
7380
6380
E1C0
E1C0
FFC0
E000
E000
F000
7880
7F00
1E00
0000
3100
7E00
8C00
ENDCHAR
STARTCHAR uni1E1C
ENCODING 7708
SWIDTH 667 0
DWIDTH 17 0
BBX 15 28 1 -6
BITMAP
0840
0840
0FC0
0780
0000
FFFC
1E1C
1C0C
1C04
1C24
1C20
1C60
1CE0
1FE0
1CE0
1C60
1C20
1C22
1C06
1C0C
1E1C
FFFC
0100
0300
0380
00C0
08C0
0780
ENDCHAR
STARTCHAR uni1E1D
ENCODING 7709
SWIDTH 444 0
DWIDTH 11 0
BBX 10 23 1 -6
BITMAP
2100
2100
3F00
1E00
0000
1F00
7380
6380
E1C0
E1C0
FFC0
E000
E000
F000
7880
7F00
1E00
0800
1800
1C00
0600
4600
3C00
ENDCHAR
STARTCHAR uni1E1E
ENCODING 7710
SWIDTH 611 0
DWIDTH 15 0
BBX 14 20 0 0
BITMAP
0300
0300
0000
FFFC
381C
380C
3804
3824
3820
3860
38E0
3FE0
38E0
3860
3820
3820
3800
3800
3800
FF00
ENDCHAR
STARTCHAR uni1E1F
ENCODING 7711
SWIDTH 333 0
DWIDTH 8 0
BBX 8 20 1 0
BITMAP
18
18
00
1E
33
73
70
70
FC
70
70
70
70
70
70
70
70
70
70
F8
ENDCHAR
STARTCHAR uni1E20
ENCODING 7712
SWIDTH 778 0
DWIDTH 19 0
BBX 17 20 1 0
BITMAP
07E000
07E000
000000
07FA00
1F1E00
3C0E00
780600
700200
F00200
E00000
E00000
E07F80
E00E00
E00E00
F00E00
700E00
780E00
3C0E00
1F3E00
07FC00
ENDCHAR
STARTCHAR uni1E21
ENCODING 7713
SWIDTH 500 0
DWIDTH 12 0
BBX 10 20 1 -5
BITMAP
3F00
3F00
0000
3E00
77C0
E380
E380
E380
E380
7300
3E00
7000
E000
FF80
FFC0
7FC0
E0C0
C0C0
C180
7F00
ENDCHAR
STARTCHAR uni1E22
ENCODING 7714
SWIDTH 778 0
DWIDTH 19 0
BBX 18 20 0 0
BITMAP
00C000
00C000
000000
FF3FC0
380700
380700
380700
380700
380700
380700
3FFF00
3FFF00
380700
380700
380700
380700
380700
380700
380700
FF3FC0
ENDCHAR
STARTCHAR uni1E23
ENCODING 7715
SWIDTH 556 0
DWIDTH 14 0
BBX 13 20 0 0
BITMAP
1800
1800
0000
F800
3800
3800
3800
3800
39E0
3FF0
3C70
3870
3870
3870
3870
3870
3870
3870
3870
7CF8
ENDCHAR
STARTCHAR uni1E24
ENCODING 7716
SWIDTH 778 0
DWIDTH 19 0
BBX 18 20 0 -3
BITMAP
FF3FC0
380700
380700
380700
380700
380700
380700
3FFF00
3FFF00
380700
380700
380700
380700
380700
380700
380700
FF3FC0
000000
00C000
00C000
ENDCHAR
STARTCHAR uni1E25
ENCODING 7717
SWIDTH 556 0
DWIDTH 14 0
BBX 13 20 0 -3
BITMAP
F800
3800
3800
3800
3800
39E0
3FF0
3C70
3870
3870
3870
3870
3870
3870
3870
3870
7CF8
0000
0300
0300
ENDCHAR
STARTCHAR uni1E26
ENCODING 7718
SWIDTH 778 0
DWIDTH 19 0
BBX 18 20 0 0
BITMAP
033000
033000
000000
FF3FC0
380700
380700
380700
380700
380700
380700
3FFF00
3FFF00
380700
380700
380700
380700
380700
380700
380700
FF3FC0
ENDCHAR
STARTCHAR uni1E27
ENCODING 7719
SWIDTH 556 0
DWIDTH 14 0
BBX 13 20 0 0
BITMAP
6600
6600
0000
F800
3800
3800
3800
3800
39E0
3FF0
3C70
3870
3870
3870
3870
3870
3870
3870
3870
7CF8
ENDCHAR
STARTCHAR uni1E28
ENCODING 7720
SWIDTH 778 0
DWIDTH 19 0
BBX 18 23 0 -6
BITMAP
FF3FC0
380700
380700
380700
380700
380700
380700
3FFF00
3FFF00
380700
380700
380700
380700
380700
380700
380700
FF3FC0
004000
00C000
00E000
003000
023000
01E000
ENDCHAR
STARTCHAR uni1E29
ENCODING 7721
SWIDTH 556 0
DWIDTH 14 0
BBX 13 23 0 -6
BITMAP
F800
3800
3800
3800
3800
39E0
3FF0
3C70
3870
3870
3870
3870
3870
3870
3870
3870
7CF8
0100
0300
0380
00C0
08C0
0780
ENDCHAR
STARTCHAR uni1E2A
ENCODING 7722
SWIDTH 778 0
DWIDTH 19 0
BBX 18 22 0 -5
BITMAP
FF3FC0
380700
380700
380700
380700
380700
380700
3FFF00
3FFF00
380700
380700
380700
380700
380700
380700
380700
FF3FC0
000000
021000
021000
03F000
01E000
ENDCHAR
STARTCHAR uni1E2B
ENCODING 7723
SWIDTH 556 0
DWIDTH 14 0
BBX 13 22 0 -5
BITMAP
F800
3800
3800
3800
3800
39E0
3FF0
3C70
3870
3870
3870
3870
3870
3870
3870
3870
7CF8
0000
0840
0840
0FC0
0780
ENDCHAR
STARTCHAR uni1E2C
ENCODING 7724
SWIDTH 389 0
DWIDTH 10 0
BBX 8 21 1 -4
BITMAP
7F
1C
1C
1C
1C
1C
1C
1C
1C
1C
1C
1C
1C
1C
1C
1C
7F
00
31
7E
8C
ENDCHAR
STARTCHAR uni1E2D
ENCODING 7725
SWIDTH 278 0
DWIDTH 7 0
BBX 8 21 -1 -4
BITMAP
1C
1C
1C
00
00
3C
1C
1C
1C
1C
1C
1C
1C
1C
1C
1C
3E
00
31
7E
8C
ENDCHAR
STARTCHAR uni1E2E
ENCODING 7726
SWIDTH 389 0
DWIDTH 10 0
BBX 7 26 1 0
BITMAP
0E
1C
18
30
00
C6
C6
00
00
FE
38
38
38
38
38
38
38
38
38
38
38
38
38
38
38
FE
ENDCHAR
STARTCHAR uni1E2F
ENCODING 7727
SWIDTH 278 0
DWIDTH 7 0
BBX 6 21 0 0
BITMAP
1C
38
30
60
00
CC
CC
00
00
78
38
38
38
38
38
38
38
38
38
38
7C
ENDCHAR
STARTCHAR uni1E30
ENCODING 7728
SWIDTH 778 0
DWIDTH 19 0
BBX 17 22 1 0
BITMAP
00E000
01C000
018000
030000
000000
FE7F00
383800
383000
386000
38C000
398000
3B0000
3F0000
3F8000
3BC000
39E000
38F000
387800
383C00
381E00
380F00
FE1F80
ENDCHAR
STARTCHAR uni1E31
ENCODING 7729
SWIDTH 556 0
DWIDTH 15 0
BBX 13 22 1 0
BITMAP
0E00
1C00
1800
3000
0000
F000
7000
7000
7000
7000
73F0
70C0
7180
7300
7600
7E00
7F00
7780
73C0
71E0
70F0
F9F8
ENDCHAR
STARTCHAR uni1E32
ENCODING 7730
SWIDTH 778 0
DWIDTH 19 0
BBX 17 20 1 -3
BITMAP
FE7F00
383800
383000
386000
38C000
398000
3B0000
3F0000
3F8000
3BC000
39E000
38F000
387800
383C00
381E00
380F00
FE1F80
000000
00C000
00C000
ENDCHAR
STARTCHAR uni1E33
ENCODING 7731
SWIDTH 556 0
DWIDTH 15 0
BBX 13 20 1 -3
BITMAP
F000
7000
7000
7000
7000
73F0
70C0
7180
7300
7600
7E00
7F00
7780
73C0
71E0
70F0
F9F8
0000
0600
0600
ENDCHAR
STARTCHAR uni1E34
ENCODING 7732
SWIDTH 778 0
DWIDTH 19 0
BBX 17 20 1 -3
BITMAP
FE7F00
383800
383000
386000
38C000
398000
3B0000
3F0000
3F8000
3BC000
39E000
38F000
387800
383C00
381E00
380F00
FE1F80
000000
03F000
03F000
ENDCHAR
STARTCHAR uni1E35
ENCODING 7733
SWIDTH 556 0
DWIDTH 15 0
BBX 13 20 1 -3
BITMAP
F000
7000
7000
7000
7000
73F0
70C0
7180
7300
7600
7E00
7F00
7780
73C0
71E0
70F0
F9F8
0000
1F80
1F80
ENDCHAR
STARTCHAR uni1E36
ENCODING 7734
SWIDTH 667 0
DWIDTH 16 0
BBX 14 20 1 -3
BITMAP
FE00
3800
3800
3800
3800
3800
3800
3800
3800
3800
3800
3800
3804
380C
3818
3838
FFF8
0000
0300
0300
ENDCHAR
STARTCHAR uni1E37
ENCODING 7735
SWIDTH 278 0
DWIDTH 7 0
BBX 6 20 0 -3
BITMAP
F8
38
38
38
38
38
38
38
38
38
38
38
38
38
38
38
7C
00
30
30
ENDCHAR
STARTCHAR uni1E38
ENCODING 7736
SWIDTH 667 0
DWIDTH 16 0
BBX 14 23 1 -3
BITMAP
3F00
3F00
0000
FE00
3800
3800
3800
3800
3800
3800
3800
3800
3800
3800
3800
3804
380C
3818
3838
FFF8
0000
0300
0300
ENDCHAR
STARTCHAR uni1E39
ENCODING 7737
SWIDTH 278 0
DWIDTH 7 0
BBX 6 23 0 -3
BITMAP
FC
FC
00
F8
38
38
38
38
38
38
38
38
38
38
38
38
38
38
38
7C
00
30
30
ENDCHAR
STARTCHAR uni1E3A
ENCODING 7738
SWIDTH 667 0
DWIDTH 16 0
BBX 14 20 1 -3
BITMAP
FE00
3800
3800
3800
3800
3800
3800
3800
3800
3800
3800
3800
3804
380C
3818
3838
FFF8
0000
0FC0
0FC0
ENDCHAR
STARTCHAR uni1E3B
ENCODING 7739
SWIDTH 278 0
DWIDTH 7 0
BBX 6 20 0 -3
BITMAP
F8
38
38
38
38
38
38
38
38
38
38
38
38
38
38
38
7C
00
FC
FC
ENDCHAR
STARTCHAR uni1E3C
ENCODING 7740
SWIDTH 667 0
DWIDTH 16 0
BBX 14 22 1 -5
BITMAP
FE00
3800
3800
3800
3800
3800
3800
3800
3800
3800
3800
3800
3804
380C
3818
3838
FFF8
0000
0300
0780
0CC0
1860
ENDCHAR
STARTCHAR uni1E3D
ENCODING 7741
SWIDTH 278 0
DWIDTH 7 0
BBX 8 22 -1 -5
BITMAP
7C
1C
1C
1C
1C
1C
1C
1C
1C
1C
1C
1C
1C
1C
1C
1C
3E
00
18
3C
66
C3
ENDCHAR
STARTCHAR uni1E3E
ENCODING 7742
SWIDTH 944 0
DWIDTH 24 0
BBX 21 22 2 0
BITMAP
001C00
003800
003000
006000
000000
F800F8
3C01E0
3C01E0
3E03E0
2E02E0
2F06E0
2704E0
270CE0
278CE0
2388E0
2398E0
21F0E0
21F0E0
20E0E0
20E0E0
2040E0
F803F8
ENDCHAR
STARTCHAR uni1E3F
ENCODING 7743
SWIDTH 833 0
DWIDTH 21 0
BBX 19 17 1 0
BITMAP
007000
00E000
00C000
018000
000000
F3C780
77DFC0
78F1C0
70E1C0
70E1C0
70E1C0
70E1C0
70E1C0
70E1C0
70E1C0
70E1C0
F9F3E0
ENDCHAR
STARTCHAR uni1E40
ENCODING 7744
SWIDTH 944 0
DWIDTH 24 0
BBX 21 20 2 0
BITMAP
003000
003000
000000
F800F8
3C01E0
3C01E0
3E03E0
2E02E0
2F06E0
2704E0
270CE0
278CE0
2388E0
2398E0
21F0E0
21F0E0
20E0E0
20E0E0
2040E0
F803F8
ENDCHAR
STARTCHAR uni1E41
ENCODING 7745
SWIDTH 833 0
DWIDTH 21 0
BBX 19 15 1 0
BITMAP
00C000
00C000
000000
F3C780
77DFC0
78F1C0
70E1C0
70E1C0
70E1C0
70E1C0
70E1C0
70E1C0
70E1C0
70E1C0
F9F3E0
ENDCHAR
STARTCHAR uni1E42
ENCODING 7746
SWIDTH 944 0
DWIDTH 24 0
BBX 21 20 2 -3
BITMAP
F800F8
3C01E0
3C01E0
3E03E0
2E02E0
2F06E0
2704E0
270CE0
278CE0
2388E0
2398E0
21F0E0
21F0E0
20E0E0
20E0E0
2040E0
F803F8
000000
003000
003000
ENDCHAR
STARTCHAR uni1E43
ENCODING 7747
SWIDTH 833 0
DWIDTH 21 0
BBX 19 15 1 -3
BITMAP
F3C780
77DFC0
78F1C0
70E1C0
70E1C0
70E1C0
70E1C0
70E1C0
70E1C0
70E1C0
70E1C0
F9F3E0
000000
006000
006000
ENDCHAR
STARTCHAR uni1E44
ENCODING 7748
SWIDTH 722 0
DWIDTH 18 0
BBX 17 20 0 0
BITMAP
018000
018000
000000
F00F80
780700
3C0200
3E0200
3F0200
2F8200
27C200
23E200
21F200
20FA00
207A00
203E00
201E00
200E00
200600
700600
F80200
ENDCHAR
STARTCHAR uni1E45
ENCODING 7749
SWIDTH 556 0
DWIDTH 14 0
BBX 12 15 1 0
BITMAP
0600
0600
0000
F3C0
77E0
78E0
70E0
70E0
70E0
70E0
70E0
70E0
70E0
70E0
F9F0
ENDCHAR
STARTCHAR uni1E46
ENCODING 7750
SWIDTH 722 0
DWIDTH 18 0
BBX 17 20 0 -3
BITMAP
F00F80
780700
3C0200
3E0200
3F0200
2F8200
27C200
23E200
21F200
20FA00
207A00
203E00
201E00
200E00
200600
700600
F80200
000000
018000
018000
ENDCHAR
STARTCHAR uni1E47
ENCODING 7751
SWIDTH 556 0
DWIDTH 14 0
BBX 12 15 1 -3
BITMAP
F3C0
77E0
78E0
70E0
70E0
70E0
70E0
70E0
70E0
70E0
70E0
F9F0
0000
0600
0600
ENDCHAR
STARTCHAR uni1E48
ENCODING 7752
SWIDTH 722 0
DWIDTH 18 0
BBX 17 20 0 -3
BITMAP
F00F80
780700
3C0200
3E0200
3F0200
2F8200
27C200
23E200
21F200
20FA00
207A00
203E00
201E00
200E00
200600
700600
F80200
000000
07E000
07E000
ENDCHAR
STARTCHAR uni1E49
ENCODING 7753
SWIDTH 556 0
DWIDTH 14 0
BBX 12 15 1 -3
BITMAP
F3C0
77E0
78E0
70E0
70E0
70E0
70E0
70E0
70E0
70E0
70E0
F9F0
0000
1F80
1F80
ENDCHAR
STARTCHAR uni1E4A
ENCODING 7754
SWIDTH 722 0
DWIDTH 18 0
BBX 17 22 0 -5
BITMAP
F00F80
780700
3C0200
3E0200
3F0200
2F8200
27C200
23E200
21F200
20FA00
207A00
203E00
201E00
200E00
200600
700600
F80200
000000
018000
03C000
066000
0C3000
ENDCHAR
STARTCHAR uni1E4B
ENCODING 7755
SWIDTH 556 0
DWIDTH 14 0
BBX 12 17 1 -5
BITMAP
F3C0
77E0
78E0
70E0
70E0
70E0
70E0
70E0
70E0
70E0
70E0
F9F0
0000
0600
0F00
1980
30C0
ENDCHAR
STARTCHAR uni1E4C
ENCODING 7756
SWIDTH 778 0
DWIDTH 19 0
BBX 16 26 1 0
BITMAP
00E0
01C0
0180
0300
0000
0188
03F0
0460
0000
07E0
1E78
381C
781E
700E
F00F
E007
E007
E007
E007
E007
F00F
700E
781E
381C
1E78
07E0
ENDCHAR
STARTCHAR uni1E4D
ENCODING 7757
SWIDTH 500 0
DWIDTH 13 0
BBX 11 22 1 0
BITMAP
0700
0E00
0C00
1800
0000
1880
3F00
4600
0000
0000
1F00
7BC0
71C0
E0E0
E0E0
E0E0
E0E0
E0E0
E0E0
71C0
7BC0
1F00
ENDCHAR
STARTCHAR uni1E4E
ENCODING 7758
SWIDTH 778 0
DWIDTH 19 0
BBX 16 24 1 0
BITMAP
0660
0660
0000
0188
03F0
0460
0000
07E0
1E78
381C
781E
700E
F00F
E007
E007
E007
E007
E007
F00F
700E
781E
381C
1E78
07E0
ENDCHAR
STARTCHAR uni1E4F
ENCODING 7759
SWIDTH 500 0
DWIDTH 13 0
BBX 11 20 1 0
BITMAP
3300
3300
0000
1880
3F00
4600
0000
0000
1F00
7BC0
71C0
E0E0
E0E0
E0E0
E0E0
E0E0
E0E0
71C0
7BC0
1F00
ENDCHAR
STARTCHAR uni1E50
ENCODING 7760
SWIDTH 778 0
DWIDTH 19 0
BBX 16 25 1 0
BITMAP
0700
0380
0180
00C0
0000
07E0
07E0
0000
07E0
1E78
381C
781E
700E
F00F
E007
E007
E007
E007
E007
F00F
700E
781E
381C
1E78
07E0
ENDCHAR
STARTCHAR uni1E51
ENCODING 7761
SWIDTH 500 0
DWIDTH 13 0
BBX 11 20 1 0
BITMAP
1C00
0E00
0600
0300
0000
1F80
1F80
0000
1F00
7BC0
71C0
E0E0
E0E0
E0E0
E0E0
E0E0
E0E0
71C0
7BC0
1F00
ENDCHAR
STARTCHAR uni1E52
ENCODING 7762
SWIDTH 778 0
DWIDTH 19 0
BBX 16 25 1 0
BITMAP
00E0
01C0
0180
0300
0000
07E0
07E0
0000
07E0
1E78
381C
781E
700E
F00F
E007
E007
E007
E007
E007
F00F
700E
781E
381C
1E78
07E0
ENDCHAR
STARTCHAR uni1E53
ENCODING 7763
SWIDTH 500 0
DWIDTH 13 0
BBX 11 20 1 0
BITMAP
0380
0700
0600
0C00
0000
1F80
1F80
0000
1F00
7BC0
71C0
E0E0
E0E0
E0E0
E0E0
E0E0
E0E0
71C0
7BC0
1F00
ENDCHAR
STARTCHAR uni1E54
ENCODING 7764
SWIDTH 611 0
DWIDTH 15 0
BBX 13 22 1 0
BITMAP
01C0
0380
0300
0600
0000
FFC0
38F0
3878
3838
3838
3838
3878
38F0
3FC0
3800
3800
3800
3800
3800
3800
3800
FE00
ENDCHAR
STARTCHAR uni1E55
ENCODING 7765
SWIDTH 556 0
DWIDTH 14 0
BBX 12 22 1 -5
BITMAP
0380
0700
0600
0C00
0000
F380
77E0
7CE0
7870
7070
7070
7070
7070
7070
78E0
77E0
7380
7000
7000
7000
7000
FC00
ENDCHAR
STARTCHAR uni1E56
ENCODING 7766
SWIDTH 611 0
DWIDTH 15 0
BBX 13 20 1 0
BITMAP
0300
0300
0000
FFC0
38F0
3878
3838
3838
3838
3878
38F0
3FC0
3800
3800
3800
3800
3800
3800
3800
FE00
ENDCHAR
STARTCHAR uni1E57
ENCODING 7767
SWIDTH 556 0
DWIDTH 14 0
BBX 12 20 1 -5
BITMAP
0600
0600
0000
F380
77E0
7CE0
7870
7070
7070
7070
7070
7070
78E0
77E0
7380
7000
7000
7000
7000
FC00
ENDCHAR
STARTCHAR uni1E58
ENCODING 7768
SWIDTH 722 0
DWIDTH 18 0
BBX 16 20 1 0
BITMAP
0180
0180
0000
FFF0
1C38
1C1C
1C1C
1C1C
1C1C
1C38
1C70
1FC0
1DE0
1CF0
1C70
1C78
1C3C
1C1C
1C1E
FF0F
ENDCHAR
STARTCHAR uni1E59
ENCODING 7769
SWIDTH 444 0
DWIDTH 11 0
BBX 10 15 1 0
BITMAP
0C00
0C00
0000
F780
79C0
73C0
7180
7000
7000
7000
7000
7000
7000
7000
FC00
ENDCHAR
STARTCHAR uni1E5A
ENCODING 7770
SWIDTH 722 0
DWIDTH 18 0
BBX 16 20 1 -3
BITMAP
FFF0
1C38
1C1C
1C1C
1C1C
1C1C
1C38
1C70
1FC0
1DE0
1CF0
1C70
1C78
1C3C
1C1C
1C1E
FF0F
0000
0180
0180
ENDCHAR
STARTCHAR uni1E5B
ENCODING 7771
SWIDTH 444 0
DWIDTH 11 0
BBX 10 15 1 -3
BITMAP
F780
79C0
73C0
7180
7000
7000
7000
7000
7000
7000
7000
FC00
0000
3000
3000
ENDCHAR
STARTCHAR uni1E5C
ENCODING 7772
SWIDTH 722 0
DWIDTH 18 0
BBX 16 23 1 -3
BITMAP
07E0
07E0
0000
FFF0
1C38
1C1C
1C1C
1C1C
1C1C
1C38
1C70
1FC0
1DE0
1CF0
1C70
1C78
1C3C
1C1C
1C1E
FF0F
0000
0180
0180
ENDCHAR
STARTCHAR uni1E5D
ENCODING 7773
SWIDTH 444 0
DWIDTH 11 0
BBX 10 18 1 -3
BITMAP
3F00
3F00
0000
F780
79C0
73C0
7180
7000
7000
7000
7000
7000
7000
7000
FC00
0000
3000
3000
ENDCHAR
STARTCHAR uni1E5E
ENCODING 7774
SWIDTH 722 0
DWIDTH 18 0
BBX 16 20 1 -3
BITMAP
FFF0
1C38
1C1C
1C1C
1C1C
1C1C
1C38
1C70
1FC0
1DE0
1CF0
1C70
1C78
1C3C
1C1C
1C1E
FF0F
0000
07E0
07E0
ENDCHAR
STARTCHAR uni1E5F
ENCODING 7775
SWIDTH 444 0
DWIDTH 11 0
BBX 10 15 1 -3
BITMAP
F780
79C0
73C0
7180
7000
7000
7000
7000
7000
7000
7000
FC00
0000
FC00
FC00
ENDCHAR
STARTCHAR uni1E60
ENCODING 7776
SWIDTH 556 0
DWIDTH 14 0
BBX 11 20 2 0
BITMAP
0C00
0C00
0000
3F40
71C0
E0C0
E040
E040
F000
FC00
7F00
1FC0
0FC0
03E0
81E0
80E0
C0E0
E0C0
F1C0
BF80
ENDCHAR
STARTCHAR uni1E61
ENCODING 7777
SWIDTH 389 0
DWIDTH 10 0
BBX 8 15 1 0
BITMAP
18
18
00
3E
66
E2
E2
F8
7C
3E
1F
87
87
C6
FC
ENDCHAR
STARTCHAR uni1E62
ENCODING 7778
SWIDTH 556 0
DWIDTH 14 0
BBX 11 20 2 -3
BITMAP
3F40
71C0
E0C0
E040
E040
F000
FC00
7F00
1FC0
0FC0
03E0
81E0
80E0
C0E0
E0C0
F1C0
BF80
0000
0C00
0C00
ENDCHAR
STARTCHAR uni1E63
ENCODING 7779
SWIDTH 389 0
DWIDTH 10 0
BBX 8 15 1 -3
BITMAP
3E
66
E2
E2
F8
7C
3E
1F
87
87
C6
FC
00
18
18
ENDCHAR
STARTCHAR uni1E64
ENCODING 7780
SWIDTH 556 0
DWIDTH 14 0
BBX 11 25 2 0
BITMAP
0600
0600
0000
0700
0E00
0C00
1800
0000
3F40
71C0
E0C0
E040
E040
F000
FC00
7F00
1FC0
0FC0
03E0
81E0
80E0
C0E0
E0C0
F1C0
BF80
ENDCHAR
STARTCHAR uni1E65
ENCODING 7781
SWIDTH 389 0
DWIDTH 10 0
BBX 8 20 1 0
BITMAP
18
18
00
0E
1C
18
30
00
3E
66
E2
E2
F8
7C
3E
1F
87
87
C6
FC
ENDCHAR
STARTCHAR uni1E66
ENCODING 7782
SWIDTH 556 0
DWIDTH 14 0
BBX 11 25 2 0
BITMAP
0C00
0C00
0000
6180
3300
1E00
0C00
0000
3F40
71C0
E0C0
E040
E040
F000
FC00
7F00
1FC0
0FC0
03E0
81E0
80E0
C0E0
E0C0
F1C0
BF80
ENDCHAR
STARTCHAR uni1E67
ENCODING 7783
SWIDTH 389 0
DWIDTH 10 0
BBX 8 20 1 0
BITMAP
18
18
00
C3
66
3C
18
00
3E
66
E2
E2
F8
7C
3E
1F
87
87
C6
FC
ENDCHAR
STARTCHAR uni1E68
ENCODING 7784
SWIDTH 556 0
DWIDTH 14 0
BBX 11 23 2 -3
BITMAP
0C00
0C00
0000
3F40
71C0
E0C0
E040
E040
F000
FC00
7F00
1FC0
0FC0
03E0
81E0
80E0
C0E0
E0C0
F1C0
BF80
0000
0C00
0C00
ENDCHAR
STARTCHAR uni1E69
ENCODING 7785
SWIDTH 389 0
DWIDTH 10 0
BBX 8 18 1 -3
BITMAP
18
18
00
3E
66
E2
E2
F8
7C
3E
1F
87
87
C6
FC
00
18
18
ENDCHAR
STARTCHAR uni1E6A
ENCODING 7786
SWIDTH 667 0
DWIDTH 16 0
BBX 15 20 0 0
BITMAP
0180
0180
0000
FFFE
E38E
C386
8382
8382
0380
0380
0380
0380
0380
0380
0380
0380
0380
0380
0380
1FF0
ENDCHAR
STARTCHAR uni1E6B
ENCODING 7787
SWIDTH 333 0
DWIDTH 8 0
BBX 8 19 0 0
BITMAP
18
18
00
08
18
38
78
FF
38
38
38
38
38
38
38
38
39
3E
1C
ENDCHAR
STARTCHAR uni1E6C
ENCODING 7788
SWIDTH 667 0
DWIDTH 16 0
BBX 15 20 0 -3
BITMAP
FFFE
E38E
C386
8382
8382
0380
0380
0380
0380
0380
0380
0380
0380
0380
0380
0380
1FF0
0000
0180
0180
ENDCHAR
STARTCHAR uni1E6D
ENCODING 7789
SWIDTH 333 0
DWIDTH 8 0
BBX 8 19 0 -3
BITMAP
08
18
38
78
FF
38
38
38
38
38
38
38
38
39
3E
1C
00
18
18
ENDCHAR
STARTCHAR uni1E6E
ENCODING 7790
SWIDTH 667 0
DWIDTH 16 0
BBX 15 20 0 -3
BITMAP
FFFE
E38E
C386
8382
8382
0380
0380
0380
0380
0380
0380
0380
0380
0380
0380
0380
1FF0
0000
07E0
07E0
ENDCHAR
STARTCHAR uni1E6F
ENCODING 7791
SWIDTH 333 0
DWIDTH 8 0
BBX 8 19 0 -3
BITMAP
08
18
38
78
FF
38
38
38
38
38
38
38
38
39
3E
1C
00
7E
7E
ENDCHAR
STARTCHAR uni1E70
ENCODING 7792
SWIDTH 667 0
DWIDTH 16 0
BBX 15 22 0 -5
BITMAP
FFFE
E38E
C386
8382
8382
0380
0380
0380
0380
0380
0380
0380
0380
0380
0380
0380
1FF0
0000
0180
03C0
0660
0C30
ENDCHAR
STARTCHAR uni1E71
ENCODING 7793
SWIDTH 333 0
DWIDTH 8 0
BBX 8 21 0 -5
BITMAP
08
18
38
78
FF
38
38
38
38
38
38
38
38
39
3E
1C
00
18
3C
66
C3
ENDCHAR
STARTCHAR uni1E72
ENCODING 7794
SWIDTH 722 0
DWIDTH 18 0
BBX 17 20 1 -3
BITMAP
FF0F80
380200
380200
380200
380200
380200
380200
380200
380200
380200
380200
380200
380200
380600
1C0400
1E0C00
0FF800
000000
066000
066000
ENDCHAR
STARTCHAR uni1E73
ENCODING 7795
SWIDTH 556 0
DWIDTH 14 0
BBX 12 15 1 -3
BITMAP
F1E0
70E0
70E0
70E0
70E0
70E0
70E0
70E0
70E0
71E0
7EF0
3CE0
0000
1980
1980
ENDCHAR
STARTCHAR uni1E74
ENCODING 7796
SWIDTH 722 0
DWIDTH 18 0
BBX 17 21 1 -4
BITMAP
FF0F80
380200
380200
380200
380200
380200
380200
380200
380200
380200
380200
380200
380200
380600
1C0400
1E0C00
0FF800
000000
031000
07E000
08C000
ENDCHAR
STARTCHAR uni1E75
ENCODING 7797
SWIDTH 556 0
DWIDTH 14 0
BBX 12 16 1 -4
BITMAP
F1E0
70E0
70E0
70E0
70E0
70E0
70E0
70E0
70E0
71E0
7EF0
3CE0
0000
0C40
1F80
2300
ENDCHAR
STARTCHAR uni1E76
ENCODING 7798
SWIDTH 722 0
DWIDTH 18 0
BBX 17 22 1 -5
BITMAP
FF0F80
380200
380200
380200
380200
380200
380200
380200
380200
380200
380200
380200
380200
380600
1C0400
1E0C00
0FF800
000000
018000
03C000
066000
0C3000
ENDCHAR
STARTCHAR uni1E77
ENCODING 7799
SWIDTH 556 0
DWIDTH 14 0
BBX 12 17 1 -5
BITMAP
F1E0
70E0
70E0
70E0
70E0
70E0
70E0
70E0
70E0
71E0
7EF0
3CE0
0000
0600
0F00
1980
30C0
ENDCHAR
STARTCHAR uni1E78
ENCODING 7800
SWIDTH 722 0
DWIDTH 18 0
BBX 17 26 1 0
BITMAP
00E000
01C000
018000
030000
000000
031000
07E000
08C000
000000
FF0F80
380200
380200
380200
380200
380200
380200
380200
380200
380200
380200
380200
380200
380600
1C0400
1E0C00
0FF800
ENDCHAR
STARTCHAR uni1E79
ENCODING 7801
SWIDTH 556 0
DWIDTH 14 0
BBX 12 21 1 0
BITMAP
0380
0700
0600
0C00
0000
0C40
1F80
2300
0000
F1E0
70E0
70E0
70E0
70E0
70E0
70E0
70E0
70E0
71E0
7EF0
3CE0
ENDCHAR
STARTCHAR uni1E7A
ENCODING 7802
SWIDTH 722 0
DWIDTH 18 0
BBX 17 23 1 0
BITMAP
066000
066000
000000
07E000
07E000
000000
FF0F80
380200
380200
380200
380200
380200
380200
380200
380200
380200
380200
380200
380200
380600
1C0400
1E0C00
0FF800
ENDCHAR
STARTCHAR uni1E7B
ENCODING 7803
SWIDTH 556 0
DWIDTH 14 0
BBX 12 18 1 0
BITMAP
1980
1980
0000
1F80
1F80
0000
F1E0
70E0
70E0
70E0
70E0
70E0
70E0
70E0
70E0
71E0
7EF0
3CE0
ENDCHAR
STARTCHAR uni1E7C
ENCODING 7804
SWIDTH 722 0
DWIDTH 18 0
BBX 17 21 1 0
BITMAP
031000
07E000
08C000
000000
FF1F80
3C0600
3C0400
1C0400
1E0C00
0E0800
0E0800
0F1800
071000
071000
03B000
03A000
03E000
01C000
01C000
008000
008000
ENDCHAR
STARTCHAR uni1E7D
ENCODING 7805
SWIDTH 500 0
DWIDTH 12 0
BBX 12 16 0 0
BITMAP
0C40
1F80
2300
0000
FCF0
7860
7840
38C0
3C80
1D80
1D00
1F00
0F00
0E00
0600
0600
ENDCHAR
STARTCHAR uni1E7E
ENCODING 7806
SWIDTH 722 0
DWIDTH 18 0
BBX 17 20 1 -3
BITMAP
FF1F80
3C0600
3C0400
1C0400
1E0C00
0E0800
0E0800
0F1800
071000
071000
03B000
03A000
03E000
01C000
01C000
008000
008000
000000
00C000
00C000
ENDCHAR
STARTCHAR uni1E7F
ENCODING 7807
SWIDTH 500 0
DWIDTH 12 0
BBX 12 15 0 -3
BITMAP
FCF0
7860
7840
38C0
3C80
1D80
1D00
1F00
0F00
0E00
0600
0600
0000
0600
0600
ENDCHAR
STARTCHAR Wgrave
ENCODING 7808
SWIDTH 1000 0
DWIDTH 25 0
BBX 25 22 1 0
BITMAP
00700000
00380000
00180000
000C0000
00000000
FF7F9F80
3C1E0600
3C0E0400
1C0E0C00
1E1E0800
1E1F1800
0E171800
0E371000
0F271000
0763B000
0743A000
07C3E000
03C1E000
0381C000
0381C000
01008000
01008000
ENDCHAR
STARTCHAR wgrave
ENCODING 7809
SWIDTH 722 0
DWIDTH 18 0
BBX 17 17 0 0
BITMAP
070000
038000
018000
00C000
000000
FDF780
78E300
38E300
38E200
38E600
1CF600
1D7400
1F3C00
0F3C00
0E3800
061800
061800
ENDCHAR
STARTCHAR Wacute
ENCODING 7810
SWIDTH 1000 0
DWIDTH 25 0
BBX 25 22 1 0
BITMAP
000E0000
001C0000
00180000
00300000
00000000
FF7F9F80
3C1E0600
3C0E0400
1C0E0C00
1E1E0800
1E1F1800
0E171800
0E371000
0F271000
0763B000
0743A000
07C3E000
03C1E000
0381C000
0381C000
01008000
01008000
ENDCHAR
STARTCHAR wacute
ENCODING 7811
SWIDTH 722 0
DWIDTH 18 0
BBX 17 17 0 0
BITMAP
00E000
01C000
018000
030000
000000
FDF780
78E300
38E300
38E200
38E600
1CF600
1D7400
1F3C00
0F3C00
0E3800
061800
061800
ENDCHAR
STARTCHAR Wdieresis
ENCODING 7812
SWIDTH 1000 0
DWIDTH 25 0
BBX 25 20 1 0
BITMAP
00660000
00660000
00000000
FF7F9F80
3C1E0600
3C0E0400
1C0E0C00
1E1E0800
1E1F1800
0E171800
0E371000
0F271000
0763B000
0743A000
07C3E000
03C1E000
0381C000
0381C000
01008000
01008000
ENDCHAR
STARTCHAR wdieresis
ENCODING 7813
SWIDTH 722 0
DWIDTH 18 0
BBX 17 15 0 0
BITMAP
066000
066000
000000
FDF780
78E300
38E300
38E200
38E600
1CF600
1D7400
1F3C00
0F3C00
0E3800
061800
061800
ENDCHAR
STARTCHAR uni1E86
ENCODING 7814
SWIDTH 1000 0
DWIDTH 25 0
BBX 25 20 1 0
BITMAP
00180000
00180000
00000000
FF7F9F80
3C1E0600
3C0E0400
1C0E0C00
1E1E0800
1E1F1800
0E171800
0E371000
0F271000
0763B000
0743A000
07C3E000
03C1E000
0381C000
0381C000
01008000
01008000
ENDCHAR
STARTCHAR uni1E87
ENCODING 7815
SWIDTH 722 0
DWIDTH 18 0
BBX 17 15 0 0
BITMAP
018000
018000
000000
FDF780
78E300
38E300
38E200
38E600
1CF600
1D7400
1F3C00
0F3C00
0E3800
061800
061800
ENDCHAR
STARTCHAR uni1E88
ENCODING 7816
SWIDTH 1000 0
DWIDTH 25 0
BBX 25 20 1 -3
BITMAP
FF7F9F80
3C1E0600
3C0E0400
1C0E0C00
1E1E0800
1E1F1800
0E171800
0E371000
0F271000
0763B000
0743A000
07C3E000
03C1E000
0381C000
0381C000
01008000
01008000
00000000
00180000
00180000
ENDCHAR
STARTCHAR uni1E89
ENCODING 7817
SWIDTH 722 0
DWIDTH 18 0
BBX 17 15 0 -3
BITMAP
FDF780
78E300
38E300
38E200
38E600
1CF600
1D7400
1F3C00
0F3C00
0E3800
061800
061800
000000
00C000
00C000
ENDCHAR
STARTCHAR uni1E8A
ENCODING 7818
SWIDTH 722 0
DWIDTH 18 0
BBX 16 20 1 0
BITMAP
0180
0180
0000
FF3F
3C0C
1C08
1E18
0E30
0720
07E0
03C0
03C0
03E0
03F0
0670
0C78
0C3C
183C
381E
FCFF
ENDCHAR
STARTCHAR uni1E8B
ENCODING 7819
SWIDTH 500 0
DWIDTH 12 0
BBX 12 15 0 0
BITMAP
0600
0600
0000
FCF0
7860
3CC0
1D80
1F00
0F00
0F00
1F80
1BC0
31C0
61E0
F3F0
ENDCHAR
STARTCHAR uni1E8C
ENCODING 7820
SWIDTH 722 0
DWIDTH 18 0
BBX 16 20 1 0
BITMAP
0660
0660
0000
FF3F
3C0C
1C08
1E18
0E30
0720
07E0
03C0
03C0
03E0
03F0
0670
0C78
0C3C
183C
381E
FCFF
ENDCHAR
STARTCHAR uni1E8D
ENCODING 7821
SWIDTH 500 0
DWIDTH 12 0
BBX 12 15 0 0
BITMAP
1980
1980
0000
FCF0
7860
3CC0
1D80
1F00
0F00
0F00
1F80
1BC0
31C0
61E0
F3F0
ENDCHAR
STARTCHAR uni1E8E
ENCODING 7822
SWIDTH 722 0
DWIDTH 18 0
BBX 17 20 1 0
BITMAP
018000
018000
000000
FF3F80
3C0F00
3C0C00
1E0C00
0E1800
0F1800
073000
03A000
03E000
01C000
01C000
01C000
01C000
01C000
01C000
01C000
07F000
ENDCHAR
STARTCHAR uni1E8F
ENCODING 7823
SWIDTH 500 0
DWIDTH 12 0
BBX 12 20 0 -5
BITMAP
0600
0600
0000
FDF0
7860
3840
38C0
3C80
1C80
1D80
1F00
0F00
0F00
0600
0600
0600
6400
EC00
F800
7000
ENDCHAR
STARTCHAR uni1E90
ENCODING 7824
SWIDTH 667 0
DWIDTH 17 0
BBX 14 22 2 0
BITMAP
0300
0780
0CC0
1860
0000
FFF8
E078
C0F0
C0F0
81E0
03C0
03C0
0780
0F80
0F00
1E00
3E04
3C04
780C
781C
F038
FFF8
ENDCHAR
STARTCHAR uni1E91
ENCODING 7825
SWIDTH 444 0
DWIDTH 11 0
BBX 9 17 1 0
BITMAP
0C00
1E00
3300
6180
0000
FF80
C700
8F00
8E00
1E00
1C00
3C00
3800
7880
7180
F180
FF80
ENDCHAR
STARTCHAR uni1E92
ENCODING 7826
SWIDTH 667 0
DWIDTH 17 0
BBX 14 20 2 -3
BITMAP
FFF8
E078
C0F0
C0F0
81E0
03C0
03C0
0780
0F80
0F00
1E00
3E04
3C04
780C
781C
F038
FFF8
0000
0300
0300
ENDCHAR
STARTCHAR uni1E93
ENCODING 7827
SWIDTH 444 0
DWIDTH 11 0
BBX 9 15 1 -3
BITMAP
FF80
C700
8F00
8E00
1E00
1C00
3C00
3800
7880
7180
F180
FF80
0000
1800
1800
ENDCHAR
STARTCHAR uni1E94
ENCODING 7828
SWIDTH 667 0
DWIDTH 17 0
BBX 14 20 2 -3
BITMAP
FFF8
E078
C0F0
C0F0
81E0
03C0
03C0
0780
0F80
0F00
1E00
3E04
3C04
780C
781C
F038
FFF8
0000
0FC0
0FC0
ENDCHAR
STARTCHAR uni1E95
ENCODING 7829
SWIDTH 444 0
DWIDTH 11 0
BBX 9 15 1 -3
BITMAP
FF80
C700
8F00
8E00
1E00
1C00
3C00
3800
7880
7180
F180
FF80
0000
7E00
7E00
ENDCHAR
STARTCHAR uni1E96
ENCODING 7830
SWIDTH 556 0
DWIDTH 14 0
BBX 13 20 0 -3
BITMAP
F800
3800
3800
3800
3800
39E0
3FF0
3C70
3870
3870
3870
3870
3870
3870
3870
3870
7CF8
0000
0FC0
0FC0
ENDCHAR
STARTCHAR uni1E97
ENCODING 7831
SWIDTH 333 0
DWIDTH 8 0
BBX 8 19 0 0
BITMAP
66
66
00
08
18
38
78
FF
38
38
38
38
38
38
38
38
39
3E
1C
ENDCHAR
STARTCHAR uni1E98
ENCODING 7832
SWIDTH 722 0
DWIDTH 18 0
BBX 17 17 0 0
BITMAP
01C000
022000
022000
01C000
000000
FDF780
78E300
38E300
38E200
38E600
1CF600
1D7400
1F3C00
0F3C00
0E3800
061800
061800
ENDCHAR
STARTCHAR uni1E99
ENCODING 7833
SWIDTH 500 0
DWIDTH 12 0
BBX 12 22 0 -5
BITMAP
0E00
1100
1100
0E00
0000
FDF0
7860
3840
38C0
3C80
1C80
1D80
1F00
0F00
0F00
0600
0600
0600
6400
EC00
F800
7000
ENDCHAR
STARTCHAR uni1EA0
ENCODING 7840
SWIDTH 722 0
DWIDTH 18 0
BBX 17 20 0 -3
BITMAP
018000
01C000
03C000
03E000
02E000
06E000
067000
047000
0C7000
083800
083800
1FF800
103C00
301C00
301E00
701E00
F87F80
000000
00C000
00C000
ENDCHAR
STARTCHAR uni1EA1
ENCODING 7841
SWIDTH 500 0
DWIDTH 12 0
BBX 10 15 1 -3
BITMAP
3E00
6700
E380
E380
4380
0F80
7380
E380
E380
E780
FFC0
7180
0000
0C00
0C00
ENDCHAR
STARTCHAR uni1EA4
ENCODING 7844
SWIDTH 722 0
DWIDTH 18 0
BBX 17 26 0 0
BITMAP
00E000
01C000
018000
030000
000000
018000
03C000
066000
0C3000
018000
01C000
03C000
03E000
02E000
06E000
067000
047000
0C7000
083800
083800
1FF800
103C00
301C00
301E00
701E00
F87F80
ENDCHAR
STARTCHAR uni1EA5
ENCODING 7845
SWIDTH 500 0
DWIDTH 12 0
BBX 10 22 1 0
BITMAP
0700
0E00
0C00
1800
0000
0C00
1E00
3300
6180
0000
3E00
7700
E380
E380
4380
0F80
7380
E380
E380
E780
FFC0
7180
ENDCHAR
STARTCHAR uni1EA6
ENCODING 7846
SWIDTH 722 0
DWIDTH 18 0
BBX 17 26 0 0
BITMAP
070000
038000
018000
00C000
000000
018000
03C000
066000
0C3000
018000
01C000
03C000
03E000
02E000
06E000
067000
047000
0C7000
083800
083800
1FF800
103C00
301C00
301E00
701E00
F87F80
ENDCHAR
STARTCHAR uni1EA7
ENCODING 7847
SWIDTH 500 0
DWIDTH 12 0
BBX 10 22 1 0
BITMAP
3800
1C00
0C00
0600
0000
0C00
1E00
3300
6180
0000
3E00
7700
E380
E380
4380
0F80
7380
E380
E380
E780
FFC0
7180
ENDCHAR
STARTCHAR uni1EAA
ENCODING 7850
SWIDTH 722 0
DWIDTH 18 0
BBX 17 25 0 0
BITMAP
018800
03F000
046000
000000
018000
03C000
066000
0C3000
018000
01C000
03C000
03E000
02E000
06E000
067000
047000
0C7000
083800
083800
1FF800
103C00
301C00
301E00
701E00
F87F80
ENDCHAR
STARTCHAR uni1EAB
ENCODING 7851
SWIDTH 500 0
DWIDTH 12 0
BBX 10 21 1 0
BITMAP
1880
3F00
4600
0000
0C00
1E00
3300
6180
0000
3E00
7700
E380
E380
4380
0F80
7380
E380
E380
E780
FFC0
7180
ENDCHAR
STARTCHAR uni1EAC
ENCODING 7852
SWIDTH 722 0
DWIDTH 18 0
BBX 17 25 0 -3
BITMAP
018000
03C000
066000
0C3000
000000
018000
01C000
03C000
03E000
02E000
06E000
067000
047000
0C7000
083800
083800
1FF800
103C00
301C00
301E00
701E00
F87F80
000000
00C000
00C000
ENDCHAR
STARTCHAR uni1EAD
ENCODING 7853
SWIDTH 500 0
DWIDTH 12 0
BBX 10 20 1 -3
BITMAP
0C00
1E00
3300
6180
0000
3E00
6700
E380
E380
4380
0F80
7380
E380
E380
E780
FFC0
7180
0000
0C00
0C00
ENDCHAR
STARTCHAR uni1EAE
ENCODING 7854
SWIDTH 722 0
DWIDTH 18 0
BBX 17 27 0 0
BITMAP
00E000
01C000
018000
030000
000000
042000
042000
07E000
03C000
000000
018000
01C000
03C000
03E000
02E000
06E000
067000
047000
0C7000
083800
083800
1FF800
103C00
301C00
301E00
701E00
F87F80
ENDCHAR
STARTCHAR uni1EAF
ENCODING 7855
SWIDTH 500 0
DWIDTH 12 0
BBX 10 22 1 0
BITMAP
0700
0E00
0C00
1800
0000
2100
2100
3F00
1E00
0000
3E00
6700
E380
E380
4380
0F80
7380
E380
E380
E780
FFC0
7180
ENDCHAR
STARTCHAR uni1EB0
ENCODING 7856
SWIDTH 722 0
DWIDTH 18 0
BBX 17 27 0 0
BITMAP
070000
038000
018000
00C000
000000
042000
042000
07E000
03C000
000000
018000
01C000
03C000
03E000
02E000
06E000
067000
047000
0C7000
083800
083800
1FF800
103C00
301C00
301E00
701E00
F87F80
ENDCHAR
STARTCHAR uni1EB1
ENCODING 7857
SWIDTH 500 0
DWIDTH 12 0
BBX 10 22 1 0
BITMAP
3800
1C00
0C00
0600
0000
2100
2100
3F00
1E00
0000
3E00
6700
E380
E380
4380
0F80
7380
E380
E380
E780
FFC0
7180
ENDCHAR
STARTCHAR uni1EB4
ENCODING 7860
SWIDTH 722 0
DWIDTH 18 0
BBX 17 26 0 0
BITMAP
018800
03F000
046000
000000
042000
042000
07E000
03C000
000000
018000
01C000
03C000
03E000
02E000
06E000
067000
047000
0C7000
083800
083800
1FF800
103C00
301C00
301E00
701E00
F87F80
ENDCHAR
STARTCHAR uni1EB5
ENCODING 7861
SWIDTH 500 0
DWIDTH 12 0
BBX 10 21 1 0
BITMAP
1880
3F00
4600
0000
2100
2100
3F00
1E00
0000
3E00
6700
E380
E380
4380
0F80
7380
E380
E380
E780
FFC0
7180
ENDCHAR
STARTCHAR uni1EB6
ENCODING 7862
SWIDTH 722 0
DWIDTH 18 0
BBX 17 25 0 -3
BITMAP
042000
042000
07E000
03C000
000000
018000
01C000
03C000
03E000
02E000
06E000
067000
047000
0C7000
083800
083800
1FF800
103C00
301C00
301E00
701E00
F87F80
000000
00C000
00C000
ENDCHAR
STARTCHAR uni1EB7
ENCODING 7863
SWIDTH 500 0
DWIDTH 12 0
BBX 10 20 1 -3
BITMAP
2100
2100
3F00
1E00
0000
3E00
6700
E380
E380
4380
0F80
7380
E380
E380
E780
FFC0
7180
0000
0C00
0C00
ENDCHAR
STARTCHAR uni1EB8
ENCODING 7864
SWIDTH 667 0
DWIDTH 17 0
BBX 15 20 1 -3
BITMAP
FFFC
1E1C
1C0C
1C04
1C24
1C20
1C60
1CE0
1FE0
1CE0
1C60
1C20
1C22
1C06
1C0C
1E1C
FFFC
0000
0180
0180
ENDCHAR
STARTCHAR uni1EB9
ENCODING 7865
SWIDTH 444 0
DWIDTH 11 0
BBX 10 15 1 -3
BITMAP
1F00
7380
6380
E1C0
E1C0
FFC0
E000
E000
F000
7880
7F00
1E00
0000
1800
1800
ENDCHAR
STARTCHAR uni1EBC
ENCODING 7868
SWIDTH 667 0
DWIDTH 17 0
BBX 15 21 1 0
BITMAP
0310
07E0
08C0
0000
FFFC
1E1C
1C0C
1C04
1C24
1C20
1C60
1CE0
1FE0
1CE0
1C60
1C20
1C22
1C06
1C0C
1E1C
FFFC
ENDCHAR
STARTCHAR uni1EBD
ENCODING 7869
SWIDTH 444 0
DWIDTH 11 0
BBX 10 16 1 0
BITMAP
1880
3F00
4600
0000
1F00
7380
6380
E1C0
E1C0
FFC0
E000
E000
F000
7880
7F00
1E00
ENDCHAR
STARTCHAR uni1EBE
ENCODING 7870
SWIDTH 667 0
DWIDTH 17 0
BBX 15 27 1 0
BITMAP
00E0
01C0
0180
0300
0000
0180
03C0
0660
0C30
0000
FFFC
1E1C
1C0C
1C04
1C24
1C20
1C60
1CE0
1FE0
1CE0
1C60
1C20
1C22
1C06
1C0C
1E1C
FFFC
ENDCHAR
STARTCHAR uni1EBF
ENCODING 7871
SWIDTH 444 0
DWIDTH 11 0
BBX 9 22 1 0
BITMAP
0700
0E00
0C00
1800
0000
0C00
1E00
3300
6180
0000
1E00
7300
7380
E380
E380
FF80
E000
E000
F000
7880
7F00
1E00
ENDCHAR
STARTCHAR uni1EC0
ENCODING 7872
SWIDTH 667 0
DWIDTH 17 0
BBX 15 27 1 0
BITMAP
0E00
0700
0300
0180
0000
0180
03C0
0660
0C30
0000
FFFC
1E1C
1C0C
1C04
1C24
1C20
1C60
1CE0
1FE0
1CE0
1C60
1C20
1C22
1C06
1C0C
1E1C
FFFC
ENDCHAR
STARTCHAR uni1EC1
ENCODING 7873
SWIDTH 444 0
DWIDTH 11 0
BBX 9 22 1 0
BITMAP
3800
1C00
0C00
0600
0000
0C00
1E00
3300
6180
0000
1E00
7300
7380
E380
E380
FF80
E000
E000
F000
7880
7F00
1E00
ENDCHAR
STARTCHAR uni1EC4
ENCODING 7876
SWIDTH 667 0
DWIDTH 17 0
BBX 15 26 1 0
BITMAP
0310
07E0
08C0
0000
0180
03C0
0660
0C30
0000
FFFC
1E1C
1C0C
1C04
1C24
1C20
1C60
1CE0
1FE0
1CE0
1C60
1C20
1C22
1C06
1C0C
1E1C
FFFC
ENDCHAR
STARTCHAR uni1EC5
ENCODING 7877
SWIDTH 444 0
DWIDTH 11 0
BBX 9 21 1 0
BITMAP
1880
3F00
4600
0000
0C00
1E00
3300
6180
0000
1E00
7300
7380
E380
E380
FF80
E000
E000
F000
7880
7F00
1E00
ENDCHAR
STARTCHAR uni1EC6
ENCODING 7878
SWIDTH 667 0
DWIDTH 17 0
BBX 15 25 1 -3
BITMAP
0300
0780
0CC0
1860
0000
FFFC
1E1C
1C0C
1C04
1C24
1C20
1C60
1CE0
1FE0
1CE0
1C60
1C20
1C22
1C06
1C0C
1E1C
FFFC
0000
0180
0180
ENDCHAR
STARTCHAR uni1EC7
ENCODING 7879
SWIDTH 444 0
DWIDTH 11 0
BBX 10 20 1 -3
BITMAP
0C00
1E00
3300
6180
0000
1F00
7380
6380
E1C0
E1C0
FFC0
E000
E000
F000
7880
7F00
1E00
0000
1800
1800
ENDCHAR
STARTCHAR uni1ECA
ENCODING 7882
SWIDTH 389 0
DWIDTH 10 0
BBX 7 20 2 -3
BITMAP
FE
38
38
38
38
38
38
38
38
38
38
38
38
38
38
38
FE
00
18
18
ENDCHAR
STARTCHAR uni1ECB
ENCODING 7883
SWIDTH 278 0
DWIDTH 7 0
BBX 5 20 1 -3
BITMAP
70
70
70
00
00
F0
70
70
70
70
70
70
70
70
70
70
F8
00
30
30
ENDCHAR
STARTCHAR uni1ECC
ENCODING 7884
SWIDTH 778 0
DWIDTH 19 0
BBX 16 20 1 -3
BITMAP
07E0
1E78
381C
781E
700E
F00F
E007
E007
E007
E007
E007
F00F
700E
781E
381C
1E78
07E0
0000
0180
0180
ENDCHAR
STARTCHAR uni1ECD
ENCODING 7885
SWIDTH 500 0
DWIDTH 13 0
BBX 11 15 1 -3
BITMAP
1F00
7BC0
71C0
E0E0
E0E0
E0E0
E0E0
E0E0
E0E0
71C0
7BC0
1F00
0000
0600
0600
ENDCHAR
STARTCHAR uni1ED0
ENCODING 7888
SWIDTH 778 0
DWIDTH 19 0
BBX 16 27 1 0
BITMAP
0070
00E0
00C0
0180
0000
00C0
01E0
0330
0618
0000
07E0
1E78
381C
781E
700E
F00F
E007
E007
E007
E007
E007
F00F
700E
781E
381C
1E78
07E0
ENDCHAR
STARTCHAR uni1ED1
ENCODING 7889
SWIDTH 500 0
DWIDTH 13 0
BBX 11 22 1 0
BITMAP
0700
0E00
0C00
1800
0000
0C00
1E00
3300
6180
0000
1F00
7BC0
71C0
E0E0
E0E0
E0E0
E0E0
E0E0
E0E0
71C0
7BC0
1F00
ENDCHAR
STARTCHAR uni1ED2
ENCODING 7890
SWIDTH 778 0
DWIDTH 19 0
BBX 16 27 1 0
BITMAP
0700
0380
0180
00C0
0000
00C0
01E0
0330
0618
0000
07E0
1E78
381C
781E
700E
F00F
E007
E007
E007
E007
E007
F00F
700E
781E
381C
1E78
07E0
ENDCHAR
STARTCHAR uni1ED3
ENCODING 7891
SWIDTH 500 0
DWIDTH 13 0
BBX 11 22 1 0
BITMAP
3800
1C00
0C00
0600
0000
0C00
1E00
3300
6180
0000
1F00
7BC0
71C0
E0E0
E0E0
E0E0
E0E0
E0E0
E0E0
71C0
7BC0
1F00
ENDCHAR
STARTCHAR uni1ED6
ENCODING 7894
SWIDTH 778 0
DWIDTH 19 0
BBX 16 26 1 0
BITMAP
0188
03F0
0460
0000
00C0
01E0
0330
0618
0000
07E0
1E78
381C
781E
700E
F00F
E007
E007
E007
E007
E007
F00F
700E
781E
381C
1E78
07E0
ENDCHAR
STARTCHAR uni1ED7
ENCODING 7895
SWIDTH 500 0
DWIDTH 13 0
BBX 11 21 1 0
BITMAP
0C40
1F80
2300
0000
0C00
1E00
3300
6180
0000
1F00
7BC0
71C0
E0E0
E0E0
E0E0
E0E0
E0E0
E0E0
71C0
7BC0
1F00
ENDCHAR
STARTCHAR uni1ED8
ENCODING 7896
SWIDTH 778 0
DWIDTH 19 0
BBX 16 25 1 -3
BITMAP
0180
03C0
0660
0C30
0000
07E0
1E78
381C
781E
700E
F00F
E007
E007
E007
E007
E007
F00F
700E
781E
381C
1E78
07E0
0000
0180
0180
ENDCHAR
STARTCHAR uni1ED9
ENCODING 7897
SWIDTH 500 0
DWIDTH 13 0
BBX 11 20 1 -3
BITMAP
0600
0F00
1980
30C0
0000
1F00
7BC0
71C0
E0E0
E0E0
E0E0
E0E0
E0E0
E0E0
71C0
7BC0
1F00
0000
0600
0600
ENDCHAR
STARTCHAR uni1EDA
ENCODING 7898
SWIDTH 778 0
DWIDTH 19 0
BBX 19 22 1 0
BITMAP
001C00
003800
003000
006000
000000
07E0C0
1E79E0
381DE0
781EE0
700E60
F00FC0
E007C0
E00780
E00700
E00700
E00700
F00F00
700E00
781E00
381C00
1E7800
07E000
ENDCHAR
STARTCHAR uni1EDB
ENCODING 7899
SWIDTH 500 0
DWIDTH 13 0
BBX 14 17 1 0
BITMAP
00E0
01C0
0180
0300
0000
1F18
7BFC
71FC
E0FC
E0EC
E0F8
E0F8
E0F0
E0E0
71C0
7BC0
1F00
ENDCHAR
STARTCHAR uni1EDC
ENCODING 7900
SWIDTH 778 0
DWIDTH 19 0
BBX 19 22 1 0
BITMAP
01C000
00E000
006000
003000
000000
07E0C0
1E79E0
381DE0
781EE0
700E60
F00FC0
E007C0
E00780
E00700
E00700
E00700
F00F00
700E00
781E00
381C00
1E7800
07E000
ENDCHAR
STARTCHAR uni1EDD
ENCODING 7901
SWIDTH 500 0
DWIDTH 13 0
BBX 14 17 1 0
BITMAP
0E00
0700
0300
0180
0000
1F18
7BFC
71FC
E0FC
E0EC
E0F8
E0F8
E0F0
E0E0
71C0
7BC0
1F00
ENDCHAR
STARTCHAR uni1EE0
ENCODING 7904
SWIDTH 778 0
DWIDTH 19 0
BBX 19 21 1 0
BITMAP
006200
00FC00
011800
000000
07E0C0
1E79E0
381DE0
781EE0
700E60
F00FC0
E007C0
E00780
E00700
E00700
E00700
F00F00
700E00
781E00
381C00
1E7800
07E000
ENDCHAR
STARTCHAR uni1EE1
ENCODING 7905
SWIDTH 500 0
DWIDTH 13 0
BBX 14 16 1 0
BITMAP
0310
07E0
08C0
0000
1F18
7BFC
71FC
E0FC
E0EC
E0F8
E0F8
E0F0
E0E0
71C0
7BC0
1F00
ENDCHAR
STARTCHAR uni1EE2
ENCODING 7906
SWIDTH 778 0
DWIDTH 19 0
BBX 19 20 1 -3
BITMAP
07E0C0
1E79E0
381DE0
781EE0
700E60
F00FC0
E007C0
E00780
E00700
E00700
E00700
F00F00
700E00
781E00
381C00
1E7800
07E000
000000
00C000
00C000
ENDCHAR
STARTCHAR uni1EE3
ENCODING 7907
SWIDTH 500 0
DWIDTH 13 0
BBX 14 15 1 -3
BITMAP
1F18
7BFC
71FC
E0FC
E0EC
E0F8
E0F8
E0F0
E0E0
71C0
7BC0
1F00
0000
0600
0600
ENDCHAR
STARTCHAR uni1EE4
ENCODING 7908
SWIDTH 722 0
DWIDTH 18 0
BBX 17 20 1 -3
BITMAP
FF0F80
380200
380200
380200
380200
380200
380200
380200
380200
380200
380200
380200
380200
380600
1C0400
1E0C00
0FF800
000000
018000
018000
ENDCHAR
STARTCHAR uni1EE5
ENCODING 7909
SWIDTH 556 0
DWIDTH 14 0
BBX 12 15 1 -3
BITMAP
F1E0
70E0
70E0
70E0
70E0
70E0
70E0
70E0
70E0
71E0
7EF0
3CE0
0000
0600
0600
ENDCHAR
STARTCHAR uni1EE8
ENCODING 7912
SWIDTH 722 0
DWIDTH 18 0
BBX 19 22 1 0
BITMAP
003800
007000
006000
00C000
000000
FF0FC0
3803E0
3803E0
3802E0
380260
3802C0
3802C0
380380
380300
380200
380200
380200
380200
380600
1C0400
1E0C00
0FF800
ENDCHAR
STARTCHAR uni1EE9
ENCODING 7913
SWIDTH 556 0
DWIDTH 14 0
BBX 15 17 1 0
BITMAP
00E0
01C0
0180
0300
0000
F1EC
70FE
70FE
70EE
70E6
70EC
70EC
70F8
70F0
71E0
7EF0
3CE0
ENDCHAR
STARTCHAR uni1EEA
ENCODING 7914
SWIDTH 722 0
DWIDTH 18 0
BBX 19 22 1 0
BITMAP
01C000
00E000
006000
003000
000000
FF0FC0
3803E0
3803E0
3802E0
380260
3802C0
3802C0
380380
380300
380200
380200
380200
380200
380600
1C0400
1E0C00
0FF800
ENDCHAR
STARTCHAR uni1EEB
ENCODING 7915
SWIDTH 556 0
DWIDTH 14 0
BBX 15 17 1 0
BITMAP
0700
0380
0180
00C0
0000
F1EC
70FE
70FE
70EE
70E6
70EC
70EC
70F8
70F0
71E0
7EF0
3CE0
ENDCHAR
STARTCHAR uni1EEE
ENCODING 7918
SWIDTH 722 0
DWIDTH 18 0
BBX 19 21 1 0
BITMAP
00C400
01F800
023000
000000
FF0FC0
3803E0
3803E0
3802E0
380260
3802C0
3802C0
380380
380300
380200
380200
380200
380200
380600
1C0400
1E0C00
0FF800
ENDCHAR
STARTCHAR uni1EEF
ENCODING 7919
SWIDTH 556 0
DWIDTH 14 0
BBX 15 16 1 0
BITMAP
0310
07E0
08C0
0000
F1EC
70FE
70FE
70EE
70E6
70EC
70EC
70F8
70F0
71E0
7EF0
3CE0
ENDCHAR
STARTCHAR uni1EF0
ENCODING 7920
SWIDTH 722 0
DWIDTH 18 0
BBX 19 20 1 -3
BITMAP
FF0FC0
3803E0
3803E0
3802E0
380260
3802C0
3802C0
380380
380300
380200
380200
380200
380200
380600
1C0400
1E0C00
0FF800
000000
018000
018000
ENDCHAR
STARTCHAR uni1EF1
ENCODING 7921
SWIDTH 556 0
DWIDTH 14 0
BBX 15 15 1 -3
BITMAP
F1EC
70FE
70FE
70EE
70E6
70EC
70EC
70F8
70F0
71E0
7EF0
3CE0
0000
0300
0300
ENDCHAR
STARTCHAR Ygrave
ENCODING 7922
SWIDTH 722 0
DWIDTH 18 0
BBX 17 22 1 0
BITMAP
070000
038000
018000
00C000
000000
FF3F80
3C0F00
3C0C00
1E0C00
0E1800
0F1800
073000
03A000
03E000
01C000
01C000
01C000
01C000
01C000
01C000
01C000
07F000
ENDCHAR
STARTCHAR ygrave
ENCODING 7923
SWIDTH 500 0
DWIDTH 12 0
BBX 12 22 0 -5
BITMAP
1C00
0E00
0600
0300
0000
FDF0
7860
3840
38C0
3C80
1C80
1D80
1F00
0F00
0F00
0600
0600
0600
6400
EC00
F800
7000
ENDCHAR
STARTCHAR uni1EF4
ENCODING 7924
SWIDTH 722 0
DWIDTH 18 0
BBX 17 20 1 -3
BITMAP
FF3F80
3C0F00
3C0C00
1E0C00
0E1800
0F1800
073000
03A000
03E000
01C000
01C000
01C000
01C000
01C000
01C000
01C000
07F000
000000
00C000
00C000
ENDCHAR
STARTCHAR uni1EF5
ENCODING 7925
SWIDTH 500 0
DWIDTH 12 0
BBX 12 20 0 -8
BITMAP
FDF0
7860
3840
38C0
3C80
1C80
1D80
1F00
0F00
0F00
0600
0600
0600
6400
EC00
F800
7000
0000
1800
1800
ENDCHAR
STARTCHAR uni1EF8
ENCODING 7928
SWIDTH 722 0
DWIDTH 18 0
BBX 17 21 1 0
BITMAP
018800
03F000
046000
000000
FF3F80
3C0F00
3C0C00
1E0C00
0E1800
0F1800
073000
03A000
03E000
01C000
01C000
01C000
01C000
01C000
01C000
01C000
07F000
ENDCHAR
STARTCHAR uni1EF9
ENCODING 7929
SWIDTH 500 0
DWIDTH 12 0
BBX 12 21 0 -5
BITMAP
0C40
1F80
2300
0000
FDF0
7860
3840
38C0
3C80
1C80
1D80
1F00
0F00
0F00
0600
0600
0600
6400
EC00
F800
7000
ENDCHAR
STARTCHAR uni2000
ENCODING 8192
SWIDTH 500 0
DWIDTH 13 0
BBX 1 1 0 0
BITMAP
00
ENDCHAR
STARTCHAR uni2001
ENCODING 8193
SWIDTH 1000 0
DWIDTH 25 0
BBX 1 1 0 0
BITMAP
00
ENDCHAR
STARTCHAR uni2002
ENCODING 8194
SWIDTH 500 0
DWIDTH 13 0
BBX 1 1 0 0
BITMAP
00
ENDCHAR
STARTCHAR uni2003
ENCODING 8195
SWIDTH 1000 0
DWIDTH 25 0
BBX 1 1 0 0
BITMAP
00
ENDCHAR
STARTCHAR uni2004
ENCODING 8196
SWIDTH 333 0
DWIDTH 8 0
BBX 1 1 0 0
BITMAP
00
ENDCHAR
STARTCHAR uni2005
ENCODING 8197
SWIDTH 250 0
DWIDTH 6 0
BBX 1 1 0 0
BITMAP
00
ENDCHAR
STARTCHAR uni2006
ENCODING 8198
SWIDTH 167 0
DWIDTH 4 0
BBX 1 1 0 0
BITMAP
00
ENDCHAR
STARTCHAR uni2007
ENCODING 8199
SWIDTH 500 0
DWIDTH 12 0
BBX 1 1 0 0
BITMAP
00
ENDCHAR
STARTCHAR uni2008
ENCODING 8200
SWIDTH 250 0
DWIDTH 6 0
BBX 1 1 0 0
BITMAP
00
ENDCHAR
STARTCHAR uni2009
ENCODING 8201
SWIDTH 200 0
DWIDTH 5 0
BBX 1 1 0 0
BITMAP
00
ENDCHAR
STARTCHAR uni200A
ENCODING 8202
SWIDTH 100 0
DWIDTH 3 0
BBX 1 1 0 0
BITMAP
00
ENDCHAR
STARTCHAR uni200B
ENCODING 8203
SWIDTH 0 0
DWIDTH 0 0
BBX 1 1 0 0
BITMAP
00
ENDCHAR
STARTCHAR uni2010
ENCODING 8208
SWIDTH 333 0
DWIDTH 8 0
BBX 6 3 1 5
BITMAP
FC
FC
FC
ENDCHAR
STARTCHAR uni2011
ENCODING 8209
SWIDTH 333 0
DWIDTH 8 0
BBX 6 3 1 5
BITMAP
FC
FC
FC
ENDCHAR
STARTCHAR figuredash
ENCODING 8210
SWIDTH 500 0
DWIDTH 13 0
BBX 13 2 0 5
BITMAP
FFF8
FFF8
ENDCHAR
STARTCHAR endash
ENCODING 8211
SWIDTH 500 0
DWIDTH 13 0
BBX 13 2 0 5
BITMAP
FFF8
FFF8
ENDCHAR
STARTCHAR emdash
ENCODING 8212
SWIDTH 1000 0
DWIDTH 24 0
BBX 24 2 0 5
BITMAP
FFFFFF
FFFFFF
ENDCHAR
STARTCHAR afii00208
ENCODING 8213
SWIDTH 1000 0
DWIDTH 24 0
BBX 24 2 0 5
BITMAP
FFFFFF
FFFFFF
ENDCHAR
STARTCHAR quoteleft
ENCODING 8216
SWIDTH 333 0
DWIDTH 8 0
BBX 4 9 2 8
BITMAP
10
30
60
60
C0
E0
F0
F0
60
ENDCHAR
STARTCHAR quoteright
ENCODING 8217
SWIDTH 333 0
DWIDTH 8 0
BBX 4 9 2 8
BITMAP
60
F0
F0
70
30
60
60
C0
80
ENDCHAR
STARTCHAR quotesinglbase
ENCODING 8218
SWIDTH 333 0
DWIDTH 8 0
BBX 4 9 2 -5
BITMAP
60
F0
F0
70
30
60
60
C0
80
ENDCHAR
STARTCHAR quotereversed
ENCODING 8219
SWIDTH 333 0
DWIDTH 8 0
BBX 4 9 2 8
BITMAP
60
F0
F0
E0
C0
60
60
30
10
ENDCHAR
STARTCHAR quotedblleft
ENCODING 8220
SWIDTH 500 0
DWIDTH 13 0
BBX 9 9 2 8
BITMAP
1080
3180
6300
6300
C600
E700
F780
F780
6300
ENDCHAR
STARTCHAR quotedblright
ENCODING 8221
SWIDTH 500 0
DWIDTH 13 0
BBX 9 9 1 8
BITMAP
6300
F780
F780
7380
3180
6300
6300
C600
8400
ENDCHAR
STARTCHAR quotedblbase
ENCODING 8222
SWIDTH 500 0
DWIDTH 13 0
BBX 9 9 2 -5
BITMAP
6300
F780
F780
7380
3180
6300
6300
C600
8400
ENDCHAR
STARTCHAR uni201F
ENCODING 8223
SWIDTH 500 0
DWIDTH 13 0
BBX 9 9 1 8
BITMAP
6300
F780
F780
E700
C600
6300
6300
3180
1080
ENDCHAR
STARTCHAR dagger
ENCODING 8224
SWIDTH 500 0
DWIDTH 13 0
BBX 11 20 1 -3
BITMAP
0400
0E00
0E00
0400
64C0
FFE0
64C0
0400
0E00
0E00
0E00
0400
0400
0400
0400
0400
0400
0400
0400
0400
ENDCHAR
STARTCHAR daggerdbl
ENCODING 8225
SWIDTH 500 0
DWIDTH 13 0
BBX 11 20 1 -3
BITMAP
0400
0E00
0E00
0400
64C0
FFE0
64C0
0400
0E00
0E00
0E00
0E00
0400
64C0
FFE0
64C0
0400
0E00
0E00
0400
ENDCHAR
STARTCHAR bullet
ENCODING 8226
SWIDTH 350 0
DWIDTH 9 0
BBX 6 6 1 5
BITMAP
78
FC
FC
FC
FC
78
ENDCHAR
STARTCHAR ellipsis
ENCODING 8230
SWIDTH 1000 0
DWIDTH 25 0
BBX 20 4 2 0
BITMAP
606060
F0F0F0
F0F0F0
606060
ENDCHAR
STARTCHAR perthousand
ENCODING 8240
SWIDTH 1000 0
DWIDTH 25 0
BBX 23 17 1 0
BITMAP
1E3800
77F000
623000
E26000
C46000
C4C000
E8C000
718000
018000
031C1C
037676
066262
06E2E2
0CC4C4
0CC4C4
18E8E8
187070
ENDCHAR
STARTCHAR guilsinglleft
ENCODING 8249
SWIDTH 333 0
DWIDTH 8 0
BBX 6 10 1 1
BITMAP
0C
18
30
70
E0
E0
70
30
18
0C
ENDCHAR
STARTCHAR guilsinglright
ENCODING 8250
SWIDTH 333 0
DWIDTH 8 0
BBX 6 10 1 1
BITMAP
C0
60
30
38
1C
1C
38
30
60
C0
ENDCHAR
STARTCHAR fraction
ENCODING 8260
SWIDTH 167 0
DWIDTH 8 0
BBX 10 17 -1 0
BITMAP
0040
00C0
0180
0180
0300
0200
0600
0400
0C00
0800
1800
1000
3000
6000
6000
C000
8000
ENDCHAR
STARTCHAR oneinferior
ENCODING 8321
SWIDTH 300 0
DWIDTH 7 0
BBX 6 10 0 -6
BITMAP
30
F0
30
30
30
30
30
30
30
FC
ENDCHAR
STARTCHAR twoinferior
ENCODING 8322
SWIDTH 300 0
DWIDTH 7 0
BBX 6 10 0 -6
BITMAP
38
7C
8C
0C
18
10
20
40
FC
FC
ENDCHAR
STARTCHAR threeinferior
ENCODING 8323
SWIDTH 300 0
DWIDTH 7 0
BBX 6 10 0 -6
BITMAP
38
7C
8C
0C
38
1C
0C
8C
F8
70
ENDCHAR
STARTCHAR uni20A5
ENCODING 8357
SWIDTH 833 0
DWIDTH 21 0
BBX 19 17 1 -2
BITMAP
001800
001800
001000
F3F780
77FFC0
78F1C0
70E1C0
70E1C0
70E1C0
70E1C0
70E1C0
70E1C0
71E1C0
71E1C0
F9F3E0
030000
030000
ENDCHAR
STARTCHAR uni20A6
ENCODING 8358
SWIDTH 722 0
DWIDTH 18 0
BBX 17 17 0 0
BITMAP
F00F80
780700
3C0200
3E0200
3F0200
3FFE00
3FFE00
23E200
21F200
3FFE00
3FFE00
203E00
201E00
200E00
200600
700600
F80200
ENDCHAR
STARTCHAR uni20A9
ENCODING 8361
SWIDTH 1000 0
DWIDTH 25 0
BBX 25 17 1 0
BITMAP
FF7F9F80
3C1E0600
3C0E0400
1C0E0C00
1E1E0800
1FFFD800
0FFFD800
0E371000
0F271000
07FFF000
07FFE000
07C3E000
03C1E000
0381C000
0381C000
01008000
01008000
ENDCHAR
STARTCHAR Euro
ENCODING 8364
SWIDTH 722 0
DWIDTH 18 0
BBX 16 17 0 0
BITMAP
01F9
079F
0F07
1E03
1C01
FFE1
FFE0
3800
3800
FFE0
FFE0
3C00
3C00
1E01
1E07
0F9E
03F8
ENDCHAR
STARTCHAR uni20AD
ENCODING 8365
SWIDTH 778 0
DWIDTH 19 0
BBX 17 17 1 0
BITMAP
FE7F00
383800
383000
386000
38C000
398000
3B0000
FFFF80
FFFF80
3BC000
39E000
38F000
387800
383C00
381E00
380F00
FE1F80
ENDCHAR
STARTCHAR uni2103
ENCODING 8451
SWIDTH 1102 0
DWIDTH 27 0
BBX 25 17 0 0
BITMAP
3C00FC80
6603CF80
C3078380
C30F0180
C30E0080
661E0080
3C1C0000
001C0000
001C0000
001C0000
001C0000
001E0000
001E0000
000F0080
000F0380
0007CF00
0001FC00
ENDCHAR
STARTCHAR uni2109
ENCODING 8457
SWIDTH 991 0
DWIDTH 24 0
BBX 23 17 0 0
BITMAP
3C7FFE
661C0E
C31C06
C31C02
C31C12
661C10
3C1C30
001C70
001FF0
001C70
001C30
001C10
001C10
001C00
001C00
001C00
007F80
ENDCHAR
STARTCHAR trademark
ENCODING 8482
SWIDTH 1000 0
DWIDTH 25 0
BBX 23 10 1 7
BITMAP
FFDC0E
CCCE1C
8C4E1C
0C0F3C
0C0B2C
0C0BEC
0C09CC
0C09CC
0C088C
1E1C9E
ENDCHAR
STARTCHAR uni212A
ENCODING 8490
SWIDTH 778 0
DWIDTH 19 0
BBX 17 17 1 0
BITMAP
FE7F00
383800
383000
386000
38C000
398000
3B0000
3F0000
3F8000
3BC000
39E000
38F000
387800
383C00
381E00
380F00
FE1F80
ENDCHAR
STARTCHAR uni212B
ENCODING 8491
SWIDTH 722 0
DWIDTH 18 0
BBX 17 22 0 0
BITMAP
01C000
022000
022000
01C000
000000
018000
01C000
03C000
03E000
02E000
06E000
067000
047000
0C7000
083800
083800
1FF800
103C00
301C00
301E00
701E00
F87F80
ENDCHAR
STARTCHAR uni2132
ENCODING 8498
SWIDTH 611 0
DWIDTH 15 0
BBX 14 17 0 0
BITMAP
03FC
0070
0070
0070
1070
1070
1870
1C70
1FF0
1C70
1870
1070
9070
8070
C070
E070
FFFC
ENDCHAR
STARTCHAR universal
ENCODING 8704
SWIDTH 722 0
DWIDTH 18 0
BBX 17 17 0 0
BITMAP
F87F80
701E00
301E00
301C00
103C00
1FF800
083800
083800
0C7000
047000
067000
06E000
02E000
03E000
03C000
01C000
018000
ENDCHAR
STARTCHAR existential
ENCODING 8707
SWIDTH 667 0
DWIDTH 17 0
BBX 15 17 1 0
BITMAP
7FFE
70F0
6070
4070
4870
0870
0C70
0E70
0FF0
0E70
0C70
0870
8870
C070
6070
70F0
7FFE
ENDCHAR
STARTCHAR uni2204
ENCODING 8708
SWIDTH 667 0
DWIDTH 17 0
BBX 15 17 1 0
BITMAP
7FFE
70F0
6070
40F0
48F0
08F0
0DF0
0FF0
0FF0
0F70
0F70
0A70
8E70
C670
6470
7CF0
7FFE
ENDCHAR
STARTCHAR minus
ENCODING 8722
SWIDTH 570 0
DWIDTH 15 0
BBX 11 2 2 5
BITMAP
FFE0
FFE0
ENDCHAR
STARTCHAR fraction
ENCODING 8725
SWIDTH 167 0
DWIDTH 8 0
BBX 10 17 -1 0
BITMAP
0040
00C0
0180
0180
0300
0200
0600
0400
0C00
0800
1800
1000
3000
6000
6000
C000
8000
ENDCHAR
STARTCHAR periodcentered
ENCODING 8729
SWIDTH 250 0
DWIDTH 6 0
BBX 3 3 1 7
BITMAP
E0
E0
E0
ENDCHAR
STARTCHAR uni2236
ENCODING 8758
SWIDTH 333 0
DWIDTH 8 0
BBX 4 12 2 0
BITMAP
60
F0
F0
60
00
00
00
00
60
F0
F0
60
ENDCHAR
STARTCHAR uni2259
ENCODING 8793
SWIDTH 570 0
DWIDTH 14 0
BBX 11 11 1 3
BITMAP
0600
0F00
1980
30C0
0000
FFE0
FFE0
0000
0000
FFE0
FFE0
ENDCHAR
STARTCHAR uni225A
ENCODING 8794
SWIDTH 570 0
DWIDTH 14 0
BBX 11 11 1 3
BITMAP
30C0
1980
0F00
0600
0000
FFE0
FFE0
0000
0000
FFE0
FFE0
ENDCHAR
STARTCHAR notequal
ENCODING 8800
SWIDTH 570 0
DWIDTH 14 0
BBX 11 17 1 -2
BITMAP
0180
0180
0100
0300
0300
0200
FFE0
FFE0
0400
0C00
FFE0
FFE0
1800
1800
1000
3000
3000
ENDCHAR
STARTCHAR equivalence
ENCODING 8801
SWIDTH 570 0
DWIDTH 14 0
BBX 11 8 0 2
BITMAP
FFE0
FFE0
0000
FFE0
FFE0
0000
FFE0
FFE0
ENDCHAR
STARTCHAR uni2262
ENCODING 8802
SWIDTH 570 0
DWIDTH 14 0
BBX 11 17 0 -2
BITMAP
0180
0180
0100
0300
0300
FFE0
FFE0
0600
FFE0
FFE0
0C00
FFE0
FFE0
1800
1000
3000
3000
ENDCHAR
STARTCHAR lessequal
ENCODING 8804
SWIDTH 570 0
DWIDTH 14 0
BBX 11 15 1 -3
BITMAP
0060
01E0
07C0
1F00
3C00
E000
E000
3C00
1F00
07C0
01E0
0060
0000
FFE0
FFE0
ENDCHAR
STARTCHAR greaterequal
ENCODING 8805
SWIDTH 570 0
DWIDTH 14 0
BBX 11 15 1 -3
BITMAP
C000
F000
7C00
1F00
0780
00E0
00E0
0780
1F00
7C00
F000
C000
0000
FFE0
FFE0
ENDCHAR
STARTCHAR uni226E
ENCODING 8814
SWIDTH 570 0
DWIDTH 14 0
BBX 11 17 1 -2
BITMAP
0180
0180
0100
0360
03E0
07C0
1F00
3E00
E400
EC00
3C00
1F00
1FC0
19E0
1060
3000
3000
ENDCHAR
STARTCHAR uni226F
ENCODING 8815
SWIDTH 570 0
DWIDTH 14 0
BBX 11 17 1 -2
BITMAP
0180
0180
0100
C300
F300
7E00
1F00
0780
04E0
0CE0
0F80
1F00
7C00
F800
D000
3000
3000
ENDCHAR
STARTCHAR uni2270
ENCODING 8816
SWIDTH 570 0
DWIDTH 14 0
BBX 11 17 1 -4
BITMAP
0180
01E0
01E0
07C0
1F00
3E00
E600
E600
3C00
1F00
0FC0
09E0
1860
1800
FFE0
FFE0
3000
ENDCHAR
STARTCHAR uni2271
ENCODING 8817
SWIDTH 570 0
DWIDTH 14 0
BBX 11 17 1 -4
BITMAP
0180
C180
F100
7F00
1F00
0780
06E0
06E0
0780
1F00
7C00
F800
D800
1800
FFE0
FFE0
3000
ENDCHAR
STARTCHAR fi
ENCODING -1
SWIDTH 556 0
DWIDTH 14 0
BBX 11 17 1 0
BITMAP
0F00
39C0
71C0
7000
7000
FFC0
71C0
71C0
71C0
71C0
71C0
71C0
71C0
71C0
71C0
71C0
FBE0
ENDCHAR
STARTCHAR fl
ENCODING -1
SWIDTH 556 0
DWIDTH 14 0
BBX 11 17 1 0
BITMAP
1F40
39C0
71C0
71C0
71C0
FFC0
71C0
71C0
71C0
71C0
71C0
71C0
71C0
71C0
71C0
71C0
FBE0
ENDCHAR
ENDFONT
